<?xml version="1.0" standalone="no"?>
<!DOCTYPE svg PUBLIC "-//W3C//DTD SVG 20010904//EN"
 "http://www.w3.org/TR/2001/REC-SVG-20010904/DTD/svg10.dtd">
<svg version="1.0" xmlns="http://www.w3.org/2000/svg"
 width="1200.000000pt" height="450.000000pt" viewBox="0 0 1200.000000 450.000000"
 preserveAspectRatio="xMidYMid meet">
<metadata>
Created by potrace 1.16, written by Peter Selinger 2001-2019
</metadata>
<g transform="translate(0.000000,450.000000) scale(0.100000,-0.100000)"
fill="#000000" stroke="none">
<path d="M11385 4387 c-127 -43 -203 -113 -269 -248 -72 -150 -77 -191 -82
-664 -6 -476 -8 -509 -74 -916 -49 -306 -50 -321 -24 -377 1 -1 31 -11 68 -21
61 -17 67 -17 75 -2 5 9 55 124 111 256 124 291 185 414 294 593 393 647 403
666 437 807 16 68 20 109 16 170 -7 112 -36 174 -131 273 -100 105 -163 135
-291 139 -56 2 -105 -2 -130 -10z m205 -37 c117 -22 215 -85 275 -176 l38 -56
-11 -127 c-19 -211 -49 -283 -265 -640 -72 -119 -166 -274 -209 -346 -96 -158
-159 -287 -273 -555 -48 -113 -92 -210 -99 -217 -13 -14 -98 -44 -105 -37 -2
2 12 106 33 232 80 493 77 458 86 967 5 263 13 492 19 520 40 183 128 333 228
387 95 52 184 67 283 48z"/>
<path d="M2444 3295 c-8 -42 -9 -39 47 -68 78 -39 79 -15 -1 -574 -39 -274
-82 -579 -96 -678 -13 -99 -29 -195 -35 -213 -12 -35 -52 -62 -93 -62 -35 0
-58 -26 -54 -64 3 -30 5 -31 63 -37 53 -6 140 -17 375 -50 36 -5 93 -12 126
-15 l62 -7 7 34 c6 26 4 36 -10 44 -71 42 -80 51 -83 87 -3 31 42 377 78 604
6 33 10 77 10 96 0 29 7 42 35 67 78 68 166 89 226 54 37 -22 51 -59 50 -129
-1 -77 -90 -703 -105 -734 -11 -25 -38 -41 -91 -57 -27 -8 -30 -13 -30 -48 0
-35 3 -40 25 -43 77 -8 358 -45 434 -58 132 -21 142 -20 155 17 6 18 11 33 11
35 0 2 -15 11 -32 20 -60 30 -78 53 -78 102 0 24 20 186 46 361 25 174 45 351
45 395 0 149 -49 229 -179 293 -73 36 -80 38 -176 38 -94 0 -106 -3 -168 -33
-37 -18 -81 -44 -98 -59 -17 -14 -33 -24 -35 -21 -3 2 11 112 29 244 60 420
60 416 47 424 -12 7 -439 70 -478 70 -17 0 -24 -8 -29 -35z m267 -15 c118 -17
220 -32 226 -35 10 -3 9 -11 -2 -32 -12 -23 -96 -572 -95 -623 0 -8 4 -21 9
-29 7 -11 18 -7 53 22 24 20 75 51 114 69 63 30 77 33 164 33 85 0 102 -3 160
-31 69 -33 121 -77 146 -126 27 -53 20 -187 -30 -538 -25 -179 -46 -341 -46
-359 0 -46 31 -92 80 -120 38 -21 40 -25 27 -39 -14 -13 -43 -11 -277 23 -143
20 -269 35 -280 32 -17 -4 -20 0 -20 24 0 26 3 29 34 29 44 0 83 32 96 78 16
59 100 675 100 734 -1 149 -100 207 -236 138 -114 -57 -107 -38 -164 -435 -27
-191 -50 -363 -50 -381 0 -37 37 -87 81 -110 16 -8 29 -19 29 -24 0 -22 -61
-19 -301 15 -139 20 -264 35 -277 32 -20 -4 -23 -1 -20 22 2 21 9 27 33 29 51
5 85 23 102 55 17 33 203 1317 203 1402 0 32 -7 62 -20 82 -19 32 -59 51 -79
38 -7 -4 -11 5 -11 24 0 24 5 31 19 31 10 0 115 -14 232 -30z"/>
<path d="M3708 3316 c-96 -25 -178 -122 -178 -210 0 -32 54 -138 86 -168 97
-91 247 -74 322 36 27 41 32 57 32 108 0 93 -54 189 -124 221 -48 22 -87 26
-138 13z m152 -56 c63 -32 75 -53 72 -128 -7 -176 -126 -249 -283 -174 -67 31
-83 58 -81 132 3 151 155 240 292 170z"/>
<path d="M5323 3161 c-204 -12 -317 -22 -326 -30 -38 -31 -14 -91 36 -91 14 0
49 -5 76 -11 59 -12 106 -58 97 -93 -3 -12 1 -129 8 -261 7 -132 10 -243 7
-247 -3 -3 -168 30 -366 73 -198 43 -372 79 -386 79 -40 0 -54 -25 -89 -155
-36 -135 -33 -165 18 -165 23 0 35 10 68 57 57 84 91 103 179 103 66 0 179
-15 198 -27 5 -3 -5 -13 -21 -23 -37 -23 -629 -652 -644 -685 -13 -29 -23 -32
-33 -8 -6 17 -70 492 -117 868 -15 121 -26 175 -37 188 -16 16 -28 16 -245
-13 -234 -30 -266 -40 -266 -79 1 -30 34 -58 75 -64 54 -8 85 -45 85 -100 0
-23 23 -213 50 -423 57 -438 57 -437 -17 -487 -47 -31 -54 -57 -25 -94 l17
-21 308 41 c259 34 307 43 305 56 -4 21 -103 18 -318 -10 -163 -20 -228 -33
-271 -55 -25 -12 -27 -12 -33 9 -3 12 -2 23 2 25 44 15 80 43 95 74 21 42 26
-13 -48 543 -51 384 -60 444 -74 458 -7 7 -37 12 -66 12 -50 0 -55 2 -55 23 0
12 3 22 8 22 4 0 112 14 240 31 128 17 236 28 240 25 3 -4 -2 -20 -11 -36 -10
-16 -15 -39 -12 -52 3 -13 30 -216 60 -453 31 -236 60 -444 66 -461 12 -39 74
-94 105 -94 24 0 207 -38 581 -121 100 -22 190 -39 199 -37 12 2 32 48 70 161
52 157 53 158 33 178 -35 35 -46 29 -138 -81 -64 -76 -107 -93 -234 -89 -56 2
-112 0 -124 -4 -43 -16 -24 15 85 132 59 64 112 121 117 127 11 12 193 209
295 319 36 38 84 92 107 119 45 51 58 48 45 -12 -4 -18 -1 -169 7 -337 19
-393 18 -395 -115 -425 -59 -13 -74 -25 -74 -57 0 -53 10 -55 242 -43 466 22
606 30 663 36 147 14 291 62 392 130 58 39 70 43 111 39 26 -2 108 -9 182 -15
74 -6 154 -13 177 -15 39 -4 43 -2 49 19 14 55 -25 86 -107 86 -33 0 -40 4
-45 25 -7 29 1 57 58 188 l43 97 35 -5 c19 -3 117 -12 218 -20 100 -9 189 -18
197 -21 8 -3 18 -22 21 -42 4 -21 13 -50 20 -67 20 -49 26 -137 12 -165 -12
-21 -23 -26 -75 -31 -65 -6 -93 -21 -93 -48 1 -43 18 -48 220 -65 107 -9 218
-21 245 -26 51 -10 438 -50 481 -50 20 0 24 5 24 28 0 37 -41 73 -90 79 -28 4
-47 14 -62 32 -19 24 -20 34 -14 161 3 74 10 171 15 215 5 44 19 190 31 325
13 135 25 247 28 250 3 3 7 -1 10 -9 2 -7 65 -104 140 -215 166 -247 573 -852
621 -923 26 -37 44 -53 65 -57 16 -4 33 -3 38 2 4 4 19 129 33 277 14 149 34
356 45 460 10 105 26 269 35 365 10 96 23 190 31 208 14 36 39 48 114 58 46 6
50 9 50 33 0 14 -11 36 -25 49 -22 21 -44 25 -207 42 -209 22 -231 18 -236
-37 -3 -35 8 -44 72 -58 16 -3 45 -22 64 -41 32 -32 34 -38 28 -82 -3 -26 -19
-177 -36 -336 -16 -159 -31 -291 -33 -293 -7 -6 -44 48 -331 477 -156 232
-290 422 -305 432 -18 12 -80 21 -214 34 -184 17 -188 17 -207 -2 -26 -27 -16
-70 21 -90 29 -15 129 -138 129 -158 0 -7 -5 -17 -11 -23 -7 -7 -29 -193 -55
-460 -24 -246 -46 -466 -50 -487 -3 -22 -18 -51 -31 -64 l-26 -26 -18 35 c-19
36 -102 281 -264 784 -53 165 -114 354 -136 420 -21 67 -39 126 -39 133 0 6
-11 19 -24 27 -25 17 -62 9 -83 -16 -6 -8 -144 -275 -308 -594 -276 -539 -350
-673 -362 -662 -2 3 3 31 13 63 27 93 16 204 -31 302 -44 93 -104 153 -201
202 -58 30 -78 35 -135 35 -37 0 -70 3 -74 6 -3 4 16 14 43 23 104 35 226 135
260 214 45 104 37 212 -24 333 -49 98 -126 153 -269 194 -87 25 -409 27 -792
6z m822 -55 c85 -27 154 -66 194 -109 29 -32 50 -126 51 -227 0 -154 -78 -242
-292 -328 -20 -8 -28 -19 -28 -35 0 -22 7 -25 83 -40 110 -22 230 -82 288
-144 42 -45 46 -54 63 -146 32 -169 10 -256 -92 -362 -107 -112 -235 -168
-447 -194 -49 -6 -232 -18 -406 -26 -290 -14 -398 -24 -451 -41 -16 -5 -19 -2
-16 18 2 16 11 24 28 26 94 12 153 50 170 110 7 27 3 168 -15 517 -26 517 -43
804 -49 847 -9 69 -72 105 -168 96 -42 -4 -48 -3 -48 13 0 26 9 27 305 40 143
6 310 14 370 18 182 10 367 -3 460 -33z m1147 -115 c-2 -34 334 -1091 390
-1226 45 -105 45 -113 12 -121 -16 -4 -39 -16 -51 -27 -21 -18 -31 -19 -145
-14 -68 4 -165 3 -215 -1 -92 -7 -93 -7 -93 15 0 22 4 23 69 23 75 0 96 11
107 55 6 25 -15 131 -41 204 -8 24 -15 58 -15 76 0 18 -6 37 -12 42 -12 10
-367 47 -453 48 l-40 0 -59 -116 c-35 -71 -60 -134 -63 -162 -5 -44 -4 -46 33
-70 40 -24 89 -43 134 -50 l25 -3 -27 -12 c-22 -9 -42 -7 -105 9 -61 17 -97
20 -168 16 -49 -3 -98 -8 -107 -12 -14 -5 -18 -2 -18 14 0 15 10 23 43 32 26
7 55 25 77 48 21 22 94 151 179 316 79 154 172 334 206 400 34 66 101 197 148
290 132 262 135 267 166 263 23 -3 26 -7 23 -37z m745 -71 c108 -11 197 -21
198 -23 12 -19 264 -395 373 -557 258 -382 272 -400 272 -351 0 10 6 81 14
157 47 459 49 497 36 544 -8 25 -13 48 -12 51 3 17 -41 41 -94 52 -54 11 -59
14 -56 36 3 20 8 23 36 18 18 -3 117 -13 220 -23 193 -18 227 -31 130 -48
-105 -18 -123 -26 -139 -56 -8 -16 -15 -46 -15 -66 0 -66 -61 -668 -71 -704
-5 -19 -20 -138 -33 -264 -20 -195 -26 -231 -42 -243 -25 -18 -24 -19 -196
237 -79 118 -238 354 -352 523 -115 170 -212 324 -218 343 -5 19 -21 42 -35
51 -24 16 -26 16 -38 -1 -18 -24 -20 -38 -60 -457 -45 -476 -46 -454 8 -513
30 -33 58 -53 92 -64 28 -10 52 -22 55 -27 9 -19 -53 -17 -109 3 -82 30 -113
34 -162 23 -24 -5 -74 -12 -111 -16 l-68 -7 0 26 c0 25 3 26 50 26 65 0 103
20 125 66 17 36 33 181 106 950 l12 122 -30 43 c-17 24 -33 54 -37 66 -4 14
-23 28 -51 39 -36 13 -45 22 -45 40 0 30 -5 30 247 4z m-3242 -440 c176 -39
344 -75 373 -82 28 -6 52 -14 52 -17 0 -4 -11 -13 -24 -21 -33 -20 -666 -710
-666 -725 0 -24 25 -32 132 -45 117 -14 170 -9 227 19 40 21 106 88 136 139
15 25 24 31 40 26 30 -9 30 -11 4 -42 -14 -15 -40 -73 -58 -128 -19 -54 -39
-102 -43 -105 -5 -3 -35 0 -66 7 -31 8 -115 23 -187 35 -71 12 -146 27 -165
35 -19 8 -95 27 -167 44 -99 22 -139 27 -158 20 -67 -26 -14 42 278 352 350
372 367 391 367 411 0 8 -8 18 -17 22 -39 14 -172 35 -229 35 -81 0 -141 -37
-185 -115 -31 -55 -46 -72 -55 -62 -3 3 9 58 26 124 39 149 37 143 52 143 8 0
157 -32 333 -70z"/>
<path d="M5676 3090 c-39 -12 -63 -36 -76 -75 -15 -46 14 -605 32 -617 36 -22
201 3 279 42 47 25 94 93 105 153 14 82 6 210 -20 316 -30 123 -44 146 -99
172 -45 20 -166 25 -221 9z m191 -42 c40 -12 89 -66 103 -115 6 -21 14 -92 17
-158 11 -231 -35 -302 -218 -338 -41 -8 -81 -18 -90 -21 -14 -6 -17 20 -28
231 -19 360 -19 359 6 385 35 34 127 42 210 16z"/>
<path d="M5658 2344 c-10 -3 -21 -17 -24 -31 -10 -36 17 -598 30 -653 9 -38
19 -50 61 -78 48 -32 53 -33 125 -29 130 9 201 53 247 155 35 75 43 230 18
337 -9 39 -20 86 -24 105 -17 80 -66 135 -151 173 -35 16 -70 21 -155 23 -60
2 -118 1 -127 -2z m256 -55 c47 -16 128 -87 149 -131 21 -45 40 -220 33 -293
-17 -153 -65 -229 -165 -259 -56 -16 -136 -20 -181 -7 -14 4 -31 18 -37 33 -8
16 -18 140 -28 334 -9 170 -18 318 -21 328 -6 18 -1 19 102 13 60 -3 126 -11
148 -18z"/>
<path d="M7073 2588 c-22 -24 -233 -436 -233 -455 0 -7 8 -14 18 -17 23 -7
182 -23 309 -32 l103 -7 -16 54 c-9 30 -40 129 -70 221 -30 92 -54 183 -54
201 0 30 -14 57 -30 57 -4 0 -16 -10 -27 -22z m42 -55 c4 -21 33 -119 65 -218
43 -135 54 -182 45 -187 -7 -4 -74 -2 -148 4 -112 10 -141 9 -162 -2 -14 -7
-28 -10 -32 -7 -8 8 207 447 219 447 4 0 10 -17 13 -37z"/>
<path d="M9680 2950 c-159 -21 -300 -90 -416 -205 -200 -198 -260 -426 -194
-737 47 -220 187 -407 375 -499 132 -64 184 -74 395 -73 159 0 199 3 280 23
52 13 111 31 130 40 34 16 50 45 33 61 -4 4 -66 -12 -138 -37 -187 -63 -198
-65 -325 -60 -103 4 -127 9 -234 46 -151 53 -182 69 -289 149 -95 70 -131 114
-170 207 -43 104 -52 161 -51 315 0 136 2 151 33 240 82 241 268 414 507 471
73 17 111 20 209 17 109 -4 131 -8 242 -46 169 -58 203 -55 232 21 8 21 17 27
41 27 36 0 37 -7 8 -68 -21 -42 -23 -62 -23 -199 0 -169 -10 -202 -42 -144
-10 17 -36 60 -57 94 -22 34 -41 68 -42 75 -1 7 -14 29 -29 48 -103 135 -353
190 -527 115 -89 -38 -159 -143 -199 -302 -27 -107 -38 -391 -19 -507 14 -87
65 -258 81 -267 5 -4 19 -28 31 -53 12 -26 47 -72 78 -103 71 -72 130 -94 255
-94 105 0 168 22 190 66 18 34 23 355 6 386 -5 11 -8 23 -5 26 3 3 -7 14 -22
24 -19 12 -49 18 -98 19 -64 1 -71 3 -74 23 l-3 21 362 0 c308 0 360 -2 350
-14 -6 -8 -33 -17 -59 -21 -26 -4 -66 -15 -89 -25 -34 -15 -44 -25 -52 -57
-13 -46 -15 -213 -2 -213 22 0 41 52 41 110 0 104 41 160 117 160 58 0 76 40
37 79 l-26 26 -328 0 c-351 0 -360 -1 -360 -50 0 -48 9 -55 67 -55 67 0 118
-22 132 -58 7 -18 8 -76 3 -174 -7 -137 -9 -149 -32 -174 -38 -41 -80 -54
-173 -54 -78 0 -163 17 -214 42 -31 15 -79 86 -103 152 -46 120 -61 207 -67
378 -17 489 119 736 398 716 162 -12 299 -125 423 -350 33 -59 41 -68 66 -68
l28 0 4 243 c3 202 2 245 -10 260 -23 27 -58 21 -95 -17 -19 -18 -43 -37 -55
-40 -13 -4 -66 8 -141 33 -167 55 -263 68 -391 51z"/>
<path d="M2305 2778 c-120 -10 -142 -20 -131 -61 5 -20 14 -26 51 -32 26 -3
49 -13 52 -21 3 -8 -1 -40 -10 -72 -27 -105 -102 -342 -108 -342 -11 0 -149
355 -149 383 0 24 6 29 45 39 44 12 46 14 43 48 l-3 35 -75 -1 c-106 -2 -396
-23 -415 -30 -11 -5 -15 -16 -13 -37 3 -26 9 -32 42 -41 46 -13 71 -44 87
-107 12 -44 10 -55 -37 -208 -27 -88 -52 -157 -57 -152 -21 21 -187 386 -187
411 0 24 6 31 35 41 22 8 35 20 35 30 0 17 -3 17 -37 2 -21 -8 -44 -20 -50
-25 -17 -14 -17 -78 0 -103 8 -11 53 -104 102 -207 49 -104 91 -186 93 -183 3
3 10 -2 17 -11 9 -13 22 18 68 165 l56 180 -25 78 c-30 93 -46 113 -91 113
-51 0 -44 27 10 34 93 12 428 29 434 22 10 -9 -17 -26 -42 -26 -11 0 -31 -7
-44 -16 -20 -14 -23 -23 -18 -58 7 -61 148 -394 173 -411 20 -13 22 -8 83 188
83 270 80 316 -15 305 -27 -3 -34 0 -34 13 0 17 7 19 203 35 86 7 103 -6 42
-32 -19 -8 -42 -26 -52 -40 -14 -22 -100 -286 -264 -816 -24 -78 -34 -98 -48
-98 -11 0 -21 6 -24 13 -3 6 -55 133 -116 281 -61 148 -111 280 -111 293 0 28
-26 41 -44 22 -7 -8 -52 -140 -100 -294 -109 -351 -108 -349 -129 -353 -14 -3
-33 28 -86 140 -265 552 -322 674 -327 694 -8 33 -42 64 -69 64 -32 0 -33 28
-3 34 13 3 121 11 241 17 188 11 216 14 204 27 -13 12 -45 12 -237 -2 -132 -9
-228 -20 -236 -27 -30 -24 -7 -68 43 -83 24 -7 15 9 270 -526 91 -190 169
-351 175 -357 6 -7 23 -13 38 -13 25 0 30 6 44 48 8 26 54 173 102 327 48 154
88 282 90 284 2 2 6 -5 9 -15 25 -80 230 -581 245 -599 10 -12 56 -9 64 4 3 4
66 204 141 444 74 241 140 448 146 461 6 13 27 32 45 42 25 14 34 25 34 44 0
32 -17 50 -44 49 -12 -1 -70 -6 -131 -11z"/>
<path d="M11801 2045 c-35 -47 -67 -85 -71 -85 -4 0 -11 16 -14 35 -8 41 -72
100 -127 116 -51 16 -119 3 -170 -31 l-43 -28 -35 19 c-61 33 -82 26 -151 -47
l-62 -67 -77 17 c-211 45 -395 -5 -549 -148 -80 -76 -107 -113 -159 -219 -30
-61 -34 -81 -39 -175 -8 -144 11 -234 80 -377 42 -86 65 -121 107 -161 148
-138 353 -203 535 -169 241 45 429 206 510 437 23 63 27 92 28 203 l2 130 53
78 c53 80 76 97 46 35 -14 -29 -14 -31 0 -13 19 24 30 63 21 73 -9 9 -159
-155 -166 -181 -3 -12 -15 -21 -28 -22 l-22 -2 19 33 c28 47 16 128 -27 179
l-31 38 39 41 c22 23 46 50 54 61 12 16 19 18 51 10 43 -12 46 -27 8 -37 -21
-5 -28 -14 -29 -32 -2 -31 16 -38 58 -24 l32 11 -32 11 -33 12 35 12 c46 17
45 29 -1 48 -20 9 -52 27 -70 41 -31 24 -33 24 -33 6 0 -11 -10 -31 -21 -44
-12 -13 -28 -34 -36 -46 -9 -13 -20 -23 -26 -23 -5 0 -25 -18 -44 -40 -42 -49
-68 -51 -138 -11 -65 37 -131 109 -144 157 -17 61 4 60 33 -1 20 -39 46 -70
88 -105 80 -64 104 -70 137 -34 15 16 17 21 5 11 -23 -19 -51 -22 -73 -8 -12
7 -4 22 39 71 l53 61 -53 53 c-49 49 -79 90 -80 108 0 14 37 27 61 21 l24 -7
-25 -6 c-42 -10 -36 -37 23 -96 38 -38 62 -54 80 -54 21 0 27 5 27 23 0 12 -4
28 -9 36 -6 9 -2 26 11 47 24 41 27 43 80 53 32 6 39 10 25 16 -27 11 -74 -13
-128 -67 l-48 -48 -21 22 c-28 30 -21 42 25 46 21 2 53 15 72 29 43 33 108 41
154 18 49 -25 87 -63 94 -95 4 -17 15 -30 28 -34 26 -7 47 15 82 84 47 91 55
85 21 -15 -19 -55 -33 -102 -30 -104 14 -14 55 51 78 122 31 98 31 101 7 94
-14 -3 -18 -1 -14 9 10 27 -2 13 -66 -71z m-1001 -160 c0 -8 -6 -16 -12 -16
-29 -3 -54 -12 -126 -46 -78 -37 -193 -185 -223 -286 -90 -303 97 -612 404
-667 37 -7 88 -10 113 -7 47 5 69 -7 31 -17 -12 -3 -47 -6 -78 -6 -230 0 -437
148 -509 366 -29 87 -30 243 -2 325 35 100 92 187 158 242 49 40 147 101 167
104 10 2 27 8 36 13 24 14 41 12 41 -5z m722 -519 c7 4 7 -2 2 -17 -4 -13 -7
-41 -6 -63 6 -95 -62 -240 -158 -336 -88 -89 -132 -118 -265 -170 -11 -5 -54
-14 -95 -20 -86 -14 -196 1 -290 37 -8 4 -18 7 -22 7 -5 1 -9 6 -10 11 0 6 -8
15 -17 22 -9 7 13 3 48 -8 35 -10 95 -24 134 -30 169 -26 364 45 494 180 89
92 162 253 164 360 0 25 3 40 6 33 2 -6 9 -9 15 -6z"/>
<path d="M11495 1992 c-27 -12 -35 -21 -27 -26 10 -6 10 -11 1 -22 -14 -18 4
-44 32 -44 10 0 33 -8 51 -19 18 -10 47 -21 64 -24 26 -5 33 -2 44 18 18 34 1
75 -46 107 -46 32 -65 34 -119 10z m128 -65 c5 -16 7 -30 4 -33 -5 -5 -126 22
-134 30 -3 3 -3 12 1 21 4 13 18 15 63 13 52 -3 57 -5 66 -31z"/>
<path d="M11782 1858 c3 -22 7 -23 111 -26 69 -2 107 1 107 8 0 5 -3 10 -7 10
-12 0 -143 19 -181 25 -31 6 -33 4 -30 -17z"/>
<path d="M11902 1786 c-35 -6 -60 -14 -56 -18 4 -5 40 -8 81 -8 66 0 73 2 73
20 0 23 -5 23 -98 6z"/>
<path d="M11865 1734 c23 -18 135 -76 135 -70 0 8 -127 86 -141 86 -10 -1 -8
-5 6 -16z"/>
<path d="M11634 1707 c-12 -17 -40 -60 -63 -94 -23 -35 -40 -63 -37 -63 11 0
136 161 136 175 0 24 -13 18 -36 -18z"/>
<path d="M11830 1694 c0 -11 5 -52 10 -93 6 -41 8 -76 6 -79 -3 -2 -17 20 -32
50 -15 29 -34 63 -43 74 -17 21 -18 21 -79 -57 -34 -44 -62 -84 -62 -89 0 -26
34 -4 86 56 54 61 59 64 72 47 7 -10 16 -30 19 -45 3 -15 14 -35 24 -44 16
-14 21 -15 35 -3 13 11 15 25 10 71 -3 32 -1 60 4 63 5 3 32 -6 59 -20 60 -30
61 -30 61 -6 0 16 -47 42 -157 88 -8 3 -13 -2 -13 -13z"/>
</g>
</svg>
