<svg xmlns="http://www.w3.org/2000/svg" width="175" height="178" viewBox="0 0 175 178">
  <rect width="175" height="178" fill="white"/>
  <g transform="translate(0.000000,178.000000) scale(0.100000,-0.100000)" fill="#2d5a1b">
<path d="M1402 1560 c-9 -15 -10 -25 -2 -38 9 -14 10 -13 4 7 -3 13 -2 21 3
18 5 -3 10 3 10 14 2 24 1 24 -15 -1z M989 1499 l-24 -20 28 17 c15 9 27 18
27 20 0 8 -8 4 -31 -17z M1180 1507 c3 -3 22 -17 43 -31 41 -28 48 -21 16 15
-11 13 -18 18 -14 12 8 -16 0 -16 -28 -2 -12 7 -20 9 -17 6z M1130 1447 c0 -4
18 -25 40 -47 22 -22 40 -36 40 -32 0 5 -18 26 -40 47 -22 21 -40 36 -40 32z
M1254 1425 c-8 -19 13 -45 35 -44 12 1 11 2 -3 6 -15 4 -16 7 -5 15 11 8 10 9
-4 4 -15 -5 -17 -2 -12 14 7 23 -3 27 -11 5z M845 1390 c17 -19 31 -37 33 -39
1 -2 4 -2 7 1 3 2 -12 20 -33 39 l-37 34 30 -35z M943 1408 c-3 -7 -1 -8 5 -4
7 4 12 2 12 -4 0 -13 21 -9 23 4 3 13 -32 16 -40 4z M909 1327 c12 -15 11 -21
-5 -40 l-18 -22 24 22 c24 23 24 23 5 40 -18 17 -18 17 -6 0z M1060 1333 c0
-9 50 -53 62 -53 14 0 9 7 -27 34 -19 15 -35 24 -35 19z M1343 1300 c2 -8 12
-16 23 -17 13 -2 15 -1 4 4 -8 3 -19 11 -23 17 -6 7 -7 6 -4 -4z M1168 1258
c9 -11 9 -18 2 -21 -6 -3 -5 -4 2 -3 18 4 16 28 -2 34 -13 4 -13 3 -2 -10z
M680 1247 c0 -2 15 -16 33 -33 l32 -29 -29 33 c-28 30 -36 37 -36 29z M1125
1230 c-4 -6 -11 -8 -16 -5 -5 3 -6 -1 -3 -9 3 -9 16 -16 28 -15 11 0 15 3 9 6
-7 2 -13 9 -13 14 0 6 5 7 10 4 6 -3 10 -1 10 4 0 14 -17 14 -25 1z M935 1178
l-20 -21 23 12 c12 6 22 16 22 21 0 13 -2 12 -25 -12z M1422 1192 c2 -8 7 -13
12 -12 5 1 13 -4 18 -12 8 -11 9 -11 6 0 -2 8 -7 13 -12 12 -5 -1 -13 4 -18
12 -8 11 -9 11 -6 0z M1486 1145 c10 -8 24 -14 29 -14 6 0 1 6 -9 14 -11 8
-24 15 -30 15 -5 0 -1 -7 10 -15z M1380 1129 c0 -11 4 -18 10 -14 5 3 7 12 3
20 -7 21 -13 19 -13 -6z M1420 1135 c14 -8 30 -14 35 -14 6 0 -1 6 -15 14 -14
8 -29 14 -35 14 -5 0 1 -6 15 -14z M1031 1075 c1 -19 18 -51 18 -35 0 8 -4 22
-9 30 -5 8 -9 11 -9 5z M1091 1018 c-14 -23 -14 -23 8 -4 22 20 25 26 13 26
-4 0 -13 -10 -21 -22z M1087 972 c-9 -10 -17 -32 -19 -49 -2 -27 -5 -30 -17
-20 -12 10 -13 9 -7 -8 5 -11 10 -51 12 -89 3 -72 14 -105 14 -43 0 20 5 37
11 37 8 0 9 21 4 70 -6 57 -4 75 9 95 19 29 16 32 -7 7z M19 433 c8 -16 8 -23
-2 -27 -6 -3 -3 -4 8 -3 12 1 21 -5 23 -17 2 -11 14 -28 26 -38 37 -32 156
-101 163 -94 3 3 1 6 -6 6 -7 0 -10 4 -7 9 3 5 -2 12 -11 15 -13 5 -14 9 -5
15 9 5 5 11 -13 19 -21 10 -25 10 -20 0 4 -7 0 -5 -8 5 -8 9 -19 17 -24 17 -5
0 -18 9 -28 20 -10 11 -22 20 -26 20 -5 0 -25 17 -45 38 -21 22 -31 29 -25 15z
M554 312 c3 -6 -2 -13 -11 -15 -16 -4 -16 -5 -1 -6 21 -1 32 15 17 25 -7 4 -9
3 -5 -4z M253 250 c2 -8 12 -16 23 -17 13 -2 15 -1 4 4 -8 3 -19 11 -23 17 -6
7 -7 6 -4 -4z"/>
</g><g transform="translate(0.000000,178.000000) scale(0.100000,-0.100000)" fill="#1c1c1c">
<path d="M540 1621 c8 -5 32 -12 53 -16 30 -6 37 -4 37 9 0 13 -11 16 -52 16
-35 -1 -48 -4 -38 -9z M1033 1561 c-18 -5 -49 -21 -68 -35 l-36 -27 -45 21
c-27 14 -54 20 -68 16 -14 -3 -50 -34 -82 -69 l-57 -63 -76 16 c-60 13 -100
15 -190 9 -142 -9 -203 -32 -311 -115 -93 -71 -102 -84 -98 -145 l3 -54 29 40
c27 37 101 104 144 129 69 40 102 54 140 61 49 8 59 -9 15 -26 -122 -48 -140
-59 -209 -128 -39 -39 -77 -88 -94 -125 -30 -60 -30 -62 -30 -239 l0 -179 32
-60 c89 -168 251 -266 448 -271 95 -2 110 -20 25 -28 -97 -9 -198 6 -268 41
-80 39 -169 109 -207 162 l-30 41 0 -69 0 -70 55 -51 c61 -58 152 -112 241
-144 47 -17 83 -22 179 -23 107 -1 128 2 193 26 200 73 343 213 415 408 16 44
21 81 22 191 l2 135 51 77 c29 42 50 77 49 77 -2 0 -30 -30 -63 -67 l-59 -67
-2 -128 c-1 -90 -7 -144 -19 -181 -17 -53 -69 -160 -91 -187 -53 -67 -74 -87
-138 -135 -40 -30 -76 -55 -79 -55 -4 0 -31 -11 -61 -25 -30 -13 -84 -29 -121
-36 -75 -13 -210 -7 -264 12 -117 40 -257 128 -262 164 -2 13 -10 19 -23 18
-11 -1 -14 0 -8 3 10 4 10 11 2 27 -7 15 1 10 24 -13 53 -54 147 -107 252
-143 93 -32 267 -29 357 5 136 51 266 165 327 286 47 92 81 268 65 330 -6 22
-7 22 -26 5 -15 -14 -14 -7 8 36 26 49 27 56 16 98 -7 24 -24 61 -37 81 -14
20 -25 40 -25 44 0 14 105 118 119 118 9 0 6 7 -10 20 -22 20 -23 20 -30 2
-10 -26 -167 -182 -183 -182 -81 0 -236 147 -236 223 0 42 23 32 44 -18 12
-30 39 -64 81 -100 34 -30 66 -55 71 -55 5 0 3 4 -5 9 -11 7 -3 21 37 67 29
32 52 61 52 64 0 3 -16 21 -35 39 -88 83 -109 143 -52 149 16 2 40 -4 54 -13
30 -20 58 -15 109 20 56 38 120 37 196 -1 41 -21 47 -22 37 -6 -31 49 -127 80
-196 63z M1410 1525 c-5 -14 -18 -51 -29 -83 -10 -31 -22 -65 -27 -76 -6 -16
-5 -17 14 -7 14 8 29 37 47 92 14 44 25 84 25 90 0 19 -21 8 -30 -16z M1347
1487 c-72 -99 -67 -94 -78 -77 -9 13 -10 13 -6 0 2 -8 13 -16 24 -18 16 -2 29
12 62 69 23 39 40 73 39 75 -2 1 -20 -21 -41 -49z M847 1473 c-31 -30 68 -143
126 -143 22 0 23 33 1 55 -13 12 -14 18 -4 31 7 8 11 17 8 20 -3 2 -13 -7 -22
-21 -11 -17 -13 -25 -4 -25 9 0 9 -3 1 -11 -24 -24 -86 42 -67 72 10 17 -25
37 -39 22z M1050 1441 c-26 -7 -36 -39 -10 -32 8 2 34 6 58 9 25 3 41 9 39 16
-4 13 -52 17 -87 7z M1170 1398 c0 -4 5 -19 10 -34 l11 -27 -43 7 c-24 4 -54
9 -68 12 -14 3 1 -7 33 -22 55 -26 58 -26 77 -9 11 10 20 21 20 25 0 10 -39
57 -40 48z M1345 1307 c4 -8 16 -18 28 -21 25 -7 243 -8 236 -2 -4 4 -56 12
-222 33 -40 5 -47 3 -42 -10z M1515 1240 c-117 -20 -108 -37 13 -26 99 9 122
15 122 32 0 17 -6 16 -135 -6z M1110 1190 c0 -5 11 -10 24 -10 14 0 28 5 31
10 4 6 -7 10 -24 10 -17 0 -31 -4 -31 -10z M1156 1108 l-47 -73 40 45 c46 52
76 100 63 100 -5 0 -30 -33 -56 -72z M1394 1054 c1 -106 20 -126 22 -24 1 39
6 66 13 68 6 2 54 -15 105 -37 100 -44 106 -46 106 -33 0 5 -17 16 -37 25 -21
9 -77 33 -124 55 l-86 40 1 -94z M1277 1075 c-14 -21 -24 -42 -21 -47 3 -5 1
-7 -4 -6 -9 3 -62 -54 -62 -66 0 -18 24 1 75 58 44 51 55 69 47 82 -8 14 -13
12 -35 -21z"/>
</g><g transform="translate(0.000000,178.000000) scale(0.100000,-0.100000)" fill="#8B5e3c">
<path d="M1403 1557 c-7 -15 -8 -29 -2 -38 7 -12 9 -12 10 1 0 8 2 25 5 38 5
28 0 28 -13 -1z M995 1500 c-62 -33 -84 -37 -103 -18 -6 6 -15 8 -19 4 -4 -4
-2 -10 5 -15 6 -4 10 -16 8 -27 -5 -25 1 -35 33 -56 21 -15 26 -15 46 -2 13 8
25 28 28 44 8 36 38 56 98 63 36 5 52 2 80 -15 19 -12 38 -22 42 -23 14 0 27
-29 27 -59 0 -20 4 -27 14 -23 7 3 18 1 23 -4 6 -6 17 -1 28 13 11 13 14 18 6
12 -7 -7 -22 -9 -33 -6 -15 3 -18 10 -14 28 6 23 -12 77 -23 69 -4 -2 -29 7
-56 21 -68 33 -120 31 -190 -6z m15 -25 c0 -2 -10 -10 -22 -16 -21 -11 -22
-11 -9 4 13 16 31 23 31 12z m-30 -42 c0 -12 -22 -43 -31 -43 -6 0 -6 6 0 19
6 10 8 20 6 23 -3 3 2 5 10 5 8 0 15 -2 15 -4z M1359 1478 c-7 -13 -19 -34
-27 -48 -14 -24 -13 -24 3 -5 20 24 48 75 41 75 -3 0 -11 -10 -17 -22z M1123
1449 c15 -6 27 -17 27 -24 0 -8 9 -19 20 -25 11 -6 25 -20 31 -31 9 -17 7 -25
-12 -45 -22 -23 -22 -24 -2 -24 31 0 43 38 28 84 -18 50 -31 62 -80 70 -36 5
-37 4 -12 -5z M859 1377 c25 -27 43 -39 22 -14 -6 8 -7 18 -3 23 4 5 3 6 -2 2
-5 -4 -16 -2 -25 4 -9 7 -5 0 8 -15z M1333 1326 c-12 -39 -9 -46 19 -46 17 0
18 2 5 14 -8 9 -12 26 -10 40 8 37 -2 32 -14 -8z M1094 1325 c2 -16 29 -43 60
-60 23 -13 17 -31 -9 -27 -15 2 -17 0 -8 -9 9 -9 19 -9 43 1 29 12 30 14 14
31 -10 11 -24 19 -33 19 -9 0 -27 10 -41 21 l-25 21 30 -6 30 -6 -25 15 c-32
18 -39 18 -36 0z M1106 1216 c3 -8 16 -13 30 -13 31 0 30 3 -5 15 -24 8 -29 8
-25 -2z M1399 1208 c5 -14 33 -36 72 -56 56 -29 61 -30 35 -8 -17 14 -33 23
-37 20 -4 -2 -10 3 -13 12 -3 8 -10 13 -14 10 -5 -3 -14 6 -20 19 -15 32 -34
33 -23 3z M934 1178 c-29 -31 -29 -31 -2 -12 15 10 29 25 32 32 8 18 2 15 -30
-20z M1192 1202 c-9 -6 -6 -12 13 -20 22 -10 25 -9 25 8 0 21 -16 26 -38 12z
M1383 1120 c0 -25 2 -35 4 -22 2 12 2 32 0 45 -2 12 -4 2 -4 -23z M1215 1110
c-10 -11 -13 -20 -7 -20 6 0 13 6 16 13 8 16 0 -23 -9 -48 -6 -14 -5 -17 3
-10 13 13 33 85 23 85 -4 0 -16 -9 -26 -20z M1490 1105 c25 -13 50 -24 55 -24
6 0 -10 11 -35 24 -25 13 -49 24 -55 24 -5 0 10 -11 35 -24z M1294 1108 c-4
-7 -4 -10 1 -6 7 7 55 -54 55 -71 0 -4 7 -16 15 -27 11 -14 10 -7 -3 26 -11
25 -17 52 -14 60 3 8 1 12 -3 7 -5 -4 -16 0 -26 9 -14 12 -18 13 -25 2z M1124
1062 c3 -6 -2 -15 -11 -21 -10 -6 -13 -11 -7 -11 20 0 37 27 23 36 -7 4 -9 3
-5 -4z M1107 992 c-20 -21 -37 -45 -37 -54 0 -22 -17 -32 -24 -16 -3 7 -4 2
-2 -12 11 -60 15 -144 7 -120 -8 23 -9 22 -10 -12 -1 -20 5 -43 13 -50 8 -8
16 -23 19 -34 2 -10 6 10 8 46 4 88 1 114 -11 118 -13 5 -13 52 0 52 6 0 10
10 10 22 0 12 17 39 37 60 20 21 35 38 32 38 -3 0 -22 -17 -42 -38z M103 348
c1 -7 9 -20 17 -29 18 -20 120 -72 120 -62 0 5 5 1 11 -7 9 -13 10 -13 6 0 -2
8 -9 14 -15 13 -5 -1 -13 4 -16 12 -3 8 -1 15 5 15 6 0 -20 16 -57 35 -76 40
-75 39 -71 23z"/>
</g><g transform="translate(0.000000,178.000000) scale(0.100000,-0.100000)" fill="#FFB300">
<path d="M994 1490 c-22 -15 -55 -30 -74 -32 -41 -4 -47 -18 -20 -49 l20 -24
23 27 c12 14 40 41 61 58 32 25 48 30 82 29 29 -2 40 -7 37 -15 -2 -7 6 -22
19 -34 13 -11 31 -29 42 -38 47 -44 39 -102 -15 -102 -17 0 -39 5 -50 11 -18
9 -19 9 -10 -9 6 -11 27 -26 46 -32 19 -6 39 -19 45 -28 5 -9 10 -12 10 -5 0
6 -12 21 -27 33 l-28 21 42 -6 c38 -6 45 -4 67 22 31 34 33 59 6 66 -13 3 -20
14 -20 30 0 27 -54 81 -97 98 -49 18 -115 10 -159 -21z M850 1403 c0 -5 10
-18 23 -29 l22 -19 -20 25 c-11 14 -21 27 -22 29 -2 2 -3 0 -3 -6z M1310 1335
c-12 -32 -7 -55 12 -55 8 0 13 13 13 34 0 46 -12 55 -25 21z M1347 1243 c-2
-4 11 -20 29 -36 26 -22 32 -24 30 -10 -2 10 -8 18 -15 18 -7 0 -19 8 -26 18
-7 10 -15 15 -18 10z M1152 1221 c-11 -6 -10 -10 4 -15 20 -8 32 0 18 14 -5 5
-15 5 -22 1z M1201 1197 c9 -7 18 -19 22 -27 3 -9 6 -4 6 13 1 22 -3 27 -21
27 -20 -1 -21 -2 -7 -13z M1248 1148 c-20 -20 -22 -28 -8 -28 9 0 35 39 28 44
-2 2 -11 -6 -20 -16z M1327 1111 c-3 -11 -1 -24 5 -27 5 -3 13 -15 17 -27 6
-15 9 -17 13 -6 3 8 -2 30 -12 48 -15 31 -17 32 -23 12z M1533 1106 c0 -6 11
-11 23 -11 14 0 19 4 14 9 -14 14 -37 15 -37 2z M1044 959 c-4 -8 -3 -9 4 -5
7 4 12 3 12 -3 0 -5 -5 -13 -10 -16 -6 -4 -8 -11 -4 -16 8 -14 24 -1 24 21 0
23 -16 35 -26 19z"/>
</g>
</svg>