<?xml version="1.0" encoding="UTF-8"?>
<svg xmlns="http://www.w3.org/2000/svg" 
     width="1360" height="460" 
     viewBox="0 0 1360 460">
  <title>whizBANG! Developers LLC</title>
  
  <!-- Dark outlines, bomb body, fuse -->
  <g transform="translate(0,460) scale(0.1,-0.1)" fill="#111111" stroke="none">
    <path d="M11622 4592 c-12 -2 -20 -7 -17 -12 3 -5 1 -11 -5 -15 -5 -3 -10 -1
-10 5 0 6 -16 -5 -35 -25 -20 -19 -40 -35 -46 -35 -6 0 -9 -6 -7 -12 3 -7 -6
-24 -19 -38 -35 -37 -60 -80 -66 -117 -4 -18 -5 -33 -3 -33 2 0 19 33 39 73
45 91 114 160 193 192 58 24 53 28 -24 17z"/>
    <path d="M11945 4590 c27 -12 43 -12 25 0 -8 5 -22 9 -30 9 -10 0 -8 -3 5 -9z"/>
    <path d="M11991 4576 c2 -2 15 -9 29 -15 24 -11 24 -11 6 3 -16 13 -49 24 -35
12z"/>
    <path d="M11392 4273 c-14 -35 -32 -138 -31 -172 1 -14 7 8 14 49 7 41 19 90
25 108 15 40 7 54 -8 15z"/>
    <path d="M12206 4141 c-33 -152 -86 -257 -316 -631 -245 -400 -271 -445 -347
-620 -25 -58 -51 -118 -58 -135 -8 -16 -37 -86 -66 -155 -56 -131 -67 -146
-111 -156 -16 -4 -28 -10 -28 -14 0 -4 12 -11 28 -14 15 -4 35 -9 44 -12 13
-4 24 11 47 61 17 37 31 69 31 72 0 2 14 37 31 76 155 356 206 462 291 602
408 672 432 715 462 841 10 39 16 93 14 120 l-3 49 -19 -84z"/>
    <path d="M11353 3970 c0 -30 2 -43 4 -27 2 15 2 39 0 55 -2 15 -4 2 -4 -28z"/>
    <path d="M2754 3566 c-3 -8 -4 -23 -1 -33 3 -12 5 -9 6 9 1 24 4 27 29 23 15
-3 124 -19 242 -36 124 -17 218 -35 222 -42 5 -8 8 -6 8 6 0 9 -3 17 -7 17 -5
0 -116 16 -247 35 -132 19 -241 35 -243 35 -2 0 -6 -6 -9 -14z"/>
    <path d="M4010 3550 c0 -5 -7 -6 -17 -3 -12 5 -14 3 -8 -7 6 -10 4 -12 -8 -7
-10 3 -17 2 -17 -3 0 -6 -6 -9 -12 -7 -7 1 -12 -4 -10 -10 1 -7 -2 -14 -8 -14
-5 -1 -16 -2 -22 -3 -7 -1 -12 -9 -10 -19 2 -9 -3 -17 -10 -17 -20 0 -34 -41
-35 -101 l-1 -54 8 46 c11 61 31 99 74 137 64 56 145 66 219 28 26 -13 43 -18
37 -11 -6 7 -24 18 -40 25 -17 7 -30 16 -30 21 0 5 -25 9 -55 9 -30 0 -55 -4
-55 -10z"/>
    <path d="M2844 3448 c9 -15 16 -40 16 -55 0 -46 -188 -1357 -198 -1384 -14
-35 -36 -50 -90 -64 -36 -9 -48 -18 -55 -39 -6 -18 -6 -31 1 -38 7 -7 10 -6 9
3 -2 51 3 59 36 59 44 0 77 19 98 55 13 21 36 157 79 455 33 234 76 534 95
668 41 287 42 312 14 343 l-21 24 16 -27z"/>
    <path d="M3234 3446 c-3 -8 -4 -27 -2 -43 3 -23 5 -20 9 15 5 43 2 53 -7 28z"/>
    <path d="M5957 3414 c-2 -3 -44 -7 -93 -10 -49 -2 -118 -7 -154 -11 -36 -3
-117 -6 -182 -7 -64 0 -114 -4 -111 -8 2 -5 -20 -7 -49 -6 l-53 1 45 7 45 7
-40 1 c-42 1 -67 -12 -78 -40 -8 -22 2 -23 17 -3 9 11 62 16 251 25 132 6 306
15 388 20 200 13 286 12 391 -5 148 -24 263 -78 318 -148 10 -12 18 -19 18
-14 0 11 -81 97 -92 97 -5 0 -16 7 -25 15 -8 8 -19 13 -24 10 -5 -4 -9 -2 -9
2 0 21 -125 56 -193 54 -27 -1 -46 2 -44 6 5 8 -318 14 -326 7z"/>
    <path d="M4247 3338 c-21 -65 -50 -113 -88 -140 -36 -27 -130 -34 -192 -15
-42 14 -47 14 -36 1 39 -47 162 -64 225 -31 72 37 119 123 112 202 l-4 40 -17
-57z"/>
    <path d="M5997 3340 c-48 -9 -85 -44 -93 -87 -4 -19 -1 -132 5 -251 16 -304
20 -342 36 -342 10 0 13 17 9 73 -28 525 -28 514 -11 541 21 32 84 49 159 44
45 -3 68 -12 104 -37 25 -18 48 -30 50 -28 2 2 -11 20 -28 41 -45 51 -123 67
-231 46z"/>
    <path d="M5315 3300 c-4 -6 13 -10 42 -11 69 0 114 -19 140 -58 27 -40 29 -37
8 12 -21 52 -49 67 -122 67 -34 0 -65 -4 -68 -10z"/>
    <path d="M7522 3288 c-7 -7 -12 -18 -12 -26 0 -7 -4 -11 -9 -8 -5 3 -12 -1
-15 -10 -3 -8 -2 -12 4 -9 13 8 13 -5 0 -25 -9 -13 -10 -13 -10 0 0 13 -2 13
-9 1 -5 -8 -7 -21 -3 -29 3 -10 1 -13 -6 -8 -8 5 -10 2 -6 -8 3 -9 2 -16 -3
-16 -12 0 -65 -99 -59 -109 3 -4 -4 -17 -14 -29 -11 -12 -20 -29 -20 -39 0
-22 -14 -45 -26 -44 -5 1 -9 -5 -9 -11 0 -7 -5 -16 -12 -20 -6 -5 -9 -17 -6
-28 4 -14 1 -20 -8 -18 -8 2 -14 -7 -14 -26 -1 -15 -8 -34 -18 -40 -15 -12
-34 -49 -35 -70 0 -5 -5 -12 -10 -15 -14 -9 -65 -94 -51 -85 9 5 10 2 6 -10
-4 -10 -7 -21 -7 -24 0 -4 -5 0 -11 8 -8 12 -9 10 -4 -9 5 -17 4 -22 -5 -16
-8 5 -11 4 -6 -3 3 -6 1 -22 -6 -37 -8 -19 -14 -22 -21 -13 -6 9 -7 8 -4 -4 3
-9 -1 -22 -9 -29 -8 -6 -13 -19 -12 -28 2 -9 -3 -15 -10 -13 -10 2 -11 -4 -7
-19 5 -14 4 -19 -4 -15 -7 5 -9 1 -5 -9 4 -10 2 -15 -7 -13 -9 2 -13 -4 -11
-16 2 -12 -1 -16 -9 -10 -8 4 -10 3 -5 -4 8 -13 -20 -73 -40 -85 -8 -4 -14
-13 -14 -18 0 -6 -9 -23 -20 -39 -11 -15 -17 -30 -13 -33 3 -4 0 -14 -8 -23
-8 -9 -14 -22 -14 -28 -2 -22 -17 -46 -26 -40 -5 3 -10 0 -10 -5 -1 -6 -2 -17
-3 -23 -1 -7 -7 -12 -14 -11 -6 2 -9 -3 -6 -10 2 -7 -4 -22 -16 -32 -11 -10
-20 -14 -20 -9 0 5 -5 2 -10 -6 -14 -21 -1 45 17 90 24 59 27 148 8 220 -9 36
-21 72 -27 80 -7 12 -8 10 -3 -5 24 -72 11 -254 -22 -319 -26 -51 -115 -145
-163 -173 -168 -100 -299 -124 -778 -143 -287 -12 -434 -28 -455 -49 -9 -9 -3
-11 28 -6 22 3 144 10 270 15 449 20 591 29 665 45 141 29 228 65 320 131 27
20 53 33 58 30 5 -3 7 6 4 19 -4 26 -1 28 51 40 16 3 46 22 67 43 41 39 134
198 124 213 -3 5 -1 9 5 9 6 0 51 82 102 183 50 100 115 227 144 282 29 55
108 209 176 343 l123 242 35 0 c40 0 35 11 -7 16 -16 2 -34 -2 -40 -8z"/>
    <path d="M11343 3220 c0 -25 2 -35 4 -22 2 12 2 32 0 45 -2 12 -4 2 -4 -23z"/>
    <path d="M7611 3236 c-2 -16 42 -151 45 -141 2 6 -7 42 -21 80 -13 39 -24 66
-24 61z"/>
    <path d="M3196 3179 c-4 -28 -5 -53 -3 -56 3 -2 8 19 12 47 4 28 5 53 2 56 -2
3 -7 -19 -11 -47z"/>
    <path d="M8116 3201 c8 -7 96 -18 324 -37 41 -3 84 -11 95 -16 19 -9 19 -8 2
5 -18 15 -65 23 -197 32 -41 3 -99 10 -129 15 -69 12 -108 13 -95 1z"/>
    <path d="M5524 3035 c4 -82 9 -206 11 -275 3 -73 9 -126 15 -128 7 -3 8 24 5
80 -3 45 -10 168 -15 272 -5 104 -12 192 -16 195 -3 3 -3 -61 0 -144z"/>
    <path d="M9935 3171 c-3 -7 -15 -9 -26 -6 -11 4 -19 2 -19 -5 0 -6 -6 -8 -12
-4 -9 5 -10 4 -3 -4 7 -8 33 -7 95 4 125 23 243 11 405 -41 17 -6 18 -5 3 4
-54 35 -145 54 -280 56 -96 1 -138 -1 -138 -9 0 -6 -4 -5 -9 3 -6 9 -10 10
-16 2z"/>
    <path d="M10591 3156 c-7 -8 -14 -21 -15 -29 -2 -18 -36 -52 -36 -37 0 7 -5 8
-16 2 -9 -5 -31 -6 -48 -1 -75 19 -82 19 -48 4 18 -9 53 -18 76 -21 36 -5 47
-3 65 15 12 12 19 26 16 31 -4 6 -2 10 3 10 10 0 25 30 19 37 -2 2 -10 -3 -16
-11z"/>
    <path d="M6700 3060 c0 -95 -3 -111 -29 -167 -36 -75 -111 -139 -216 -182 -54
-23 -71 -35 -73 -52 -3 -18 -1 -21 10 -12 7 6 32 16 55 22 53 15 183 101 215
143 56 73 63 97 63 208 0 65 -5 113 -12 125 -10 17 -12 2 -13 -85z"/>
    <path d="M11332 3130 c0 -19 2 -27 5 -17 2 9 2 25 0 35 -3 9 -5 1 -5 -18z"/>
    <path d="M6295 3128 c12 -61 18 -251 7 -244 -6 4 -8 -1 -5 -13 3 -10 -3 -32
-14 -47 -10 -16 -12 -25 -5 -21 6 5 12 4 12 -2 0 -6 -6 -11 -14 -11 -15 0 -30
-27 -27 -47 1 -6 -9 -19 -21 -27 -12 -9 -17 -16 -11 -16 23 0 73 72 89 127 13
44 15 82 11 168 -3 60 -10 121 -16 135 l-11 25 5 -27z"/>
    <path d="M9774 3118 c-12 -10 -27 -18 -32 -18 -16 0 -63 -27 -63 -36 1 -5 -6
-9 -13 -9 -17 0 -31 -13 -31 -27 0 -6 -6 -13 -14 -16 -9 -3 -11 0 -6 8 5 9 4
11 -4 6 -6 -4 -9 -11 -6 -16 3 -5 -7 -16 -23 -24 -28 -14 -66 -60 -67 -81 -1
-5 -7 -9 -14 -7 -7 1 -10 -2 -7 -7 4 -5 0 -16 -8 -24 -23 -23 -66 -104 -59
-111 4 -3 1 -6 -5 -6 -7 0 -11 -3 -10 -7 0 -5 -2 -17 -6 -28 -35 -92 -46 -168
-44 -294 l1 -106 7 135 c10 190 56 323 155 445 25 31 43 61 39 67 -4 6 -3 8 4
5 5 -4 30 9 54 29 60 51 112 83 188 116 63 27 64 28 26 25 -22 -1 -50 -10 -62
-19z"/>
    <path d="M9080 3110 c-17 -5 -19 -8 -8 -9 32 -2 343 -31 383 -36 l40 -5 -35
14 c-20 7 -75 14 -124 15 -49 1 -93 4 -97 7 -4 2 -25 6 -46 8 -21 2 -49 6 -63
9 -14 3 -36 2 -50 -3z"/>
    <path d="M9993 3096 c-174 -43 -264 -232 -267 -566 -1 -74 4 -164 11 -200 l12
-65 -5 85 c-7 118 12 340 36 429 40 143 102 235 193 283 36 20 57 23 152 23
98 0 116 -3 163 -26 28 -14 52 -23 52 -18 0 13 -83 48 -139 59 -69 13 -143 11
-208 -4z"/>
    <path d="M10660 3073 c-1 -16 -1 -91 0 -169 1 -135 -9 -194 -32 -194 -5 0 -7
-4 -4 -9 4 -5 0 -11 -6 -14 -9 -3 -7 -7 5 -12 45 -19 47 -8 47 215 0 115 -2
210 -5 210 -3 0 -5 -12 -5 -27z"/>
    <path d="M11322 3065 c0 -16 2 -22 5 -12 2 9 2 23 0 30 -3 6 -5 -1 -5 -18z"/>
    <path d="M7661 3075 c-1 -6 12 -49 28 -95 16 -47 30 -80 30 -75 1 6 -12 49
-28 95 -16 47 -30 80 -30 75z"/>
    <path d="M2678 3025 c-3 -3 -40 -8 -82 -11 -43 -3 -88 -10 -99 -15 -19 -8 -17
-8 8 -4 17 2 81 7 143 11 61 4 112 10 112 15 0 10 -73 13 -82 4z"/>
    <path d="M9406 3011 c-55 -8 -83 -34 -90 -84 -2 -18 -12 -120 -21 -227 -21
-248 -39 -437 -59 -620 -8 -80 -20 -197 -26 -260 -10 -98 -16 -119 -36 -143
-15 -17 -29 -25 -37 -21 -8 5 -8 2 2 -9 7 -9 26 -17 42 -17 24 0 29 5 33 33 8
48 24 206 36 342 6 66 15 161 20 210 5 50 17 164 25 255 34 351 46 452 57 474
13 29 47 46 110 53 26 3 48 10 48 14 0 10 -31 10 -104 0z"/>
    <path d="M3169 2982 c-3 -20 -2 -29 4 -23 5 5 7 19 5 32 -3 20 -5 19 -9 -9z"/>
    <path d="M11312 2985 c0 -16 2 -22 5 -12 2 9 2 23 0 30 -3 6 -5 -1 -5 -18z"/>
    <path d="M2269 2995 c-3 -2 -54 -7 -114 -10 -61 -4 -112 -9 -115 -12 -7 -8
253 6 310 17 l45 7 -61 2 c-33 0 -63 -1 -65 -4z"/>
    <path d="M1947 2972 c-49 -3 -71 -22 -49 -44 7 -7 10 -4 9 8 -2 16 7 20 63 24
36 3 56 7 45 10 -11 3 -42 4 -68 2z"/>
    <path d="M2734 2970 c-48 -19 -56 -38 -179 -435 -138 -443 -166 -525 -180
-525 -8 0 -15 -4 -15 -10 0 -5 10 -10 23 -10 22 0 28 14 76 168 29 92 70 221
91 287 21 66 61 194 90 285 55 178 68 205 106 222 41 19 31 35 -12 18z"/>
    <path d="M4182 2969 c-9 -4 -32 -5 -51 -4 -24 2 -30 0 -20 -7 10 -6 0 -8 -31
-4 -32 5 -41 3 -30 -4 11 -7 5 -10 -25 -11 -22 -1 -32 -3 -22 -6 9 -2 66 3
125 11 59 9 120 16 136 16 16 0 26 3 23 6 -9 9 -84 11 -105 3z"/>
    <path d="M8242 2955 c0 -16 2 -22 5 -12 2 9 2 23 0 30 -3 6 -5 -1 -5 -18z"/>
    <path d="M1688 2955 c-2 -2 -74 -6 -161 -9 -87 -3 -167 -11 -177 -16 -12 -6
-19 -20 -19 -33 2 -21 2 -21 6 -1 5 24 30 27 293 40 140 7 223 23 118 22 -31
0 -58 -1 -60 -3z"/>
    <path d="M2347 2948 c-21 -6 -45 -21 -54 -34 -14 -23 -14 -28 2 -64 22 -49 28
-47 13 3 -14 45 0 65 53 76 18 3 34 12 37 19 4 14 1 14 -51 0z"/>
    <path d="M2500 2950 c-11 -7 -6 -10 22 -10 20 0 44 -7 52 -16 14 -14 16 -14
16 0 0 29 -59 46 -90 26z"/>
    <path d="M3404 2950 c-22 -5 -58 -16 -80 -25 -46 -19 -164 -96 -164 -108 0 -9
18 1 83 48 81 58 148 78 252 73 104 -5 175 -31 246 -94 41 -35 42 -36 14 -5
-78 86 -232 135 -351 111z"/>
    <path d="M3935 2939 c15 -7 9 -8 -20 -4 -29 4 -36 3 -25 -4 12 -8 7 -11 -20
-12 -69 -2 -75 -4 -78 -24 -2 -15 -1 -17 7 -6 5 8 22 15 38 17 52 5 115 16
130 21 12 5 12 7 1 14 -7 5 -22 8 -33 8 l-20 0 20 -10z"/>
    <path d="M11302 2925 c0 -16 2 -22 5 -12 2 9 2 23 0 30 -3 6 -5 -1 -5 -18z"/>
    <path d="M1763 2904 c-38 -16 -57 -47 -49 -80 9 -35 24 -29 22 9 -1 28 4 34
37 50 20 10 37 23 37 28 0 12 -8 11 -47 -7z"/>
    <path d="M1920 2910 c-11 -7 -8 -10 16 -10 17 0 37 -7 44 -15 7 -9 15 -13 18
-10 9 8 -30 45 -47 45 -9 0 -23 -5 -31 -10z"/>
    <path d="M8233 2885 c0 -22 2 -30 4 -17 2 12 2 30 0 40 -3 9 -5 -1 -4 -23z"/>
    <path d="M4290 2898 c1 -12 9 -76 40 -313 5 -38 11 -83 14 -100 6 -36 34 -250
41 -320 3 -27 8 -66 11 -85 2 -19 7 -48 9 -65 4 -34 24 -90 29 -84 2 2 0 27
-5 54 -5 28 -22 158 -39 290 -58 462 -83 635 -92 635 -4 0 -8 -6 -8 -12z"/>
    <path d="M2581 2852 c-6 -23 -23 -77 -37 -120 -13 -42 -32 -102 -40 -132 -20
-69 -30 -100 -39 -122 -4 -10 -3 -18 2 -18 5 0 15 21 23 48 7 26 35 116 62
201 27 85 47 162 45 170 -2 9 -9 -3 -16 -27z"/>
    <path d="M3152 2870 c0 -14 2 -19 5 -12 2 6 2 18 0 25 -3 6 -5 1 -5 -13z"/>
    <path d="M7721 2884 c-1 -7 6 -27 14 -45 8 -19 14 -27 14 -19 0 18 -27 79 -28
64z"/>
    <path d="M11292 2865 c0 -16 2 -22 5 -12 2 9 2 23 0 30 -3 6 -5 -1 -5 -18z"/>
    <path d="M1362 2872 c-9 -3 -2 -11 17 -23 40 -24 44 -24 29 1 -14 23 -27 29
-46 22z"/>
    <path d="M3820 2840 c0 -5 15 -10 33 -10 18 0 43 -7 55 -16 18 -12 22 -12 22
-2 0 8 -5 19 -12 26 -14 14 -98 16 -98 2z"/>
    <path d="M7378 2836 c-24 -17 -231 -434 -224 -451 9 -25 22 -17 35 23 22 69
206 417 219 415 6 -2 12 1 12 6 0 15 -25 19 -42 7z"/>
    <path d="M11275 2775 c-3 -31 -4 -59 -2 -62 3 -2 9 21 12 52 4 31 5 58 2 61
-2 3 -8 -20 -12 -51z"/>
    <path d="M4726 2785 c-9 -21 -16 -46 -16 -56 0 -10 -9 -45 -20 -76 -24 -71
-31 -113 -20 -113 5 0 11 15 15 33 13 61 58 222 64 229 4 4 22 4 41 -1 19 -5
71 -17 115 -26 44 -9 107 -23 140 -31 191 -44 346 -75 355 -69 5 3 10 2 10 -3
0 -9 100 -35 107 -28 3 2 -5 9 -16 16 -12 6 -21 8 -21 6 0 -3 -12 -1 -27 5
-16 6 -50 12 -77 14 -27 2 -52 8 -55 13 -3 5 -23 9 -45 10 -21 1 -44 6 -50 11
-7 6 -32 13 -55 16 -24 3 -46 7 -50 9 -4 3 -25 7 -47 10 -21 3 -53 9 -71 15
-17 5 -34 7 -37 4 -3 -3 -12 0 -20 6 -8 7 -32 14 -53 15 -21 2 -38 5 -38 6 0
1 -9 3 -20 5 -11 2 -37 7 -57 10 -35 7 -37 6 -52 -30z"/>
    <path d="M8310 2811 c0 -5 -4 -43 -9 -83 -5 -40 -12 -104 -15 -143 -7 -79 -42
-449 -52 -541 -4 -38 -2 -68 4 -80 10 -17 11 -15 12 15 0 19 7 95 15 170 8 75
23 242 35 371 11 129 22 250 25 268 2 17 0 32 -6 32 -5 0 -9 -4 -9 -9z"/>
    <path d="M9223 2775 c0 -22 2 -30 4 -17 2 12 2 30 0 40 -3 9 -5 -1 -4 -23z"/>
    <path d="M3232 2774 c-51 -25 -112 -84 -112 -107 0 -6 14 5 30 25 17 21 59 51
95 69 54 26 73 31 111 26 29 -3 41 -1 33 4 -28 18 -104 9 -157 -17z"/>
    <path d="M3803 2739 c11 -33 22 -58 23 -56 6 6 -26 106 -34 111 -5 3 1 -22 11
-55z"/>
    <path d="M7751 2794 c-1 -7 6 -27 14 -45 8 -19 14 -27 14 -19 0 18 -27 79 -28
64z"/>
    <path d="M8223 2765 c0 -22 2 -30 4 -17 2 12 2 30 0 40 -3 9 -5 -1 -4 -23z"/>
    <path d="M3432 2742 c20 -29 23 -45 21 -115 -1 -99 -88 -698 -106 -735 -8 -19
-27 -32 -61 -43 -49 -15 -64 -32 -65 -74 -1 -17 1 -17 9 -5 5 8 10 25 10 36 0
18 8 23 44 28 44 7 67 24 80 61 4 11 25 141 46 290 72 504 72 510 24 562 l-25
28 23 -33z"/>
    <path d="M2041 2742 c-1 -12 -17 -71 -37 -129 -20 -58 -37 -113 -39 -122 -2
-9 -10 -35 -19 -58 -8 -23 -12 -45 -8 -47 5 -3 18 30 31 72 13 42 38 121 55
174 19 58 29 104 25 115 -7 15 -8 15 -8 -5z"/>
    <path d="M9213 2690 c0 -25 2 -35 4 -22 2 12 2 32 0 45 -2 12 -4 2 -4 -23z"/>
    <path d="M6176 2705 c-12 -13 -63 -24 -128 -28 -9 -1 -14 -5 -11 -10 3 -5 -4
-6 -17 -2 -15 5 -20 3 -16 -3 4 -6 -6 -13 -21 -16 -16 -2 1 -3 37 -1 36 2 79
9 95 16 17 6 38 13 47 14 22 2 31 11 34 30 3 19 -1 19 -20 0z"/>
    <path d="M4865 2698 c-48 -17 -93 -55 -122 -106 -15 -26 -33 -51 -40 -55 -14
-8 -9 -27 7 -27 5 0 27 27 49 59 42 62 85 94 138 106 30 6 189 -8 243 -21 22
-6 23 -5 10 9 -15 16 -169 48 -225 46 -16 0 -43 -5 -60 -11z"/>
    <path d="M7441 2705 c1 -19 18 -51 18 -35 0 8 -4 22 -9 30 -5 8 -9 11 -9 5z"/>
    <path d="M7782 2688 c21 -74 81 -248 85 -244 6 5 -76 256 -84 256 -2 0 -3 -6
-1 -12z"/>
    <path d="M8213 2655 c0 -27 2 -38 4 -22 2 15 2 37 0 50 -2 12 -4 0 -4 -28z"/>
    <path d="M11262 2675 c0 -16 2 -22 5 -12 2 9 2 23 0 30 -3 6 -5 -1 -5 -18z"/>
    <path d="M3962 2640 c0 -14 3 -45 7 -70 6 -34 9 -37 9 -15 1 17 -3 48 -7 70
-6 25 -9 31 -9 15z"/>
    <path d="M5139 2622 c-31 -20 -132 -122 -121 -122 8 0 -55 -59 -66 -61 -4 -1
-13 -15 -19 -31 -7 -16 -17 -27 -22 -24 -5 3 -14 -1 -21 -9 -7 -8 -9 -15 -4
-15 5 -1 -2 -7 -16 -15 -14 -8 -21 -14 -16 -15 5 0 3 -7 -4 -15 -7 -8 -17 -12
-23 -8 -5 3 -7 2 -4 -3 3 -5 -8 -20 -24 -33 -16 -13 -29 -30 -29 -38 0 -8 -4
-12 -8 -9 -5 3 -22 -8 -37 -24 -16 -17 -25 -30 -21 -30 4 0 1 -6 -6 -14 -7 -8
-16 -12 -20 -9 -4 2 -5 -4 -1 -13 4 -11 2 -15 -4 -11 -5 4 -15 -5 -22 -19 -6
-15 -16 -22 -23 -18 -6 4 -9 3 -6 -2 3 -5 -3 -17 -14 -26 -10 -10 -18 -15 -18
-12 0 3 -7 -1 -15 -10 -8 -8 -15 -20 -15 -26 0 -6 -5 -8 -10 -5 -6 3 -13 -2
-17 -12 -4 -10 -12 -22 -19 -28 -24 -19 -54 -84 -43 -91 12 -7 29 13 29 35 0
15 39 60 154 181 40 41 114 120 166 175 52 55 130 138 174 185 44 47 102 109
130 138 54 56 56 62 15 34z m-379 -405 c0 -2 -12 -14 -27 -28 l-28 -24 24 28
c23 25 31 32 31 24z"/>
    <path d="M9203 2605 c0 -22 2 -30 4 -17 2 12 2 30 0 40 -3 9 -5 -1 -4 -23z"/>
    <path d="M2072 2613 c-8 -15 -70 -209 -183 -569 -13 -44 -25 -63 -39 -67 -30
-8 -24 -26 7 -21 15 3 28 6 29 7 3 2 76 237 145 462 66 215 59 198 77 183 13
-11 14 -11 10 2 -7 22 -35 24 -46 3z"/>
    <path d="M5483 2593 c-37 -36 -239 -253 -333 -358 -25 -27 -105 -114 -178
-192 -73 -78 -132 -148 -132 -156 0 -27 13 -25 39 6 23 28 370 407 567 620 39
42 74 86 77 97 7 27 4 26 -40 -17z"/>
    <path d="M6485 2616 c77 -20 174 -68 235 -116 44 -34 49 -37 26 -12 -16 18
-48 44 -70 59 -23 15 -43 30 -46 33 -25 25 -62 37 -145 45 l-50 4 50 -13z"/>
    <path d="M11245 2583 c-3 -27 -8 -59 -11 -73 -4 -22 -3 -22 5 -5 10 23 25 125
18 125 -3 0 -8 -21 -12 -47z"/>
    <path d="M6007 2591 c-34 -4 -62 -12 -68 -21 -5 -8 -7 -37 -4 -65 3 -27 10
-158 16 -290 6 -132 13 -247 15 -255 1 -8 3 -24 3 -36 1 -12 10 -31 21 -44 22
-25 25 -18 11 26 -5 16 -14 151 -21 299 -6 149 -13 289 -16 313 l-6 42 99 0
c126 0 186 -17 248 -72 42 -37 47 -39 40 -18 -11 35 -29 53 -83 83 -43 23
-145 49 -181 46 -9 -1 -42 -5 -74 -8z"/>
    <path d="M8203 2565 c0 -22 2 -30 4 -17 2 12 2 30 0 40 -3 9 -5 -1 -4 -23z"/>
    <path d="M3112 2565 c0 -16 2 -22 5 -12 2 9 2 23 0 30 -3 6 -5 -1 -5 -18z"/>
    <path d="M5550 2525 c0 -16 5 -124 10 -240 17 -358 19 -425 10 -420 -4 3 -11
-2 -14 -11 -3 -8 -2 -12 4 -9 19 11 10 -6 -15 -31 -14 -14 -25 -22 -25 -17 0
4 -5 2 -12 -5 -14 -14 -32 -16 -23 -2 9 15 -28 -1 -42 -18 -7 -9 -22 -13 -38
-10 -20 4 -26 1 -31 -19 -4 -14 -1 -30 5 -36 9 -9 11 -6 9 13 -3 21 2 25 52
35 78 16 115 38 135 82 17 36 18 54 7 303 -7 146 -12 292 -12 325 0 33 -5 67
-10 75 -7 12 -10 8 -10 -15z"/>
    <path d="M9193 2480 c0 -25 2 -35 4 -22 2 12 2 32 0 45 -2 12 -4 2 -4 -23z"/>
    <path d="M3982 2480 c0 -14 2 -19 5 -12 2 6 2 18 0 25 -3 6 -5 1 -5 -13z"/>
    <path d="M8193 2465 c0 -22 2 -30 4 -17 2 12 2 30 0 40 -3 9 -5 -1 -4 -23z"/>
    <path d="M3787 2391 c-4 -35 -5 -66 -3 -68 6 -7 19 103 14 119 -3 7 -8 -16
-11 -51z"/>
    <path d="M3993 2405 c0 -22 2 -30 4 -17 2 12 2 30 0 40 -3 9 -5 -1 -4 -23z"/>
    <path d="M9183 2385 c0 -27 2 -38 4 -22 2 15 2 37 0 50 -2 12 -4 0 -4 -28z"/>
    <path d="M7540 2385 c-1 -11 -2 -23 -2 -26 1 -4 -39 -6 -88 -6 -57 0 -87 4
-83 10 4 6 -2 8 -15 5 -12 -4 -25 -2 -28 3 -5 8 -113 3 -122 -5 -4 -5 80 -14
227 -26 68 -6 126 -8 128 -6 2 2 0 19 -6 37 -6 24 -10 28 -11 14z"/>
    <path d="M7880 2398 c0 -14 42 -140 45 -136 4 4 -33 129 -40 137 -3 2 -5 2 -5
-1z"/>
    <path d="M8183 2340 c0 -25 2 -35 4 -22 2 12 2 32 0 45 -2 12 -4 2 -4 -23z"/>
    <path d="M3082 2345 c0 -16 2 -22 5 -12 2 9 2 23 0 30 -3 6 -5 -1 -5 -18z"/>
    <path d="M11795 2361 c-31 -8 -68 -27 -97 -50 -15 -11 -23 -10 -61 8 -24 11
-51 21 -61 21 -9 0 -48 -31 -85 -69 l-68 -69 -54 15 c-85 23 -223 25 -299 4
-122 -33 -188 -71 -288 -165 -105 -98 -182 -279 -182 -426 0 -114 36 -233 101
-330 39 -60 91 -112 56 -58 -26 41 -20 43 14 3 27 -30 151 -119 168 -120 3 -1
21 -9 39 -18 18 -10 76 -27 130 -38 115 -24 180 -20 292 18 163 56 305 200
359 366 28 82 40 267 17 248 -7 -6 -12 -23 -10 -39 2 -16 1 -19 -3 -7 -3 11
-12 25 -21 31 -8 6 -16 24 -18 40 -2 21 -1 25 6 14 9 -14 11 -13 14 9 0 5 5
13 9 18 5 4 8 3 7 -2 -10 -47 12 -44 27 4 15 46 7 79 -37 156 -27 47 -34 53
-52 46 -32 -12 -42 -48 -18 -61 11 -6 20 -16 20 -22 0 -6 7 -20 17 -30 9 -10
11 -18 6 -18 -6 0 -13 6 -16 14 -3 8 -18 21 -34 28 -15 8 -27 19 -26 25 1 6
-15 13 -36 17 -52 8 -154 85 -191 143 -33 51 -40 103 -15 103 8 0 15 -5 15
-11 0 -31 40 -86 102 -139 38 -33 75 -60 81 -60 7 0 -1 8 -16 19 -15 10 -35
27 -42 38 -13 18 -13 22 0 33 8 7 21 10 29 7 10 -4 13 -1 9 9 -3 7 -9 14 -13
14 -4 0 -8 6 -7 13 1 31 -4 48 -12 43 -5 -4 -8 2 -6 11 2 10 4 22 4 27 1 5 8
3 16 -4 8 -7 15 -9 15 -4 0 5 6 2 13 -6 7 -8 26 -21 42 -28 l30 -13 -25 21
c-14 11 -29 20 -33 20 -5 0 -5 5 -1 12 4 7 3 8 -4 4 -7 -4 -12 -2 -12 5 0 7
-11 26 -24 43 -18 24 -21 36 -15 55 8 21 13 22 47 16 76 -13 127 -8 146 16 12
16 21 18 86 26 37 4 56 0 100 -22 36 -18 50 -22 41 -11 -37 44 -118 71 -176
57z m-685 -225 c0 -8 -14 -17 -31 -21 -112 -25 -246 -138 -304 -258 -100 -206
-62 -430 100 -593 95 -97 211 -145 355 -148 113 -2 123 -21 15 -29 -138 -10
-258 26 -372 114 -221 171 -269 507 -103 735 50 68 61 79 155 142 93 63 185
92 185 58z m247 -23 c-3 -10 -5 -4 -5 12 0 17 2 24 5 18 2 -7 2 -21 0 -30z
m138 -154 c-4 -6 0 -9 11 -7 21 3 27 -24 6 -28 -7 -1 -8 0 -2 3 5 2 10 9 10
14 0 6 -4 7 -10 4 -13 -8 -32 4 -25 16 4 5 8 9 11 9 3 0 2 -5 -1 -11z m235
-160 c0 -11 -4 -18 -10 -14 -5 3 -7 12 -3 20 7 21 13 19 13 -6z"/>
    <path d="M4002 2330 c0 -19 2 -27 5 -17 2 9 2 25 0 35 -3 9 -5 1 -5 -18z"/>
    <path d="M10170 2329 c-14 -4 139 -7 340 -7 222 0 351 3 330 9 -42 10 -634 9
-670 -2z"/>
    <path d="M6405 2287 c10 -61 7 -211 -4 -240 -6 -15 -8 -34 -4 -44 4 -11 3 -14
-5 -9 -8 5 -10 1 -5 -10 5 -13 3 -15 -7 -9 -9 6 -11 4 -6 -4 5 -7 0 -21 -9
-31 -9 -10 -14 -23 -10 -29 3 -7 0 -8 -9 -5 -10 4 -20 -5 -31 -25 -8 -17 -18
-31 -21 -31 -3 0 -2 5 1 10 8 13 3 13 -36 -5 -19 -8 -27 -14 -19 -15 13 0 13
-1 0 -10 -13 -9 -13 -10 0 -10 24 0 95 46 92 59 -1 7 2 10 7 7 13 -8 45 39 67
99 21 59 25 273 5 315 -10 23 -11 22 -6 -13z"/>
    <path d="M7130 2311 c-20 -5 -36 -28 -79 -114 -58 -116 -75 -189 -47 -200 12
-5 16 0 16 22 0 29 13 67 52 151 11 25 27 60 35 79 l14 33 82 -7 c45 -4 146
-12 224 -19 86 -7 147 -17 157 -25 13 -11 16 -11 16 0 -1 36 -17 41 -221 60
-112 10 -208 20 -214 22 -5 2 -21 1 -35 -2z"/>
    <path d="M9173 2285 c0 -22 2 -30 4 -17 2 12 2 30 0 40 -3 9 -5 -1 -4 -23z"/>
    <path d="M3069 2268 c-3 -22 -1 -34 4 -29 5 5 7 21 5 37 -3 27 -4 26 -9 -8z"/>
    <path d="M8173 2255 c0 -22 2 -30 4 -17 2 12 2 30 0 40 -3 9 -5 -1 -4 -23z"/>
    <path d="M10806 2279 c-53 -8 -127 -39 -117 -50 2 -2 -1 -14 -8 -27 -8 -16
-10 -45 -5 -93 4 -38 9 -68 11 -65 2 2 6 33 8 69 6 110 32 140 132 154 24 3
43 10 43 14 0 5 -1 8 -2 8 -2 -1 -29 -5 -62 -10z"/>
    <path d="M3772 2260 c0 -14 2 -19 5 -12 2 6 2 18 0 25 -3 6 -5 1 -5 -13z"/>
    <path d="M4012 2250 c0 -19 2 -27 5 -17 2 9 2 25 0 35 -3 9 -5 1 -5 -18z"/>
    <path d="M11590 2256 c0 -48 120 -149 147 -123 3 3 2 18 -1 32 -6 22 -10 25
-21 15 -31 -26 -93 27 -82 70 3 11 1 20 -3 20 -5 0 -15 3 -24 6 -12 5 -16 0
-16 -20z"/>
    <path d="M12152 2250 c-7 -11 -12 -26 -12 -34 0 -8 -7 -22 -16 -30 -13 -14
-13 -16 -1 -16 9 0 18 13 22 33 4 17 12 38 18 45 5 7 8 14 6 17 -3 2 -10 -5
-17 -15z"/>
    <path d="M7937 2220 c4 -14 7 -33 7 -42 0 -10 4 -14 9 -9 4 4 1 23 -7 42 -10
20 -13 24 -9 9z"/>
    <path d="M12063 2233 c4 -3 -1 -12 -11 -20 -15 -13 -15 -13 6 -3 19 9 23 30 5
30 -4 0 -3 -3 0 -7z"/>
    <path d="M3763 2195 c0 -22 2 -30 4 -17 2 12 2 30 0 40 -3 9 -5 -1 -4 -23z"/>
    <path d="M11704 2208 l-19 -23 23 19 c21 18 27 26 19 26 -2 0 -12 -10 -23 -22z"/>
    <path d="M3062 2200 c0 -14 2 -19 5 -12 2 6 2 18 0 25 -3 6 -5 1 -5 -13z"/>
    <path d="M4022 2180 c-1 -14 3 -43 7 -65 6 -26 9 -31 9 -15 1 14 -3 43 -7 65
-6 26 -9 31 -9 15z"/>
    <path d="M8163 2145 c0 -22 2 -30 4 -17 2 12 2 30 0 40 -3 9 -5 -1 -4 -23z"/>
    <path d="M11930 2173 c0 -5 5 -15 10 -23 8 -12 10 -11 10 8 0 12 -4 22 -10 22
-5 0 -10 -3 -10 -7z"/>
    <path d="M3053 2135 c0 -22 2 -30 4 -17 2 12 2 30 0 40 -3 9 -5 -1 -4 -23z"/>
    <path d="M7961 2144 c-1 -7 6 -27 14 -45 8 -19 14 -27 14 -19 0 18 -27 79 -28
64z"/>
    <path d="M11870 2137 c14 -8 32 -11 40 -8 11 4 8 7 -10 12 -42 12 -56 9 -30
-4z"/>
    <path d="M3752 2120 c0 -14 2 -19 5 -12 2 6 2 18 0 25 -3 6 -5 1 -5 -13z"/>
    <path d="M12113 2108 c4 -23 129 -39 141 -19 7 12 -78 24 -105 16 -15 -5 -19
-4 -15 4 4 6 0 11 -8 11 -9 0 -15 -6 -13 -12z"/>
    <path d="M11805 2081 c-3 -5 0 -13 6 -17 7 -4 9 -3 5 4 -3 5 0 13 6 15 9 4 10
6 1 6 -6 1 -14 -3 -18 -8z"/>
    <path d="M8153 2040 c0 -25 2 -35 4 -22 2 12 2 32 0 45 -2 12 -4 2 -4 -23z"/>
    <path d="M7648 1996 c4 -57 2 -65 -18 -79 -16 -11 -29 -13 -47 -6 -16 6 -22 6
-18 -2 4 -6 -2 -9 -17 -8 -57 5 -68 0 -68 -31 0 -17 6 -32 13 -34 6 -2 89 -10
182 -16 94 -7 194 -16 223 -20 49 -6 53 -5 58 17 5 20 12 23 53 23 79 0 127
41 136 115 4 35 4 37 -4 12 -5 -16 -16 -36 -23 -45 -11 -13 -11 -15 2 -7 8 4
12 4 7 0 -13 -15 -62 -12 -74 4 -11 14 -12 13 -8 -6 3 -19 -3 -24 -38 -34 -23
-6 -50 -18 -59 -26 -15 -13 -35 -15 -125 -8 -118 9 -237 8 -295 -1 -36 -5 -38
-4 -38 20 0 25 2 26 63 26 89 0 107 15 107 88 0 31 -4 63 -8 69 -4 7 -6 -16
-4 -51z"/>
    <path d="M7996 2040 c3 -14 11 -32 16 -40 6 -10 7 -7 2 10 -3 14 -11 32 -16
40 -6 10 -7 7 -2 -10z"/>
    <path d="M11598 2043 c-8 -10 -19 -25 -23 -33 -8 -13 -7 -13 9 -1 16 14 41 51
33 51 -2 0 -11 -8 -19 -17z"/>
    <path d="M3036 2035 c-3 -9 -5 -33 -5 -53 2 -33 2 -32 9 13 8 53 6 66 -4 40z"/>
    <path d="M4042 2020 c0 -19 2 -27 5 -17 2 9 2 25 0 35 -3 9 -5 1 -5 -18z"/>
    <path d="M5318 2009 c-12 -21 -25 -36 -30 -33 -5 3 -7 0 -6 -8 2 -7 -2 -12 -9
-11 -7 2 -10 -3 -7 -11 3 -9 -1 -13 -13 -13 -9 1 -18 -5 -18 -13 -1 -8 -6 -14
-13 -12 -7 1 -12 -5 -12 -13 0 -13 -6 -17 -26 -14 -4 0 -10 -5 -14 -12 -9 -13
-197 -18 -216 -6 -6 3 -19 4 -30 2 -10 -2 -23 -4 -29 -5 -28 -6 81 -19 158
-19 121 -1 182 32 253 135 32 46 42 54 61 49 13 -3 23 -1 23 4 0 5 -11 11 -25
13 -21 4 -29 -1 -47 -33z"/>
    <path d="M11764 2018 l-19 -23 23 19 c21 18 27 26 19 26 -2 0 -12 -10 -23 -22z"/>
    <path d="M3733 1985 c0 -22 2 -30 4 -17 2 12 2 30 0 40 -3 9 -5 -1 -4 -23z"/>
    <path d="M5372 1982 c-9 -9 -35 -68 -56 -130 -43 -126 -37 -122 -141 -98 -33
8 -114 24 -180 35 -66 12 -130 26 -143 31 -12 5 -86 24 -164 41 -122 26 -145
29 -167 18 l-26 -13 30 -3 c34 -4 101 -18 488 -104 153 -33 280 -59 282 -57 5
5 101 298 98 298 -2 0 -11 -8 -21 -18z"/>
    <path d="M4049 1925 c-3 -33 -9 -73 -13 -90 -7 -30 -7 -30 9 -8 12 17 15 41
13 90 l-3 68 -6 -60z"/>
    <path d="M7025 1970 c11 -17 58 -37 105 -44 41 -6 43 -6 25 8 -12 9 -30 12
-44 9 -18 -4 -22 -3 -16 7 6 10 4 12 -7 7 -9 -3 -27 1 -42 8 -15 8 -24 10 -21
5z"/>
    <path d="M8020 1975 c0 -5 5 -17 10 -25 5 -8 10 -10 10 -5 0 6 -5 17 -10 25
-5 8 -10 11 -10 5z"/>
    <path d="M11939 1957 c-9 -12 -24 -35 -34 -52 -15 -24 -11 -23 18 10 20 22 37
46 37 53 0 16 -2 15 -21 -11z"/>
    <path d="M7622 1934 c-7 -8 -8 -14 -3 -14 10 0 25 19 20 25 -2 1 -10 -3 -17
-11z"/>
    <path d="M3041 1927 c-2 -21 22 -47 64 -70 25 -14 45 -22 45 -18 0 4 -20 18
-44 30 -24 13 -49 33 -54 45 -6 11 -11 17 -11 13z"/>
    <path d="M6811 1919 c-24 -5 -45 -10 -48 -12 -4 -4 164 -22 320 -33 73 -6 87
-4 87 8 0 11 -8 13 -30 10 -17 -2 -57 2 -88 11 -73 19 -184 27 -241 16z"/>
    <path d="M10345 1878 c-4 -18 -8 -37 -9 -42 -1 -5 -9 -10 -20 -12 -10 -1 -24
-8 -30 -15 -8 -9 -8 -10 3 -4 9 5 12 4 7 -3 -4 -7 -16 -12 -27 -12 -10 0 -19
-4 -19 -9 0 -6 -46 -9 -109 -7 -95 2 -116 6 -162 29 -29 14 -55 24 -57 23 -2
-2 21 -16 50 -30 123 -60 301 -55 360 11 9 10 20 38 24 61 8 49 0 56 -11 10z"/>
    <path d="M9580 1875 c13 -14 26 -25 28 -25 3 0 -5 11 -18 25 -13 14 -26 25
-28 25 -3 0 5 -11 18 -25z"/>
    <path d="M12280 1872 c0 -15 28 -23 36 -9 4 7 4 9 -1 5 -4 -4 -14 -3 -22 3 -8
7 -13 8 -13 1z"/>
    <path d="M2620 1855 c41 -7 163 -25 270 -40 107 -15 205 -29 218 -31 13 -3 22
1 22 8 0 9 -20 14 -63 15 -34 1 -109 9 -167 18 -220 34 -296 44 -325 44 -16
-1 4 -7 45 -14z"/>
    <path d="M6029 1837 c7 -9 29 -21 49 -27 38 -10 145 -3 137 10 -5 8 -28 7 -68
-4 -17 -5 -32 -4 -41 3 -8 7 -25 13 -38 15 -13 1 -30 6 -38 11 -13 8 -13 6 -1
-8z"/>
    <path d="M3731 1829 c-1 -19 32 -51 77 -73 48 -24 39 -12 -14 19 -25 15 -49
36 -54 48 -6 15 -9 17 -9 6z"/>
    <path d="M8315 1830 c3 -4 14 -10 25 -13 11 -3 18 -2 15 3 -3 4 -14 10 -25 13
-11 3 -18 2 -15 -3z"/>
    <path d="M3990 1813 c-28 -10 -50 -36 -49 -57 1 -19 2 -18 8 3 3 13 15 25 25
27 29 4 46 13 46 24 0 11 -7 12 -30 3z"/>
    <path d="M9660 1815 c0 -2 29 -20 65 -40 137 -77 313 -106 517 -86 115 11 236
35 301 60 18 7 27 18 27 32 0 16 -4 19 -17 14 -10 -4 -34 -11 -53 -17 -19 -5
-78 -24 -130 -41 -87 -29 -106 -32 -220 -32 -129 0 -172 8 -347 62 -46 14 -83
30 -83 36 0 6 -3 8 -6 4 -3 -3 -17 -2 -30 3 -13 5 -24 8 -24 5z"/>
    <path d="M4375 1798 c-224 -29 -337 -48 -370 -62 -21 -9 -36 -19 -33 -22 5 -4
240 23 478 57 106 15 120 18 120 29 0 12 -98 11 -195 -2z"/>
    <path d="M8060 1791 l-45 -6 50 -7 c28 -4 104 -12 170 -18 66 -6 135 -13 153
-16 19 -3 32 -1 32 6 0 5 -10 10 -22 10 -13 0 -59 9 -103 20 -79 20 -148 23
-235 11z"/>
    <path d="M3290 1760 c77 -14 453 -67 505 -72 23 -2 31 2 33 17 4 17 2 18 -12
6 -17 -14 -29 -13 -340 34 -93 14 -183 24 -200 24 -25 -1 -23 -3 14 -9z"/>
    <path d="M11737 1716 c-3 -8 -2 -18 3 -21 13 -8 24 15 12 27 -6 6 -11 4 -15
-6z"/>
    <path d="M11834 1506 c-3 -8 -4 -23 -2 -33 3 -11 6 -6 9 15 6 34 2 42 -7 18z"/>
    <path d="M11815 1428 c-4 -13 -6 -27 -6 -32 1 -5 -6 -17 -16 -28 -13 -15 -14
-19 -3 -16 8 2 23 23 32 48 21 53 20 50 9 50 -5 0 -12 -10 -16 -22z"/>
    <path d="M11735 1267 c-10 -8 -14 -17 -9 -20 6 -3 15 3 22 14 14 23 12 24 -13
6z"/>
    <path d="M11712 1229 c2 -7 -2 -13 -9 -14 -18 0 -33 -19 -25 -31 4 -7 15 -1
30 17 14 17 18 30 12 34 -6 4 -9 1 -8 -6z"/>
    <path d="M11626 1154 c-18 -16 -25 -29 -19 -35 6 -6 16 -2 28 11 10 11 14 20
10 20 -5 0 0 7 11 15 10 8 15 14 9 14 -5 0 -23 -11 -39 -25z"/>
    <path d="M11585 1110 c6 -10 4 -12 -7 -8 -9 4 -27 -5 -44 -20 -16 -15 -36 -27
-45 -27 -10 0 -21 -4 -26 -9 -5 -5 -3 -6 5 -2 7 4 12 2 12 -6 0 -9 3 -9 10 2
5 8 10 11 10 6 0 -5 6 -3 13 3 8 6 17 9 20 6 4 -3 5 -2 3 1 -8 10 26 42 39 37
17 -6 29 14 14 23 -8 5 -9 3 -4 -6z"/>
    <path d="M10879 1091 c13 -12 28 -21 34 -21 12 0 11 0 -28 24 l-30 17 24 -20z"/>
    <path d="M10960 1045 c0 -4 60 -35 69 -35 8 0 -32 26 -51 33 -10 4 -18 5 -18
2z"/>
    <path d="M11394 1016 c-3 -9 -13 -12 -22 -9 -14 5 -15 3 -5 -7 10 -11 18 -11
43 0 23 9 28 15 18 21 -19 12 -28 11 -34 -5z"/>
    <path d="M11054 1005 c11 -8 22 -12 25 -9 6 6 -19 24 -34 24 -5 -1 -1 -7 9
-15z"/>
    <path d="M11100 1000 c-8 -5 -10 -10 -5 -10 6 0 17 5 25 10 8 5 11 10 5 10 -5
0 -17 -5 -25 -10z"/>
    <path d="M11285 990 c-30 -8 -30 -8 8 -9 23 -1 36 3 32 9 -3 6 -7 9 -8 9 -1
-1 -15 -5 -32 -9z"/>
    <path d="M11220 980 c19 -13 30 -13 30 0 0 6 -10 10 -22 10 -19 0 -20 -2 -8
-10z"/>
  </g>
  
  <!-- Green fills - lime green matching original -->
  <g transform="translate(0,460) scale(0.1,-0.1)" fill="#6DC520" stroke="none">
    <path d="M11745 4561 c-75 -22 -134 -52 -180 -92 -41 -36 -125 -159 -125 -183
0 -10 -12 -43 -26 -74 -38 -82 -44 -169 -53 -707 -5 -291 -12 -490 -19 -505
-5 -14 -15 -63 -22 -110 -6 -47 -18 -123 -26 -170 -8 -47 -14 -97 -14 -113 0
-15 -9 -52 -19 -83 -24 -67 -19 -88 18 -79 46 12 75 29 88 55 23 47 73 160 73
166 0 3 7 22 16 42 9 21 25 55 34 77 10 22 34 74 53 115 19 41 38 86 42 100 4
14 13 32 20 40 6 8 20 33 31 55 23 48 84 152 124 215 16 25 35 56 40 70 6 14
18 32 26 41 13 14 31 45 83 140 11 19 27 41 35 48 9 8 16 18 16 24 0 5 17 35
37 66 63 94 167 312 188 391 22 87 25 202 6 275 -10 38 -26 62 -68 102 -68 67
-114 90 -200 103 -87 12 -105 11 -178 -9z"/>
    <path d="M2780 3533 c0 -15 15 -30 37 -37 28 -9 63 -81 63 -132 0 -35 -11
-113 -25 -184 -3 -14 -10 -63 -15 -110 -6 -47 -13 -96 -15 -110 -2 -14 -9 -63
-15 -110 -6 -47 -24 -175 -40 -285 -16 -110 -36 -254 -45 -320 -35 -275 -52
-316 -134 -329 -88 -14 -36 -38 129 -60 168 -23 269 -37 322 -46 58 -9 91 7
69 34 -7 8 -21 18 -31 21 -11 3 -28 20 -38 38 -17 28 -18 42 -11 117 4 47 13
112 18 145 6 33 18 113 26 178 31 253 53 358 77 381 34 32 119 74 165 82 78
12 147 -49 160 -141 5 -41 -24 -302 -52 -460 -8 -44 -19 -123 -25 -175 -6 -52
-18 -117 -27 -143 -14 -44 -20 -50 -69 -72 -30 -13 -54 -28 -54 -33 0 -5 17
-10 38 -11 54 -2 167 -16 327 -41 77 -11 151 -19 165 -18 37 4 38 36 1 49 -45
16 -75 83 -66 152 17 137 48 354 65 462 43 269 40 354 -18 429 -57 75 -124
106 -243 113 -114 7 -160 -6 -269 -73 -40 -25 -80 -42 -88 -39 -12 4 -13 23
-7 108 3 56 11 116 15 132 7 23 47 288 63 419 2 17 -11 21 -128 37 -71 10
-160 23 -197 29 -79 12 -128 13 -128 3z"/>
    <path d="M4070 3500 c-86 -11 -133 -44 -179 -124 -26 -46 -23 -106 7 -141 22
-25 81 -53 131 -61 56 -9 135 19 165 59 43 57 59 156 33 207 -13 26 -72 71
-91 69 -6 -1 -36 -5 -66 -9z"/>
    <path d="M6141 3347 c70 -19 98 -43 129 -110 37 -85 60 -208 60 -329 0 -121
-13 -169 -57 -213 -31 -31 -124 -75 -158 -75 -8 0 -15 -4 -15 -10 0 -5 9 -10
19 -10 10 0 49 -9 86 -21 123 -38 178 -114 214 -299 52 -269 17 -407 -123
-483 l-51 -28 60 6 c79 8 195 39 255 70 73 37 140 85 140 100 0 7 15 26 34 42
18 15 44 48 57 73 22 40 24 58 24 170 0 104 -3 132 -20 165 -23 46 -65 91
-115 122 -49 30 -167 73 -201 73 -33 0 -95 34 -103 57 -9 22 9 38 69 61 72 28
154 85 192 134 60 75 75 176 47 318 -9 46 -62 110 -110 134 -22 10 -47 22 -56
27 -10 5 -30 9 -46 9 -15 0 -33 5 -38 10 -6 6 -83 12 -175 15 -142 4 -158 3
-118 -8z"/>
    <path d="M5670 3340 c-137 -6 -210 -16 -210 -26 0 -3 12 -15 26 -28 38 -32 52
-112 64 -371 6 -121 22 -415 36 -653 26 -457 26 -450 -19 -499 -11 -13 -18
-26 -14 -29 7 -7 419 12 495 22 23 4 42 10 42 14 0 4 -22 25 -50 46 -34 26
-55 51 -65 79 -10 27 -19 135 -30 335 -8 162 -15 303 -15 313 0 10 12 29 27
43 l28 26 -30 24 -30 24 -12 212 c-22 390 -18 421 46 461 25 16 23 16 -59 15
-47 -1 -150 -4 -230 -8z"/>
    <path d="M7543 3213 c-17 -27 -49 -84 -70 -128 -22 -44 -56 -113 -77 -153 -36
-71 -40 -97 -11 -85 21 7 45 -15 45 -42 0 -21 53 -209 70 -250 5 -11 16 -47
25 -80 9 -33 25 -76 36 -97 24 -48 24 -69 -2 -75 -19 -5 -18 -7 9 -23 22 -14
33 -31 45 -76 8 -33 27 -102 41 -154 14 -52 29 -105 32 -117 4 -14 -1 -28 -16
-43 -12 -12 -20 -23 -18 -25 8 -8 231 -25 255 -19 16 4 39 15 52 26 13 10 32
18 42 18 29 0 31 16 8 77 -30 80 -144 421 -214 638 -32 99 -78 241 -103 315
-25 74 -57 180 -72 234 -14 55 -31 101 -36 103 -6 2 -24 -18 -41 -44z"/>
    <path d="M8110 3153 c0 -7 13 -19 29 -28 30 -15 91 -97 110 -148 11 -27 2
-150 -43 -587 -34 -327 -45 -463 -40 -471 7 -12 -23 -67 -44 -78 -10 -5 -50
-13 -89 -16 -56 -6 -70 -11 -66 -22 3 -8 13 -11 23 -8 41 13 256 7 300 -9 25
-8 61 -17 79 -18 42 -4 53 19 14 28 -42 10 -95 43 -123 77 -40 49 -39 101 4
532 8 77 20 202 27 279 15 163 25 183 70 140 16 -15 29 -32 29 -37 0 -6 11
-25 25 -43 14 -18 25 -36 25 -41 0 -4 18 -30 40 -58 22 -27 40 -55 40 -62 0
-7 6 -16 13 -20 13 -8 74 -95 117 -167 24 -40 69 -106 195 -291 84 -122 86
-126 121 -181 86 -133 161 -235 178 -240 30 -10 43 17 50 104 11 142 27 286
41 382 8 52 19 147 25 210 6 63 15 162 21 220 5 58 14 155 19 217 5 61 12 123
16 138 8 32 45 52 112 61 29 3 57 13 63 20 13 16 27 15 -141 18 -69 2 -153 9
-187 16 -50 11 -64 11 -77 1 -24 -20 -10 -31 38 -31 47 0 85 -30 105 -83 15
-40 14 -178 -4 -342 -8 -77 -18 -195 -22 -263 -3 -72 -11 -129 -19 -140 -11
-15 -14 -15 -33 8 -11 14 -20 30 -21 36 0 5 -8 19 -18 30 -9 10 -26 32 -36 49
-11 16 -23 34 -27 40 -7 8 -230 340 -289 429 -8 13 -24 36 -34 52 -11 16 -44
67 -75 114 -107 166 -133 188 -177 156 -16 -12 -21 -12 -34 -1 -9 8 -52 15
-110 19 -52 3 -123 9 -157 13 -49 7 -63 6 -63 -4z"/>
    <path d="M10020 3139 c-188 -57 -308 -117 -389 -193 -49 -46 -151 -178 -167
-216 -6 -14 -23 -50 -37 -80 -36 -76 -49 -166 -44 -295 6 -144 15 -184 66
-280 86 -164 207 -255 431 -324 122 -37 224 -55 280 -48 92 10 186 30 205 43
11 8 28 14 39 14 10 0 54 12 98 26 58 20 83 34 99 56 31 43 61 170 63 268 1
52 7 97 16 115 15 30 33 37 143 60 15 3 27 10 27 16 0 13 -99 7 -180 -11 -72
-15 -324 -10 -342 8 -15 15 -154 17 -163 1 -11 -16 3 -23 42 -21 56 4 132 -25
144 -56 5 -14 13 -109 18 -211 9 -229 8 -233 -91 -266 -37 -12 -69 -20 -72
-18 -3 3 -42 9 -86 14 -49 5 -100 17 -128 30 -44 22 -135 108 -159 152 -62
115 -98 250 -114 429 -12 135 -1 380 20 428 5 14 17 50 25 81 16 58 69 144
114 186 39 36 141 63 236 62 194 -1 332 -99 441 -311 22 -43 46 -78 53 -78 24
0 34 53 28 145 -5 81 0 145 20 243 10 51 -21 41 -50 -17 -37 -72 -60 -77 -154
-31 -34 17 -69 30 -76 30 -8 0 -16 3 -18 8 -14 33 -264 63 -338 41z"/>
    <path d="M2585 2970 c-3 -5 -3 -15 0 -20 4 -6 11 -40 16 -76 7 -52 6 -71 -6
-95 -9 -16 -21 -55 -26 -86 -6 -32 -19 -74 -30 -95 -11 -21 -22 -58 -26 -83
-3 -25 -11 -53 -18 -62 -13 -17 -14 -17 -33 0 -11 10 -26 33 -32 50 -7 18 -16
41 -20 52 -5 11 -19 45 -30 75 -23 58 -34 85 -70 162 -31 68 -36 111 -15 132
10 9 15 20 12 23 -8 7 -315 -12 -323 -20 -3 -3 3 -18 13 -33 9 -15 30 -64 44
-108 25 -74 26 -83 13 -119 -8 -22 -14 -49 -14 -61 0 -21 -25 -101 -38 -120
-4 -6 -14 -36 -23 -66 -9 -33 -21 -55 -30 -55 -8 0 -30 32 -49 71 -19 39 -40
77 -46 85 -6 8 -15 25 -19 39 -4 13 -34 78 -66 144 -33 67 -59 127 -59 134 0
7 7 26 15 42 l16 30 -63 -1 c-90 0 -267 -14 -274 -21 -5 -6 30 -83 151 -333
29 -60 74 -155 100 -210 26 -55 51 -101 56 -103 5 -2 9 -10 9 -17 0 -7 25 -66
55 -130 41 -88 59 -116 71 -113 9 2 20 10 25 18 10 19 107 332 144 460 34 121
55 165 79 165 13 0 23 -14 36 -55 16 -53 49 -135 92 -230 12 -25 24 -56 29
-70 11 -36 72 -179 93 -218 10 -20 23 -32 33 -30 14 3 53 111 124 348 12 41
33 109 47 150 25 78 31 99 56 190 35 126 75 224 103 246 l28 23 -72 1 c-39 0
-75 -4 -78 -10z"/>
    <path d="M4230 2921 c-14 -4 -95 -16 -180 -26 -166 -19 -203 -29 -158 -40 33
-8 68 -74 68 -126 0 -19 4 -50 10 -69 9 -32 28 -179 50 -373 5 -44 11 -91 15
-105 5 -27 33 -230 42 -308 3 -27 -1 -53 -12 -74 -9 -17 -14 -34 -11 -38 4 -3
75 4 159 16 83 12 181 24 217 28 36 3 71 7 78 9 7 3 -10 27 -42 60 -61 62 -59
55 -86 265 -41 313 -59 456 -64 500 -3 25 -12 91 -20 147 -8 56 -12 111 -9
122 6 23 -10 26 -57 12z"/>
    <path d="M3815 2870 c-3 -5 1 -10 9 -10 9 0 16 5 16 10 0 6 -4 10 -9 10 -6 0
-13 -4 -16 -10z"/>
    <path d="M7302 2756 c-24 -48 -41 -90 -38 -93 2 -3 13 10 23 30 10 19 28 53
41 76 13 24 22 50 20 59 -2 8 -23 -24 -46 -72z"/>
    <path d="M4779 2763 c-17 -4 -59 -111 -59 -151 0 -30 18 -28 32 3 14 32 90 83
135 91 43 8 227 -12 251 -27 23 -14 41 -59 33 -81 -6 -17 -45 -61 -180 -203
-42 -44 -139 -147 -216 -229 -77 -82 -167 -177 -200 -211 l-60 -61 75 -12 c93
-15 226 -45 263 -60 16 -7 51 -12 79 -12 27 0 64 -6 81 -14 52 -22 240 -55
258 -46 13 7 59 134 59 163 0 17 -23 4 -67 -38 -33 -32 -64 -50 -102 -61 -53
-16 -63 -16 -211 3 -48 6 -110 46 -110 71 0 8 19 36 43 61 23 25 87 95 142
155 55 60 112 121 126 135 75 76 334 365 337 376 2 8 -13 14 -45 18 -26 3 -66
11 -88 16 -154 39 -473 107 -525 113 -19 2 -42 3 -51 1z"/>
    <path d="M7216 2588 c-9 -17 -14 -33 -12 -35 8 -8 36 29 36 48 0 27 -6 24 -24
-13z"/>
    <path d="M7115 2385 c-38 -74 -65 -139 -60 -143 4 -4 10 -1 12 6 3 7 15 25 28
40 18 20 32 26 65 27 46 0 65 19 31 30 -12 3 -26 15 -31 26 -11 20 -3 89 10
89 9 0 23 50 17 56 -2 3 -35 -56 -72 -131z"/>
    <path d="M7284 2311 c4 -6 24 -11 45 -11 21 0 62 -4 91 -10 28 -5 64 -7 79 -3
23 7 20 8 -24 15 -115 16 -198 20 -191 9z"/>
    <path d="M11566 2291 c-4 -5 -3 -16 0 -25 6 -15 8 -15 20 1 7 10 14 21 14 26
0 10 -28 9 -34 -2z"/>
    <path d="M6983 2127 c-22 -45 -47 -89 -55 -97 -8 -9 -20 -25 -26 -37 -12 -22
-64 -53 -90 -53 -9 0 -12 -3 -9 -6 4 -4 46 -8 94 -9 48 -2 108 -8 133 -14 57
-13 120 -14 120 -1 0 6 -16 10 -36 10 -26 0 -47 10 -79 35 -24 20 -46 43 -49
51 -8 20 13 100 36 142 10 18 18 39 18 47 0 34 -20 10 -57 -68z"/>
    <path d="M11747 2193 c-4 -3 -7 -19 -7 -34 0 -20 -7 -30 -23 -36 -13 -4 -50
-37 -81 -73 -54 -60 -56 -65 -37 -73 34 -16 65 1 96 50 16 27 33 56 37 65 4
10 19 20 33 24 29 7 30 14 10 54 -17 32 -18 33 -28 23z"/>
    <path d="M11406 2118 c10 -32 76 -117 92 -118 19 0 14 18 -8 32 -11 7 -20 18
-20 25 0 7 -5 13 -10 13 -6 0 -18 16 -27 35 -19 39 -38 48 -27 13z"/>
    <path d="M11015 2120 c-8 -13 15 -13 35 0 12 8 11 10 -7 10 -12 0 -25 -4 -28
-10z"/>
    <path d="M10905 2059 c-11 -17 -2 -18 19 -3 17 12 17 14 4 14 -9 0 -20 -5 -23
-11z"/>
    <path d="M10841 2003 c-5 -10 -26 -34 -46 -53 -19 -19 -52 -69 -73 -110 -35
-72 -37 -80 -40 -194 -4 -127 7 -183 53 -276 32 -63 118 -150 200 -202 78 -50
106 -58 215 -63 l75 -4 -65 13 c-122 23 -153 38 -261 120 -64 49 -97 92 -136
176 -38 82 -46 123 -45 231 1 97 4 113 36 188 19 45 50 101 69 124 43 54 51
67 38 67 -6 0 -15 -8 -20 -17z"/>
    <path d="M11540 1972 c0 -9 22 -20 73 -36 10 -3 17 0 17 8 0 8 -12 16 -27 18
-16 3 -36 9 -45 13 -10 4 -18 3 -18 -3z"/>
    <path d="M3970 1740 c0 -5 7 -7 15 -4 8 4 15 8 15 10 0 2 -7 4 -15 4 -8 0 -15
-4 -15 -10z"/>
    <path d="M6238 1473 c-2 -5 -2 -54 0 -110 4 -102 4 -103 29 -103 19 0 24 4 19
16 -3 9 -6 58 -6 110 0 86 -2 94 -19 94 -11 0 -21 -3 -23 -7z"/>
    <path d="M6695 1370 c0 -107 1 -110 23 -110 21 0 22 3 22 98 0 63 -4 102 -12
110 -27 27 -33 11 -33 -98z"/>
    <path d="M7135 1470 c-7 -12 5 -48 51 -147 16 -36 28 -51 38 -47 20 8 25 48 8
70 -16 21 -55 104 -56 119 -1 14 -33 18 -41 5z"/>
    <path d="M7597 1473 c-4 -3 -7 -48 -7 -99 0 -71 4 -96 16 -108 8 -9 20 -14 25
-11 5 4 9 55 9 116 0 99 -2 109 -18 109 -10 0 -22 -3 -25 -7z"/>
    <path d="M8029 1473 c-3 -19 3 -209 7 -215 2 -3 13 -4 24 -1 19 5 20 12 18
112 -3 101 -4 106 -25 109 -13 2 -24 0 -24 -5z"/>
    <path d="M8945 1467 c-3 -7 -4 -56 -3 -108 3 -92 4 -94 28 -97 l25 -3 -1 108
c-1 103 -2 108 -22 111 -12 2 -24 -3 -27 -11z"/>
    <path d="M9057 1473 c-11 -10 -8 -103 3 -103 14 0 50 38 50 53 0 15 -28 57
-39 57 -4 0 -11 -3 -14 -7z"/>
    <path d="M9367 1474 c-4 -4 -7 -53 -7 -110 0 -85 3 -103 16 -108 9 -4 19 -4
22 -1 3 3 6 54 7 113 0 89 -3 107 -15 110 -9 1 -19 0 -23 -4z"/>
    <path d="M9807 1474 c-4 -4 -7 -54 -7 -111 0 -102 0 -104 22 -101 18 2 24 12
30 45 10 63 -3 167 -22 171 -9 1 -19 0 -23 -4z"/>
    <path d="M6350 1468 c0 -2 7 -25 15 -53 10 -32 13 -65 9 -92 -5 -36 -4 -43 10
-43 10 0 23 15 32 36 21 49 10 108 -23 134 -22 17 -43 26 -43 18z"/>
    <path d="M8605 1461 c-3 -5 -1 -12 5 -16 5 -3 10 -42 10 -86 0 -63 3 -79 15
-79 18 0 45 50 45 85 0 50 -57 124 -75 96z"/>
    <path d="M9916 1461 c-4 -6 -4 -21 -1 -33 4 -16 -1 -33 -14 -50 -12 -14 -21
-32 -21 -40 0 -22 60 -88 80 -88 23 0 37 20 21 29 -6 4 -20 23 -30 42 -18 33
-18 35 3 71 16 29 19 41 10 55 -13 21 -39 29 -48 14z"/>
    <path d="M8474 1442 c-19 -12 -34 -50 -34 -85 0 -33 31 -87 51 -87 5 0 9 41 9
90 0 88 -3 98 -26 82z"/>
    <path d="M10242 1403 c2 -20 13 -33 38 -45 19 -10 47 -31 62 -48 33 -35 34
-36 41 -11 6 23 -21 81 -37 81 -6 0 -28 11 -48 25 -48 32 -60 32 -56 -2z"/>
  </g>

</svg>