<svg xmlns="http://www.w3.org/2000/svg" viewBox="0 0 167 180" width="167" height="180">
  <rect width="167" height="180" fill="white"/>
  <path fill="#1a1a1a" d="M487 1774 c-10 -14 -32 -27 -48 -31 -40 -8 -46 -21 -12 -29 15 -3 36
-8 45 -10 12 -4 23 7 38 35 11 22 20 45 20 51 0 19 -25 10 -43 -16z M896 1656
c-22 -8 -52 -24 -68 -36 l-29 -21 -45 21 c-27 14 -54 20 -68 16 -14 -3 -50
-34 -82 -69 l-57 -63 -86 18 c-152 32 -307 10 -424 -59 -34 -21 -37 -26 -37
-69 0 -45 1 -46 18 -31 10 10 22 17 26 17 4 0 22 11 39 24 31 23 94 46 130 46
28 0 20 -27 -11 -35 -25 -6 -68 -23 -117 -47 -11 -5 -35 -22 -52 -38 l-33 -30
0 -373 0 -373 48 -36 c26 -19 61 -42 77 -51 54 -27 158 -49 233 -49 66 0 102
-11 70 -23 -28 -10 -117 -12 -184 -4 -73 8 -129 29 -201 74 -41 25 -43 25 -43
6 0 -15 16 -29 58 -50 95 -47 167 -64 277 -65 128 -1 212 24 313 93 167 116
249 258 266 466 6 79 -3 107 -29 85 -10 -8 -6 6 12 39 24 48 26 56 15 96 -6
24 -25 65 -42 91 -29 47 -30 49 -11 59 11 5 36 29 56 53 20 23 44 42 52 42 12
0 10 5 -8 21 -21 18 -24 19 -27 4 -2 -9 -17 -29 -33 -44 -16 -16 -29 -33 -29
-40 0 -6 -7 -11 -16 -11 -9 0 -18 -9 -21 -20 -3 -11 -10 -20 -17 -20 -6 0 -22
-12 -35 -25 -27 -29 -36 -30 -83 -11 -89 38 -188 148 -188 209 0 40 24 33 39
-10 8 -23 38 -61 73 -94 l60 -57 44 50 c25 27 41 54 38 60 -4 6 -3 8 4 4 6 -3
14 -1 17 4 4 6 -9 27 -29 46 -90 87 -110 146 -53 152 16 2 40 -4 54 -13 29
-20 58 -15 107 19 56 38 108 41 173 11 65 -29 70 -30 53 -10 -45 54 -127 75
-194 51z M1292 1641 c-8 -5 -13 -11 -13 -15 1 -6 2 -3 -32 -103 -18 -54 -21
-70 -10 -66 14 6 42 63 47 98 2 11 9 33 15 49 14 34 11 49 -7 37z M1233 1607
c-11 -18 -35 -51 -53 -74 -23 -31 -27 -43 -17 -43 9 0 34 32 56 71 43 75 51
101 14 46z M717 1573 c-31 -30 68 -143 126 -143 22 0 23 33 1 55 -13 13 -14
18 -3 33 10 12 7 12 -9 -3 -13 -11 -19 -21 -13 -23 16 -5 14 -22 -3 -22 -26 0
-68 50 -64 75 3 15 0 26 -9 29 -18 7 -18 7 -26 -1z M915 1536 c-40 -17 -19
-27 44 -19 51 6 64 16 35 27 -23 9 -45 7 -79 -8z M1052 1458 c2 -16 -1 -22
-12 -20 -8 2 -31 6 -50 8 l-35 5 42 -22 c35 -19 44 -20 57 -9 18 14 22 60 5
60 -5 0 -9 -10 -7 -22z M1220 1406 c0 -7 10 -16 23 -20 32 -8 192 -7 183 1 -7
7 -149 32 -188 33 -10 0 -18 -6 -18 -14z M1390 1341 c-80 -13 -99 -19 -81 -25
22 -8 121 -2 184 10 15 3 27 12 27 20 0 16 7 16 -130 -5z M985 1290 c-3 -6 5
-10 19 -10 14 0 28 5 31 10 3 6 -5 10 -19 10 -14 0 -28 -4 -31 -10z M1036
1223 l-37 -58 41 45 c34 38 50 70 36 70 -2 0 -20 -26 -40 -57z M1269 1233 c-4
-43 -4 -74 1 -104 4 -21 3 -45 -3 -54 -7 -13 -6 -16 4 -13 10 4 14 23 13 71
-1 43 2 67 10 70 7 3 45 -11 85 -30 97 -46 119 -54 125 -44 3 4 -11 15 -32 24
-20 8 -73 32 -117 51 -89 40 -85 39 -86 29z M1113 1128 c-29 -40 -50 -74 -48
-77 10 -10 65 54 60 68 -3 9 -3 12 1 8 11 -11 54 33 54 55 0 31 -14 20 -67
-54z M1016 1124 l-59 -66 -3 -137 c-3 -148 -9 -172 -73 -298 -62 -121 -180
-224 -326 -284 -75 -31 -88 -33 -200 -33 -139 -1 -189 11 -319 76 -56 28 -40
1 19 -33 61 -35 179 -73 205 -66 11 3 20 1 20 -4 0 -14 123 -10 195 6 88 21
161 54 240 110 89 64 148 134 200 240 54 111 70 188 62 305 l-7 89 55 81 c31
44 54 80 53 80 -2 0 -30 -30 -62 -66z"/><path fill="#2d5a1b" d="M475 1784 c-10 -15 -76 -44 -102 -44 -6 0 -14 12 -16 28 -4 26 -4 26
-6 -4 -1 -25 4 -33 21 -38 13 -3 27 -1 32 4 6 6 17 10 27 10 19 0 69 37 69 51
0 14 -14 11 -25 -7z M1272 1660 c-8 -13 -9 -26 -4 -37 6 -11 11 -12 16 -4 4 6
2 11 -3 11 -6 0 -11 4 -11 10 0 5 6 8 13 6 6 -1 9 -1 5 1 -4 2 -4 11 -1 19 8
20 0 17 -15 -6z M958 1633 c6 -2 18 -2 25 0 6 3 1 5 -13 5 -14 0 -19 -2 -12
-5z M1088 1610 c6 -9 11 -19 9 -21 -2 -2 5 -12 15 -21 29 -29 21 -1 -9 30 -16
15 -22 21 -15 12z M1015 1523 c14 -15 25 -31 25 -35 0 -5 7 -8 15 -8 18 0 20
-40 3 -60 -11 -12 -10 -12 5 -1 27 21 20 54 -21 94 -44 43 -65 50 -27 10z
M824 1518 c-10 -12 -13 -18 -6 -14 6 4 12 2 12 -3 0 -6 4 -11 9 -11 5 0 8 8 7
18 -2 9 2 20 8 24 8 6 8 8 0 8 -6 0 -19 -10 -30 -22z M1126 1521 c-4 -6 -2
-11 4 -11 6 0 9 -4 6 -9 -6 -10 24 -25 32 -16 3 3 0 5 -8 5 -10 0 -10 4 1 17
12 14 12 15 0 9 -8 -5 -16 -4 -21 4 -5 9 -9 9 -14 1z M705 1500 c10 -11 20
-20 23 -20 3 0 -3 9 -13 20 -10 11 -20 20 -23 20 -3 0 3 -9 13 -20z M890 1483
c0 -13 29 -38 35 -31 3 3 -4 13 -15 23 -11 10 -20 13 -20 8z M779 1428 c13
-17 7 -43 -8 -34 -4 3 -8 -2 -8 -10 0 -12 5 -11 21 5 20 21 20 21 1 38 -17 16
-17 16 -6 1z M930 1435 c0 -12 50 -55 64 -55 6 0 6 3 1 8 -6 4 -22 18 -37 31
-16 14 -28 20 -28 16z M1212 1410 c0 -14 2 -19 5 -12 2 6 2 18 0 25 -3 6 -5 1
-5 -13z M1425 1391 c3 -6 22 -11 42 -11 44 0 41 5 -10 14 -27 5 -37 4 -32 -3z
M19 1363 c-13 -17 -13 -17 6 -3 11 8 22 16 24 17 2 2 0 3 -6 3 -6 0 -17 -8
-24 -17z M1043 1358 c3 -9 1 -19 -6 -22 -9 -3 -9 -5 0 -5 18 -1 27 19 13 32
-10 9 -12 8 -7 -5z M24 1328 l-19 -23 23 19 c21 18 27 26 19 26 -2 0 -12 -10
-23 -22z M550 1347 c0 -2 15 -16 33 -33 l32 -29 -29 33 c-28 30 -36 37 -36 29z
M711 1316 c-13 -14 -21 -31 -18 -38 4 -10 6 -10 6 1 1 8 11 25 23 38 12 13 19
23 16 23 -2 0 -15 -11 -27 -24z M990 1319 c-14 -25 -11 -29 15 -18 11 4 14 8
8 8 -7 1 -13 6 -13 12 0 5 5 7 10 4 6 -3 10 -1 10 4 0 18 -19 12 -30 -10z
M650 1305 c13 -14 26 -25 28 -25 3 0 -5 11 -18 25 -13 14 -26 25 -28 25 -3 0
5 -11 18 -25z M1275 1320 c3 -5 14 -10 23 -10 15 0 15 2 2 10 -20 13 -33 13
-25 0z M816 1285 c-3 -8 -1 -15 4 -15 6 0 10 7 10 15 0 8 -2 15 -4 15 -2 0 -6
-7 -10 -15z M1290 1290 c0 -5 9 -14 20 -20 11 -6 20 -7 20 -3 0 5 -9 14 -20
21 -11 7 -20 8 -20 2z M1076 1275 c4 -8 8 -15 10 -15 2 0 4 7 4 15 0 8 -4 15
-10 15 -5 0 -7 -7 -4 -15z M1250 1235 c0 -8 4 -15 9 -15 5 0 11 7 15 15 3 9 0
15 -9 15 -8 0 -15 -7 -15 -15z M1320 1220 c19 -11 40 -19 45 -19 6 0 -6 8 -25
19 -19 11 -39 19 -45 19 -5 0 6 -8 25 -19z M728 1223 c6 -2 18 -2 25 0 6 3 1
5 -13 5 -14 0 -19 -2 -12 -5z M1177 1191 c3 -12 9 -21 14 -21 14 0 11 16 -5
29 -12 10 -13 8 -9 -8z M1014 1192 c3 -6 -2 -15 -11 -21 -10 -6 -13 -11 -7
-11 20 0 37 27 23 36 -7 4 -9 3 -5 -4z M901 1175 c1 -19 18 -51 18 -35 0 8 -4
22 -9 30 -5 8 -9 11 -9 5z M1450 1160 c8 -5 20 -10 25 -10 6 0 3 5 -5 10 -8 5
-19 10 -25 10 -5 0 -3 -5 5 -10z M966 1124 c-5 -14 -4 -15 9 -4 17 14 19 20 6
20 -5 0 -12 -7 -15 -16z M1240 1095 c0 -5 5 -17 10 -25 5 -8 10 -10 10 -5 0 6
-5 17 -10 25 -5 8 -10 11 -10 5z M957 1072 c-10 -10 -17 -28 -17 -39 0 -26
-10 -35 -25 -23 -7 6 -6 -8 4 -39 9 -27 19 -47 23 -45 4 2 9 -6 12 -18 3 -13
3 11 0 52 -3 53 0 83 10 103 17 32 15 34 -7 9z M936 779 c-3 -18 -4 -34 -2
-36 2 -3 7 10 11 27 4 17 5 34 2 36 -2 3 -7 -10 -11 -27z M0 420 c0 -14 15
-28 51 -46 28 -14 54 -23 57 -20 3 3 0 6 -7 6 -7 0 -10 4 -7 9 3 5 -6 12 -19
15 -14 4 -31 18 -37 31 -13 30 -38 33 -38 5z M46 415 c4 -8 15 -15 27 -15 23
0 22 2 -10 19 -19 10 -22 9 -17 -4z M303 413 c9 -2 23 -2 30 0 6 3 -1 5 -18 5
-16 0 -22 -2 -12 -5z M424 412 c3 -6 -2 -13 -11 -15 -16 -4 -16 -5 -1 -6 21
-1 32 15 17 25 -7 4 -9 3 -5 -4z M208 393 c6 -2 18 -2 25 0 6 3 1 5 -13 5 -14
0 -19 -2 -12 -5z M298 383 c6 -2 18 -2 25 0 6 3 1 5 -13 5 -14 0 -19 -2 -12
-5z M128 338 c5 -5 16 -8 23 -6 8 3 3 7 -10 11 -17 4 -21 3 -13 -5z"/><path fill="#8B4513" d="M1266 1642 c-2 -4 -1 -14 3 -21 6 -9 10 -7 14 8 5 20 -7 29 -17 13z
M862 1598 c-55 -29 -66 -31 -92 -21 -16 6 -30 9 -30 6 0 -10 29 -33 43 -33 8
0 18 -7 21 -16 8 -22 8 -26 -4 -19 -5 3 -10 1 -10 -6 0 -7 -8 -5 -20 6 -15 14
-19 15 -15 4 3 -8 19 -23 36 -33 31 -18 31 -18 25 2 -4 11 -2 23 4 27 6 3 8
10 5 14 -2 5 7 18 20 31 22 21 49 29 110 32 11 1 23 6 26 10 7 11 65 -13 102
-42 15 -12 27 -31 27 -43 0 -20 20 -62 20 -43 0 5 6 3 13 -3 11 -8 18 -6 33
12 10 12 13 17 5 11 -20 -18 -54 -5 -48 18 7 24 -12 80 -24 73 -4 -3 -30 6
-56 20 -66 34 -114 33 -191 -7z m101 15 c-7 -2 -19 -2 -25 0 -7 3 -2 5 12 5
14 0 19 -2 13 -5z m-48 -13 c-3 -5 -11 -10 -16 -10 -6 0 -7 5 -4 10 3 6 11 10
16 10 6 0 7 -4 4 -10z M841 1547 c-8 -10 -7 -14 4 -14 8 0 16 6 19 14 3 7 2
13 -3 13 -5 0 -14 -6 -20 -13z M1003 1547 c9 -8 17 -18 17 -24 0 -5 14 -19 30
-31 36 -27 38 -44 8 -72 l-22 -20 23 0 c12 0 20 4 16 9 -3 5 -1 12 5 16 18 11
11 63 -12 88 -13 13 -36 29 -53 36 -26 10 -28 9 -12 -2z M836 1505 c-3 -8 -1
-15 4 -15 13 0 22 18 11 24 -5 3 -11 -1 -15 -9z M1205 1430 c-8 -35 0 -50 23
-50 16 1 16 1 0 11 -13 7 -16 17 -11 39 7 39 -3 39 -12 0z M1014 1375 c11 -8
23 -15 28 -15 4 0 8 -7 8 -15 0 -9 6 -12 15 -9 22 9 3 29 -38 43 -29 10 -30 9
-13 -4z M1269 1309 c6 -18 21 -28 21 -14 0 3 0 9 0 14 0 5 -7 11 -14 14 -11 5
-13 1 -7 -14z M1067 1301 c-17 -6 -16 -8 7 -19 23 -10 26 -9 26 8 0 21 -4 23
-33 11z M1305 1281 c-3 -6 5 -15 17 -21 21 -10 21 -10 6 3 -10 8 -15 17 -11
20 3 4 4 7 0 7 -3 0 -8 -4 -12 -9z M1370 1241 c0 -5 7 -12 16 -15 14 -5 15 -4
4 9 -14 17 -20 19 -20 6z M1252 1215 c0 -16 2 -22 5 -12 2 9 2 23 0 30 -3 6
-5 -1 -5 -18z M1085 1210 c-10 -11 -13 -20 -7 -20 6 0 13 6 16 13 7 15 1 -20
-9 -48 -6 -19 -6 -19 5 -2 16 26 30 77 21 77 -4 0 -16 -9 -26 -20z M1186 1193
c16 -34 34 -52 34 -34 0 5 -11 23 -25 38 l-25 28 16 -32z M936 1025 c-3 -9
-10 -13 -16 -10 -5 3 -10 1 -10 -4 0 -6 4 -11 9 -11 12 0 35 29 29 36 -3 3 -8
-2 -12 -11z M927 916 c1 -43 5 -81 8 -84 3 -3 5 6 5 19 0 13 3 42 7 63 4 27 3
37 -5 32 -6 -4 -12 5 -14 21 -2 16 -3 -7 -1 -51z M0 420 c0 -12 84 -59 94 -53
5 3 1 10 -8 15 -9 5 -14 13 -11 19 4 5 1 10 -4 10 -14 2 -30 6 -33 9 -9 6 -38
7 -38 0z"/><path fill="#FFB300" d="M963 1607 c27 -8 37 -16 37 -31 1 -13 16 -32 40 -48 43 -30 60 -70
41 -99 -17 -28 -14 -39 12 -39 14 0 30 13 45 36 23 36 22 54 -4 54 -8 0 -17
13 -20 29 -11 52 -99 113 -161 110 -26 -1 -25 -2 10 -12z M868 1585 c-20 -14
-51 -25 -68 -25 -38 0 -49 -23 -25 -50 17 -19 18 -19 44 15 14 19 31 34 38 35
7 0 16 6 20 13 4 8 17 19 28 25 11 6 15 12 10 12 -6 0 -27 -11 -47 -25z M1194
1442 c-6 -4 -14 -17 -18 -29 -10 -33 12 -29 25 3 11 30 9 36 -7 26z M980 1415
c0 -10 32 -34 46 -35 6 0 11 6 11 13 0 8 -5 14 -11 14 -6 0 -19 4 -28 8 -10 4
-18 4 -18 0z M1068 1303 c6 -2 18 -2 25 0 6 3 1 5 -13 5 -14 0 -19 -2 -12 -5z
M1200 1211 c0 -17 12 -41 20 -41 10 0 1 38 -11 46 -5 3 -9 1 -9 -5z M927 1047
c-11 -29 -9 -43 4 -30 6 6 9 19 7 29 -3 18 -4 18 -11 1z"/>
</svg>