<svg xmlns="http://www.w3.org/2000/svg" width="167" height="395" viewBox="0 0 167 395">
  <rect width="167" height="395" fill="white"/>
  <g transform="translate(0.000000,395.000000) scale(0.100000,-0.100000)" fill="#2d5a1b">
<path d="M1080 3896 c0 -2 9 -6 20 -9 11 -3 18 -1 14 4 -5 9 -34 13 -34 5z
M1352 3475 c0 -16 2 -22 5 -12 2 9 2 23 0 30 -3 6 -5 -1 -5 -18z M464 2715 c0
-60 1 -84 3 -52 2 32 2 81 0 110 -2 29 -3 3 -3 -58z M1272 1660 c-9 -15 -10
-25 -2 -38 9 -14 10 -13 4 7 -3 13 -2 21 3 18 5 -3 10 3 10 14 2 24 1 24 -15
-1z M859 1599 l-24 -20 28 17 c15 9 27 18 27 20 0 8 -8 4 -31 -17z M1050 1607
c3 -3 22 -17 43 -31 41 -28 48 -21 16 15 -11 13 -18 18 -14 12 8 -16 0 -16
-28 -2 -12 7 -20 9 -17 6z M740 1582 c0 -5 7 -9 15 -9 8 0 12 4 9 9 -3 4 -9 8
-15 8 -5 0 -9 -4 -9 -8z M1000 1547 c0 -4 18 -25 40 -47 22 -22 40 -36 40 -32
0 5 -18 26 -40 47 -22 21 -40 36 -40 32z M1124 1525 c-8 -19 13 -45 35 -44 12
1 11 2 -3 6 -15 4 -16 7 -5 15 11 8 10 9 -4 4 -15 -5 -17 -2 -12 14 7 23 -3
27 -11 5z M813 1508 c-3 -7 -1 -8 5 -4 7 4 12 2 12 -4 0 -13 21 -9 23 4 3 13
-32 16 -40 4z M930 1433 c0 -9 50 -53 62 -53 14 0 9 7 -27 34 -19 15 -35 24
-35 19z M1213 1400 c2 -8 12 -16 23 -17 13 -2 15 -1 4 4 -8 3 -19 11 -23 17
-6 7 -7 6 -4 -4z M1038 1358 c9 -11 9 -18 2 -21 -6 -3 -5 -4 2 -3 18 4 16 28
-2 34 -13 4 -13 3 -2 -10z M995 1330 c-4 -6 -11 -8 -16 -5 -5 3 -6 -1 -3 -9 3
-9 16 -16 28 -15 11 0 15 3 9 6 -7 2 -13 9 -13 14 0 6 5 7 10 4 6 -3 10 -1 10
4 0 14 -17 14 -25 1z M1275 1320 c3 -5 11 -10 16 -10 6 0 7 5 4 10 -3 6 -11
10 -16 10 -6 0 -7 -4 -4 -10z M1292 1292 c2 -8 7 -13 12 -12 5 1 13 -4 18 -12
8 -11 9 -11 6 0 -2 8 -7 13 -12 12 -5 -1 -13 4 -18 12 -8 11 -9 11 -6 0z
M1356 1245 c10 -8 24 -14 29 -14 6 0 1 6 -9 14 -11 8 -24 15 -30 15 -5 0 -1
-7 10 -15z M1250 1229 c0 -11 4 -18 10 -14 5 3 7 12 3 20 -7 21 -13 19 -13 -6z
M1290 1235 c14 -8 30 -14 35 -14 6 0 -1 6 -15 14 -14 8 -29 14 -35 14 -5 0 1
-6 15 -14z M1390 1190 c8 -5 20 -10 25 -10 6 0 3 5 -5 10 -8 5 -19 10 -25 10
-5 0 -3 -5 5 -10z M901 1175 c1 -19 18 -51 18 -35 0 8 -4 22 -9 30 -5 8 -9 11
-9 5z M1450 1160 c8 -5 20 -10 25 -10 6 0 3 5 -5 10 -8 5 -19 10 -25 10 -5 0
-3 -5 5 -10z M961 1118 c-14 -23 -14 -23 8 -4 22 20 25 26 13 26 -4 0 -13 -10
-21 -22z M1240 1095 c0 -5 5 -17 10 -25 5 -8 10 -10 10 -5 0 6 -5 17 -10 25
-5 8 -10 11 -10 5z M917 1083 c-4 -3 -7 -11 -7 -17 0 -6 5 -5 12 2 6 6 9 14 7
17 -3 3 -9 2 -12 -2z M957 1072 c-9 -10 -17 -32 -19 -49 -2 -27 -5 -30 -17
-20 -12 10 -14 9 -9 -4 4 -9 9 -37 13 -62 5 -35 11 -44 22 -40 12 5 13 19 8
75 -6 55 -4 73 9 93 19 29 16 32 -7 7z m-8 -135 c1 -5 -3 -5 -9 -2 -5 3 -10
16 -9 28 0 21 1 21 9 2 5 -11 9 -24 9 -28z M23 415 c-20 -10 -19 -12 29 -39
27 -15 52 -25 55 -22 4 3 1 6 -6 6 -7 0 -10 4 -7 9 3 5 -2 12 -11 15 -13 5
-14 9 -5 15 22 14 -30 29 -55 16z M123 350 c2 -8 12 -16 23 -17 13 -2 15 -1 4
4 -8 3 -19 11 -23 17 -6 7 -7 6 -4 -4z"/>
</g><g transform="translate(0.000000,395.000000) scale(0.100000,-0.100000)" fill="#5cc827">
<path d="M840 3852 c-85 -26 -135 -57 -177 -109 -21 -26 -46 -57 -55 -67 -10
-11 -21 -29 -24 -40 -6 -22 -49 -136 -64 -171 -20 -48 -30 -210 -30 -486 0
-312 -15 -650 -30 -684 -4 -11 -11 -49 -14 -85 -2 -36 -11 -99 -19 -140 -8
-41 -20 -114 -27 -163 -7 -48 -16 -90 -21 -93 -12 -7 -12 -61 0 -68 5 -4 29 2
53 13 43 18 46 22 92 132 27 63 52 119 56 124 4 6 11 21 15 35 3 14 15 43 25
65 10 22 26 58 36 80 33 79 112 232 171 330 33 55 63 107 67 115 14 29 49 87
108 172 10 15 18 31 18 35 0 4 14 26 30 47 17 22 30 45 30 52 0 7 6 19 13 26
21 22 74 110 102 168 14 30 30 62 35 70 26 41 63 140 77 203 20 96 13 239 -16
294 -30 61 -164 164 -191 148 -5 -3 -11 -1 -15 5 -10 16 -183 10 -245 -8z
M691 1573 c1 -17 3 -21 6 -10 2 9 9 17 14 17 5 0 9 5 9 10 0 6 -7 10 -15 10
-10 0 -15 -9 -14 -27z M858 1458 c-2 -26 -8 -34 -26 -36 -13 -2 -26 -10 -29
-17 -2 -8 -25 -34 -49 -58 -49 -49 -53 -63 -24 -72 35 -11 64 16 118 112 8 13
25 28 38 33 28 11 28 11 12 45 -16 35 -36 31 -40 -7z M135 1420 c-7 -12 2 -12
30 0 19 8 19 9 -2 9 -12 1 -25 -3 -28 -9z M530 1413 c1 -20 88 -119 97 -110 3
3 -9 20 -26 38 -17 17 -38 44 -47 60 -17 33 -24 37 -24 12z M684 1256 c22 -18
56 -21 56 -6 0 6 -6 10 -12 10 -7 0 -24 3 -38 6 -24 5 -24 5 -6 -10z"/>
</g><g transform="translate(0.000000,395.000000) scale(0.100000,-0.100000)" fill="#4a9e20">
<path d="M933 3903 c9 -2 23 -2 30 0 6 3 -1 5 -18 5 -16 0 -22 -2 -12 -5z
M1107 3869 c63 -24 156 -106 184 -162 29 -55 36 -198 16 -294 -14 -63 -51
-162 -77 -203 -5 -8 -21 -40 -35 -70 -28 -58 -81 -146 -102 -168 -7 -7 -13
-19 -13 -26 0 -7 -13 -30 -30 -52 -16 -21 -30 -43 -30 -47 0 -4 -8 -20 -18
-35 -59 -85 -94 -143 -108 -172 -4 -8 -34 -60 -67 -115 -59 -98 -138 -251
-171 -330 -10 -22 -26 -58 -36 -80 -10 -22 -22 -51 -25 -65 -4 -14 -11 -29
-15 -35 -4 -5 -29 -61 -56 -124 -46 -109 -50 -114 -91 -132 -49 -21 -70 -17
-76 14 -4 20 -4 19 -5 -3 -3 -45 10 -53 64 -45 27 5 52 8 57 7 4 -1 7 5 7 15
0 9 3 13 6 10 7 -7 24 26 68 126 14 31 22 57 19 57 -3 0 2 11 11 25 9 13 16
31 16 40 0 8 5 15 11 15 5 0 8 4 5 9 -7 11 19 63 27 54 4 -3 7 5 7 20 0 14 4
28 9 31 4 3 14 26 21 51 7 26 17 42 23 38 5 -3 7 -1 3 5 -8 13 13 62 27 62 5
0 7 7 3 15 -3 8 -1 15 5 15 6 0 8 4 5 8 -3 5 4 18 14 30 11 12 20 26 20 32 0
5 5 10 10 10 6 0 10 5 10 12 0 14 41 101 50 108 4 3 10 15 14 28 4 12 12 20
17 17 5 -4 9 3 9 13 0 11 7 25 15 32 8 7 15 18 15 26 0 7 8 18 18 23 9 6 14
11 9 11 -4 0 0 14 8 30 10 19 20 28 28 24 7 -4 9 -4 5 1 -4 4 2 19 12 33 11
13 20 31 20 38 0 8 5 14 10 14 6 0 10 5 10 10 0 14 59 108 60 95 1 -5 8 2 16
18 8 15 13 31 10 36 -3 4 8 22 25 39 17 17 28 35 25 41 -3 5 1 11 9 15 8 3 12
12 9 21 -4 9 0 15 10 15 10 0 13 5 9 17 -4 11 -3 14 5 9 8 -5 12 0 12 12 0 11
7 25 15 32 8 7 13 16 10 20 -3 5 -1 11 4 14 11 7 71 159 76 191 26 163 22 223
-20 304 -42 84 -177 192 -237 190 -15 0 -5 -7 29 -20z M560 3669 c-6 -11 -10
-25 -8 -30 2 -5 8 4 15 21 13 34 9 40 -7 9z M487 3426 c-4 -27 -6 -65 -6 -85
1 -20 6 -2 10 39 10 84 6 122 -4 46z M475 2915 c0 -214 1 -301 2 -192 2 109 2
285 0 390 -1 106 -2 17 -2 -198z M463 2470 c0 -25 2 -35 4 -22 2 12 2 32 0 45
-2 12 -4 2 -4 -23z M452 2380 c0 -19 2 -27 5 -17 2 9 2 25 0 35 -3 9 -5 1 -5
-18z M442 2310 c0 -19 2 -27 5 -17 2 9 2 25 0 35 -3 9 -5 1 -5 -18z M417 2168
c-4 -13 -9 -51 -11 -83 -5 -54 -4 -52 9 20 13 75 14 114 2 63z M392 1995 c0
-16 2 -22 5 -12 2 9 2 23 0 30 -3 6 -5 -1 -5 -18z M382 1930 c0 -19 2 -27 5
-17 2 9 2 25 0 35 -3 9 -5 1 -5 -18z M675 1589 c-4 -11 -5 -23 -2 -26 3 -2 8
5 12 16 6 21 35 30 35 11 0 -5 -5 -10 -11 -10 -8 0 -9 -11 -5 -32 5 -31 5 -32
-9 -14 -12 16 -15 17 -15 4 0 -24 26 -42 34 -23 3 8 3 22 -1 31 -3 9 3 21 16
30 27 19 19 34 -19 34 -20 0 -31 -6 -35 -21z M884 1508 c5 -30 18 -58 26 -58
10 0 -8 57 -20 65 -5 3 -7 -1 -6 -7z M745 1471 c-3 -6 5 -22 19 -35 14 -13 26
-27 26 -32 0 -11 -104 -114 -114 -114 -17 0 -105 100 -122 139 -26 61 -52 50
-39 -16 12 -66 167 -194 232 -193 10 1 -2 8 -27 16 -98 34 -207 148 -198 207
2 18 8 13 26 -25 32 -65 120 -143 180 -161 41 -12 50 -11 69 2 12 9 23 20 23
25 0 5 -7 3 -15 -4 -18 -15 -20 1 -2 19 6 8 -3 3 -20 -9 -28 -20 -36 -22 -59
-11 l-26 12 56 59 c32 33 54 65 51 70 -4 7 3 9 22 5 24 -5 23 -3 -11 14 -21
11 -44 25 -51 31 -9 8 -15 8 -20 1z m50 -39 c-3 -3 -16 5 -28 17 l-22 23 28
-17 c15 -10 25 -20 22 -23z M852 1460 c0 -14 2 -19 5 -12 2 6 2 18 0 25 -3 6
-5 1 -5 -13z M100 1421 c-14 -10 -40 -27 -59 -38 -19 -10 -37 -25 -39 -32 -3
-10 2 -10 19 2 39 28 46 19 9 -12 -19 -16 -33 -31 -30 -34 3 -3 25 12 50 34
25 21 36 36 26 32 -12 -4 -17 -2 -13 3 7 12 84 51 112 57 11 3 4 5 -15 6 -20
0 -46 -8 -60 -18z M170 1416 c-19 -6 -44 -17 -55 -24 l-20 -14 20 7 c67 22
111 38 114 41 8 7 -23 2 -59 -10z M931 963 c-1 -12 4 -25 9 -28 12 -7 12 2 0
30 -8 19 -9 19 -9 -2z M933 855 c0 -22 2 -30 4 -17 2 12 2 30 0 40 -3 9 -5 -1
-4 -23z M0 552 c1 -14 118 -92 161 -108 24 -8 80 -22 123 -29 43 -8 81 -17 84
-20 13 -13 -105 -2 -213 19 -24 5 -22 3 9 -9 80 -31 263 -29 274 3 3 9 -16 12
-70 12 -40 0 -89 5 -108 10 -19 6 -48 13 -64 15 -38 7 -93 37 -149 79 -26 20
-47 33 -47 28z m423 -149 c-7 -2 -21 -2 -30 0 -10 3 -4 5 12 5 17 0 24 -2 18
-5z M20 480 c14 -11 43 -30 65 -41 32 -16 35 -16 16 -2 -13 10 -43 29 -65 41
-37 22 -39 22 -16 2z M0 426 c0 -9 7 -16 16 -16 9 0 14 5 12 12 -6 18 -28 21
-28 4z"/>
</g><g transform="translate(0.000000,395.000000) scale(0.100000,-0.100000)" fill="#1c1c1c">
<path d="M829 3931 c-118 -22 -216 -105 -279 -235 -48 -100 -69 -201 -74 -353
-2 -65 -2 -95 0 -68 23 331 126 536 303 607 84 34 232 33 319 -3 87 -37 78
-26 -15 17 -83 39 -168 50 -254 35z M1340 3491 c0 -77 -93 -297 -193 -460
-288 -467 -401 -664 -461 -799 -18 -42 -43 -97 -54 -122 -11 -25 -48 -112 -83
-194 -64 -150 -69 -157 -124 -177 -35 -12 -23 -23 35 -33 l35 -7 100 238 c136
325 202 456 385 753 271 441 323 539 353 660 18 72 25 156 14 166 -4 4 -7 -7
-7 -25z M461 2545 c-1 -48 -28 -230 -77 -528 -20 -119 -34 -223 -31 -230 3
-11 14 42 37 186 41 262 51 326 65 432 9 66 15 134 12 150 -3 26 -4 24 -6 -10z
M903 1661 c-18 -5 -49 -21 -68 -35 l-36 -27 -45 21 c-27 14 -54 20 -68 16 -14
-3 -50 -34 -82 -69 l-57 -63 -86 19 c-149 32 -306 10 -424 -60 -34 -21 -37
-26 -37 -68 l0 -45 38 25 c65 43 106 62 150 70 49 8 59 -9 15 -26 -104 -41
-134 -56 -171 -90 l-32 -29 2 -377 3 -378 63 -42 c79 -53 178 -83 282 -86 95
-2 110 -20 25 -28 -126 -12 -228 11 -332 76 -41 25 -43 25 -43 6 0 -23 64 -60
165 -94 93 -32 267 -29 357 5 136 51 266 165 327 286 47 92 81 268 65 330 -6
22 -7 22 -26 5 -15 -14 -14 -7 8 36 26 49 27 56 16 98 -7 24 -24 61 -37 81
-14 20 -25 40 -25 44 0 14 105 118 119 118 9 0 6 7 -10 20 -22 20 -23 20 -30
2 -10 -26 -167 -182 -183 -182 -81 0 -236 147 -236 223 0 42 23 32 44 -19 13
-32 39 -63 87 -105 38 -32 75 -59 82 -58 6 0 2 5 -10 11 -28 14 -29 20 -2 44
12 10 35 36 52 57 l30 39 -38 36 c-59 58 -87 99 -83 124 4 29 49 36 85 13 30
-20 58 -15 109 20 56 38 120 37 196 -1 41 -21 47 -22 37 -6 -31 49 -127 80
-196 63z M1280 1625 c-5 -14 -18 -51 -29 -83 -10 -31 -22 -65 -27 -76 -6 -16
-5 -17 14 -7 14 8 29 37 47 92 14 44 25 84 25 90 0 19 -21 8 -30 -16z M1217
1587 c-72 -99 -67 -94 -78 -77 -9 13 -10 13 -6 0 2 -8 13 -16 24 -18 16 -2 29
12 62 69 23 39 40 73 39 75 -2 1 -20 -21 -41 -49z M717 1573 c-31 -30 68 -143
126 -143 22 0 23 33 1 55 -13 12 -14 18 -4 31 7 8 11 17 8 20 -3 2 -13 -7 -22
-21 -11 -17 -13 -25 -4 -25 9 0 9 -3 1 -11 -24 -24 -86 42 -67 72 10 17 -25
37 -39 22z M920 1541 c-26 -7 -36 -39 -10 -32 8 2 34 6 58 9 25 3 41 9 39 16
-4 13 -52 17 -87 7z M1040 1498 c0 -4 5 -19 10 -34 l11 -27 -43 7 c-24 4 -54
9 -68 12 -14 3 1 -7 33 -22 55 -26 58 -26 77 -9 11 10 20 21 20 25 0 10 -39
57 -40 48z M1215 1407 c4 -8 16 -18 28 -21 25 -7 243 -8 236 -2 -4 4 -56 12
-222 33 -40 5 -47 3 -42 -10z M1385 1340 c-117 -20 -108 -37 13 -26 99 9 122
15 122 32 0 17 -6 16 -135 -6z M980 1290 c0 -5 11 -10 24 -10 14 0 28 5 31 10
4 6 -7 10 -24 10 -17 0 -31 -4 -31 -10z M1026 1208 l-47 -73 40 45 c46 52 76
100 63 100 -5 0 -30 -33 -56 -72z M1264 1154 c1 -106 20 -126 22 -24 1 39 6
66 13 68 6 2 54 -15 105 -37 100 -44 106 -46 106 -33 0 5 -17 16 -37 25 -21 9
-77 33 -124 55 l-86 40 1 -94z M1147 1175 c-14 -21 -24 -42 -21 -47 3 -5 1 -7
-4 -6 -9 3 -62 -54 -62 -66 0 -18 24 1 75 58 44 51 55 69 47 82 -8 14 -13 12
-35 -21z M1014 1123 l-59 -67 -2 -128 c-1 -90 -7 -144 -19 -181 -17 -53 -69
-160 -91 -187 -53 -67 -74 -87 -138 -135 -40 -30 -76 -55 -79 -55 -4 0 -31
-11 -61 -25 -74 -33 -172 -49 -269 -42 -89 6 -120 15 -216 61 -84 41 -80 39
-80 27 0 -15 95 -67 170 -93 52 -18 87 -22 180 -22 100 -1 125 3 188 26 200
72 343 212 415 408 16 44 21 81 22 191 l2 135 51 77 c29 42 50 77 49 77 -2 0
-30 -30 -63 -67z"/>
</g><g transform="translate(0.000000,395.000000) scale(0.100000,-0.100000)" fill="#8B5e3c">
<path d="M464 2950 c0 -118 2 -167 3 -107 2 59 2 155 0 215 -1 59 -3 10 -3
-108z M452 2520 c0 -19 2 -27 5 -17 2 9 2 25 0 35 -3 9 -5 1 -5 -18z M1273
1657 c-7 -15 -8 -29 -2 -38 7 -12 9 -12 10 1 0 8 2 25 5 38 5 28 0 28 -13 -1z
M865 1600 c-62 -33 -84 -37 -103 -18 -6 6 -15 8 -19 4 -4 -4 -2 -10 5 -15 6
-4 10 -16 8 -27 -5 -25 1 -35 33 -56 21 -15 26 -15 46 -2 13 8 25 28 28 44 8
36 38 56 98 63 36 5 52 2 80 -15 19 -12 38 -22 42 -23 14 0 27 -29 27 -59 0
-20 4 -27 14 -23 7 3 18 1 23 -4 6 -6 17 -1 28 13 11 13 14 18 6 12 -7 -7 -22
-9 -33 -6 -15 3 -18 10 -14 28 6 23 -12 77 -23 69 -4 -2 -29 7 -56 21 -68 33
-120 31 -190 -6z m15 -25 c0 -2 -10 -10 -22 -16 -21 -11 -22 -11 -9 4 13 16
31 23 31 12z m-30 -42 c0 -12 -22 -43 -31 -43 -6 0 -6 6 0 19 6 10 8 20 6 23
-3 3 2 5 10 5 8 0 15 -2 15 -4z M1229 1578 c-7 -13 -19 -34 -27 -48 -14 -24
-13 -24 3 -5 20 24 48 75 41 75 -3 0 -11 -10 -17 -22z M993 1549 c15 -6 27
-17 27 -24 0 -8 9 -19 20 -25 11 -6 25 -20 31 -31 9 -17 7 -25 -12 -45 -22
-23 -22 -24 -2 -24 31 0 43 38 28 84 -18 50 -31 62 -80 70 -36 5 -37 4 -12 -5z
M1203 1426 c-12 -39 -9 -46 19 -46 17 0 18 2 5 14 -8 9 -12 26 -10 40 8 37 -2
32 -14 -8z M932 1441 c-11 -7 -11 -9 0 -14 9 -3 15 1 15 9 0 8 -1 14 -1 14 -1
0 -7 -4 -14 -9z M964 1425 c2 -16 29 -43 60 -60 23 -13 17 -31 -9 -27 -15 2
-17 0 -8 -9 9 -9 19 -9 43 1 29 12 30 14 14 31 -10 11 -24 19 -33 19 -9 0 -27
10 -41 21 l-25 21 30 -6 30 -6 -25 15 c-32 18 -39 18 -36 0z M976 1316 c3 -8
16 -13 30 -13 31 0 30 3 -5 15 -24 8 -29 8 -25 -2z M1269 1308 c5 -14 33 -36
72 -56 56 -29 61 -30 35 -8 -17 14 -33 23 -37 20 -4 -2 -10 3 -13 12 -3 8 -10
13 -14 10 -5 -3 -14 6 -20 19 -15 32 -34 33 -23 3z M1062 1302 c-9 -6 -6 -12
13 -20 22 -10 25 -9 25 8 0 21 -16 26 -38 12z M1253 1220 c0 -25 2 -35 4 -22
2 12 2 32 0 45 -2 12 -4 2 -4 -23z M1085 1210 c-10 -11 -13 -20 -7 -20 6 0 13
6 16 13 8 16 0 -23 -9 -48 -6 -14 -5 -17 3 -10 13 13 33 85 23 85 -4 0 -16 -9
-26 -20z M1360 1205 c25 -13 50 -24 55 -24 6 0 -10 11 -35 24 -25 13 -49 24
-55 24 -5 0 10 -11 35 -24z M1164 1208 c-4 -7 -4 -10 1 -6 7 7 55 -54 55 -71
0 -4 7 -16 15 -27 11 -14 10 -7 -3 26 -11 25 -17 52 -14 60 3 8 1 12 -3 7 -5
-4 -16 0 -26 9 -14 12 -18 13 -25 2z M907 1159 c4 -13 8 -18 11 -10 2 7 -1 18
-6 23 -8 8 -9 4 -5 -13z M994 1162 c3 -6 -2 -15 -11 -21 -10 -6 -13 -11 -7
-11 20 0 37 27 23 36 -7 4 -9 3 -5 -4z M977 1092 c-20 -21 -37 -45 -37 -54 0
-21 -17 -32 -24 -16 -7 18 4 -70 15 -112 5 -19 10 -57 10 -85 2 -43 3 -39 9
25 5 58 4 77 -6 83 -16 9 -19 77 -4 77 6 0 10 10 10 22 0 12 17 39 37 60 20
21 35 38 32 38 -3 0 -22 -17 -42 -38z M910 1060 c-6 -11 -8 -20 -6 -20 3 0 10
9 16 20 6 11 8 20 6 20 -3 0 -10 -9 -16 -20z M911 880 c0 -19 4 -42 9 -50 8
-12 10 -10 9 10 -1 14 -5 36 -9 50 -7 23 -8 22 -9 -10z M30 419 c0 -5 -8 -9
-17 -9 -17 -1 61 -46 88 -52 8 -2 18 -7 22 -13 5 -6 7 -5 5 3 -2 8 -7 13 -12
12 -13 -2 -27 23 -16 30 4 3 -9 13 -31 22 -21 9 -39 12 -39 7z M218 313 c6 -2
18 -2 25 0 6 3 1 5 -13 5 -14 0 -19 -2 -12 -5z"/>
</g><g transform="translate(0.000000,395.000000) scale(0.100000,-0.100000)" fill="#FFB300">
<path d="M958 3873 c18 -2 45 -2 60 0 15 2 0 4 -33 4 -33 0 -45 -2 -27 -4z
M1110 3866 c0 -3 9 -10 20 -16 11 -6 20 -8 20 -6 0 3 -9 10 -20 16 -11 6 -20
8 -20 6z M563 3603 c-3 -10 -8 -22 -11 -27 -3 -5 0 -6 5 -3 11 7 25 47 17 47
-3 0 -7 -8 -11 -17z M527 3510 c-6 -16 -15 -30 -19 -30 -4 0 -8 -10 -8 -22 1
-22 1 -23 13 -3 15 25 36 85 30 85 -3 0 -10 -13 -16 -30z M502 3405 c0 -16 2
-22 5 -12 2 9 2 23 0 30 -3 6 -5 -1 -5 -18z M492 3330 c0 -14 2 -19 5 -12 2 6
2 18 0 25 -3 6 -5 1 -5 -13z M485 2955 c0 -192 1 -270 2 -172 2 98 2 256 0
350 -1 95 -3 15 -2 -178z M466 2438 c-4 -40 -10 -91 -13 -113 -4 -27 -2 -37 5
-30 9 10 28 215 19 215 -2 0 -8 -33 -11 -72z M443 2225 c0 -27 2 -38 4 -22 2
15 2 37 0 50 -2 12 -4 0 -4 -28z M427 2157 c-3 -8 -1 -20 4 -28 6 -10 9 -7 9
14 0 29 -5 35 -13 14z M417 2086 c-4 -10 -7 -30 -6 -44 1 -25 1 -25 10 6 11
37 7 67 -4 38z M402 1955 c0 -16 2 -22 5 -12 2 9 2 23 0 30 -3 6 -5 -1 -5 -18z
M386 1903 c-4 -9 -2 -21 4 -27 7 -7 10 -2 10 17 0 31 -5 34 -14 10z M864 1590
c-22 -15 -55 -30 -74 -32 -41 -4 -47 -18 -20 -49 l20 -24 23 27 c12 14 40 41
61 58 32 25 48 30 82 29 29 -2 40 -7 37 -15 -2 -7 6 -22 19 -34 13 -11 31 -29
42 -38 47 -44 39 -102 -15 -102 -17 0 -39 5 -50 11 -18 9 -19 9 -10 -9 6 -11
27 -26 46 -32 19 -6 39 -19 45 -28 5 -9 10 -12 10 -5 0 6 -12 21 -27 33 l-28
21 42 -6 c38 -6 45 -4 67 22 31 34 33 59 6 66 -13 3 -20 14 -20 30 0 27 -54
81 -97 98 -49 18 -115 10 -159 -21z M719 1502 c26 -38 89 -88 98 -78 3 3 1 6
-6 6 -7 0 -35 24 -64 53 -33 34 -43 41 -28 19z M861 1504 c-12 -27 -11 -28 4
-12 10 9 16 21 13 28 -2 7 -10 -1 -17 -16z M522 1440 c0 -14 2 -19 5 -12 2 6
2 18 0 25 -3 6 -5 1 -5 -13z M1180 1435 c-12 -32 -7 -55 12 -55 8 0 13 13 13
34 0 46 -12 55 -25 21z M190 1430 c-8 -5 -10 -10 -5 -10 6 0 17 5 25 10 8 5
11 10 5 10 -5 0 -17 -5 -25 -10z M860 1405 c-20 -24 -6 -28 15 -5 10 11 13 20
8 20 -6 0 -16 -7 -23 -15z M1308 1373 c6 -2 18 -2 25 0 6 3 1 5 -13 5 -14 0
-19 -2 -12 -5z M1217 1343 c-2 -4 11 -20 29 -36 26 -22 32 -24 30 -10 -2 10
-8 18 -15 18 -7 0 -19 8 -26 18 -7 10 -15 15 -18 10z M1022 1321 c-11 -6 -10
-10 4 -15 20 -8 32 0 18 14 -5 5 -15 5 -22 1z M626 1301 c-3 -5 6 -16 20 -26
25 -16 25 -16 15 4 -14 25 -28 34 -35 22z M1071 1297 c9 -7 18 -19 22 -27 3
-9 6 -4 6 13 1 22 -3 27 -21 27 -20 -1 -21 -2 -7 -13z M781 1266 l-24 -31 28
27 c16 15 27 29 24 31 -2 3 -15 -10 -28 -27z M1118 1248 c-20 -20 -22 -28 -8
-28 9 0 35 39 28 44 -2 2 -11 -6 -20 -16z M1054 1218 l-19 -23 23 19 c21 18
27 26 19 26 -2 0 -12 -10 -23 -22z M1197 1211 c-3 -11 -1 -24 5 -27 5 -3 13
-15 17 -27 6 -15 9 -17 13 -6 3 8 -2 30 -12 48 -15 31 -17 32 -23 12z M1403
1206 c0 -6 11 -11 23 -11 14 0 19 4 14 9 -14 14 -37 15 -37 2z M914 1059 c-4
-8 -3 -9 4 -5 7 4 12 3 12 -3 0 -5 -5 -13 -10 -16 -6 -4 -8 -11 -4 -16 8 -14
24 -1 24 21 0 23 -16 35 -26 19z"/>
</g>
</svg>