<?xml version="1.0" encoding="UTF-8"?>
<svg xmlns="http://www.w3.org/2000/svg" width="512" height="512" viewBox="12 2 185 180">
  <title>whizBANG! Bomb Favicon</title>
  <g transform="translate(0,250) scale(0.1,-0.1)" fill="#111111" stroke="none">
    <path d="M0 2485 c0 -12 14 -15 63 -15 61 0 62 0 33 15 -38 20 -96 20 -96 0z"/>
    <path d="M961 2474 c-17 -14 -37 -23 -44 -20 -6 4 -23 13 -37 21 -48 28 -71
19 -140 -53 -65 -67 -65 -67 -115 -54 -111 30 -306 21 -384 -18 -89 -44 -119
-63 -176 -113 -65 -58 -65 -58 -65 -119 0 -61 0 -61 34 -17 19 24 54 60 78 79
48 40 148 103 148 94 0 -4 6 -2 13 4 24 20 77 25 77 8 0 -9 -3 -16 -7 -17
-106 -11 -255 -128 -315 -250 -28 -53 -28 -57 -28 -243 0 -189 0 -189 32 -245
43 -75 119 -154 188 -196 73 -44 214 -79 288 -72 41 4 52 3 52 -9 0 -14 -49
-19 -159 -14 -117 5 -247 73 -345 181 l-56 62 0 -69 c0 -70 0 -70 48 -118 55
-56 152 -116 237 -147 96 -35 293 -33 395 4 182 66 341 226 406 409 24 69 37
205 23 261 -11 48 -11 48 37 120 73 107 73 108 -5 32 -46 -45 -71 -77 -71 -92
0 -24 -22 -43 -28 -24 -3 9 -8 9 -20 -1 -10 -8 -7 2 8 26 33 54 29 106 -15
177 -34 55 -34 55 20 112 34 37 61 57 77 57 22 1 22 1 -7 25 -36 30 -45 31
-45 7 0 -28 -159 -182 -187 -182 -68 0 -200 107 -222 180 -12 39 -9 60 8 60 5
0 11 -13 14 -28 10 -51 145 -183 186 -181 11 0 9 4 -6 11 -32 16 -29 24 27 84
l50 53 -56 56 c-62 64 -81 100 -63 121 15 19 32 18 77 -4 43 -21 61 -19 108
13 67 46 124 42 210 -13 32 -20 43 -35 46 -56 2 -16 11 -34 20 -40 24 -15 49
11 94 97 41 80 38 79 -30 -10 -26 -35 -51 -63 -55 -63 -4 0 -13 18 -20 39 -7
25 -26 52 -49 70 -35 30 -41 31 -129 31 -84 0 -94 -2 -122 -26z m111 -668 c18
11 2 -173 -20 -236 -61 -173 -195 -308 -377 -381 -71 -28 -92 -32 -180 -32
-104 -1 -115 1 -205 27 -70 20 -162 76 -166 99 -1 10 1 17 4 15 4 -2 34 -17
67 -34 187 -98 428 -81 600 41 154 110 235 257 252 460 4 44 9 70 11 57 2 -13
8 -19 14 -16z"/>
    <path d="M1416 2492 c-3 -5 -21 -52 -40 -105 -28 -79 -31 -95 -17 -87 30 16
41 37 77 158 11 35 11 42 -1 42 -8 0 -16 -4 -19 -8z"/>
    <path d="M95 2440 c-11 -5 -31 -9 -45 -9 -27 -1 -58 -17 -49 -25 10 -11 119
18 119 31 0 7 -1 13 -2 12 -2 0 -12 -4 -23 -9z"/>
    <path d="M1048 2443 c7 -3 16 -2 19 1 4 3 -2 6 -13 5 -11 0 -14 -3 -6 -6z"/>
    <path d="M840 2404 c0 -38 86 -124 125 -124 25 0 27 2 21 33 -9 46 -9 50 -1
72 6 16 1 14 -23 -9 -23 -22 -29 -32 -20 -38 10 -6 9 -8 -3 -8 -24 0 -60 44
-57 71 2 18 -2 25 -19 27 -19 3 -23 -1 -23 -24z"/>
    <path d="M1060 2396 c-41 -15 -49 -43 -10 -37 79 13 104 7 122 -28 10 -19 16
-37 14 -39 -9 -8 -132 22 -150 37 -15 13 -18 13 -14 2 2 -8 11 -18 19 -22 120
-58 155 -63 165 -23 8 31 -9 65 -45 92 -38 28 -61 32 -101 18z"/>
    <path d="M1342 2256 c3 -20 9 -21 148 -22 155 -2 148 2 -53 29 -97 14 -98 14
-95 -7z"/>
    <path d="M1170 2208 c0 -10 -13 -18 -37 -23 -21 -4 -33 -9 -27 -12 7 -2 10
-12 7 -22 -6 -23 15 -31 47 -19 25 10 25 10 -5 23 -16 7 -23 14 -14 14 29 2
55 28 42 42 -11 11 -13 10 -13 -3z"/>
    <path d="M1495 2190 c-123 -21 -107 -36 29 -27 103 7 126 13 126 33 0 17 -25
17 -155 -6z"/>
    <path d="M1420 2141 c0 -9 90 -64 96 -59 1 2 -20 18 -47 36 -27 18 -49 28 -49
23z"/>
    <path d="M1165 2078 c-93 -142 -93 -147 -1 -34 51 63 68 96 49 96 -5 0 -26
-28 -48 -62z"/>
    <path d="M1384 2073 c3 -16 8 -57 11 -93 6 -65 6 -65 -14 -40 -20 25 -20 25
-14 2 7 -29 28 -38 48 -22 11 9 13 26 8 71 -7 70 -8 69 84 28 108 -49 143 -60
143 -46 0 7 -28 26 -62 42 -218 100 -212 98 -204 58z"/>
    <path d="M1274 2025 c-16 -20 -44 -55 -62 -77 -33 -41 -35 -66 -3 -48 10 5 25
19 34 32 8 13 31 41 51 62 32 34 35 41 23 54 -13 12 -18 9 -43 -23z"/>
    <path d="M1215 2009 c-4 -6 -5 -12 -2 -15 2 -3 7 2 10 11 7 17 1 20 -8 4z"/>
  </g>
</svg>