<svg xmlns="http://www.w3.org/2000/svg" width="490" height="510" viewBox="0 0 490 510"><rect width="490" height="510" fill="white"/><g transform="translate(0.000000,510.000000) scale(0.100000,-0.100000)" fill="#4a9e20">
<path d="M1936 4148 c-18 -10 -18 -12 -2 -24 15 -10 21 -9 37 7 10 10 19 21
19 24 0 9 -35 5 -54 -7z M2131 4151 c-8 -5 -11 -16 -7 -29 10 -29 -25 -62 -66
-63 -66 -2 -81 -12 -94 -61 -21 -83 -37 -88 -96 -28 -43 43 -75 51 -85 23 -3
-10 -14 -37 -24 -60 -11 -23 -19 -50 -19 -60 0 -10 -11 -39 -25 -65 -14 -26
-25 -63 -25 -83 0 -51 -24 -101 -57 -118 -39 -20 -241 -82 -341 -105 -51 -12
-105 -33 -140 -55 -31 -19 -76 -40 -99 -46 -22 -6 -64 -27 -93 -47 -28 -19
-70 -42 -92 -50 -23 -8 -63 -33 -89 -57 -26 -23 -73 -62 -103 -87 -69 -56
-253 -259 -284 -313 -12 -21 -33 -52 -46 -68 -14 -16 -34 -54 -46 -86 -12 -31
-36 -82 -55 -112 -21 -35 -40 -84 -49 -129 -8 -41 -27 -98 -40 -128 -36 -78
-65 -253 -73 -444 -10 -221 82 -667 163 -785 18 -27 42 -75 52 -106 10 -31 33
-74 50 -95 61 -76 102 -130 152 -201 28 -40 58 -77 68 -82 10 -6 29 -26 43
-45 13 -19 40 -44 59 -55 20 -11 56 -38 81 -59 24 -22 60 -47 79 -57 19 -10
51 -31 71 -47 20 -16 59 -38 88 -48 28 -11 74 -35 101 -54 32 -22 75 -40 126
-51 42 -9 97 -26 122 -36 25 -11 63 -24 86 -29 78 -17 292 -41 426 -46 115 -5
149 -3 227 15 51 12 111 21 133 21 22 0 66 10 98 21 31 12 109 35 172 51 72
18 127 38 147 54 18 14 59 37 91 50 31 14 69 37 84 51 15 14 47 37 72 52 102
59 383 350 423 437 9 22 32 60 51 86 18 26 40 68 49 95 8 26 28 64 43 83 39
51 47 68 59 133 6 31 24 90 40 131 40 101 51 163 61 356 6 122 5 204 -6 315
-17 181 -19 190 -55 277 -16 37 -36 95 -45 129 -9 34 -31 89 -49 123 -18 33
-38 77 -44 97 -6 20 -28 55 -48 78 l-36 43 -21 -21 c-17 -18 -19 -24 -8 -41 6
-11 12 -29 12 -40 0 -11 5 -20 10 -20 6 0 10 -7 10 -15 0 -8 4 -15 8 -15 5 0
15 -11 22 -25 7 -13 16 -22 20 -20 4 2 13 -15 20 -38 7 -23 15 -49 18 -57 3
-8 7 -31 9 -50 3 -19 20 -66 39 -105 54 -112 67 -225 61 -535 -6 -283 -20
-376 -67 -471 -16 -30 -36 -84 -45 -120 -17 -64 -33 -97 -67 -134 -10 -11 -26
-42 -34 -70 -16 -55 -31 -78 -55 -87 -9 -4 -27 -28 -40 -55 -12 -26 -37 -64
-55 -83 -95 -104 -254 -259 -291 -282 -22 -15 -56 -43 -75 -62 -19 -19 -56
-44 -83 -56 -26 -11 -70 -36 -96 -56 -26 -19 -72 -41 -102 -49 -52 -14 -85
-29 -139 -67 -26 -19 -85 -32 -188 -43 -36 -3 -90 -10 -120 -15 -186 -30 -288
-35 -319 -16 -5 4 -49 8 -98 11 -48 3 -115 10 -148 15 -33 5 -84 12 -114 15
-62 7 -81 16 -122 55 -20 18 -49 32 -91 40 -44 10 -72 23 -98 46 -20 18 -59
41 -87 52 -30 11 -65 34 -82 55 -17 19 -48 43 -68 52 -38 18 -89 63 -196 174
-121 124 -149 156 -167 191 -10 19 -34 50 -54 67 -21 20 -39 49 -46 72 -6 22
-27 57 -46 78 -42 44 -49 59 -59 131 -5 38 -17 66 -45 104 -29 38 -40 64 -45
102 -3 28 -15 134 -26 236 -12 112 -18 209 -15 245 4 33 13 119 21 190 7 72
17 160 20 197 6 58 12 74 45 115 28 36 41 65 51 113 9 47 21 73 46 100 18 21
44 62 57 91 13 30 39 68 56 84 18 17 41 49 52 72 10 23 31 52 47 65 15 13 42
44 60 71 18 26 36 47 41 47 5 0 35 26 67 58 86 84 122 113 174 138 25 13 55
34 65 47 17 22 125 97 140 97 11 0 33 28 26 34 -3 4 1 4 11 0 9 -3 23 -2 30 4
11 9 96 25 107 20 3 -1 19 5 35 14 17 9 46 23 65 31 19 8 55 24 80 36 71 32
93 35 120 13 14 -11 31 -37 39 -58 17 -49 94 -157 125 -177 13 -9 39 -30 57
-47 19 -17 56 -37 83 -45 27 -8 74 -29 104 -46 53 -30 135 -50 255 -64 72 -8
240 11 285 32 44 21 77 66 97 135 20 69 30 78 89 80 45 2 49 0 95 -50 26 -29
52 -52 57 -52 6 0 31 -20 56 -45 26 -25 51 -45 57 -45 5 0 38 -26 72 -57 58
-54 62 -56 75 -39 12 17 7 26 -61 90 -119 114 -166 151 -226 180 -63 29 -145
96 -154 126 -3 10 4 40 16 67 12 26 28 77 35 113 7 36 15 72 19 81 5 13 -2 18
-32 22 -21 4 -42 2 -47 -3 -5 -5 -11 -35 -13 -67 -6 -77 -19 -103 -54 -103
-32 0 -37 -12 -60 -149 -15 -88 -27 -103 -83 -99 -41 3 -41 3 -44 47 -2 29 5
70 22 115 13 39 27 96 31 127 7 63 26 88 87 114 27 11 39 23 44 43 3 15 8 34
10 42 8 35 -15 90 -55 128 -46 43 -51 67 -21 105 31 39 4 46 -33 9 -40 -41
-40 -79 1 -138 39 -55 40 -76 5 -104 -23 -19 -36 -21 -78 -16 -108 13 -207 35
-238 55 -17 11 -56 34 -85 52 -88 52 -92 91 -12 132 60 30 82 63 78 115 -2 32
-6 39 -17 33z m-211 -286 c30 -25 68 -51 84 -58 40 -16 100 -47 159 -82 37
-21 66 -29 120 -33 100 -6 111 -17 104 -107 -3 -45 -16 -97 -36 -145 -17 -42
-30 -94 -31 -118 -1 -122 -79 -143 -253 -66 -45 20 -111 45 -146 56 -38 12
-74 31 -90 48 -14 15 -45 40 -68 54 -77 51 -83 133 -18 232 33 50 39 68 48
148 5 50 14 97 20 104 18 23 52 12 107 -33z m-30 -615 c0 -5 -6 -10 -14 -10
-8 0 -18 5 -21 10 -3 6 3 10 14 10 12 0 21 -4 21 -10z M2620 3962 c0 -29 29
-61 68 -77 20 -9 43 -23 50 -32 6 -9 12 -12 12 -6 0 6 -21 27 -46 48 -25 21
-50 48 -54 61 -11 28 -30 32 -30 6z M815 3011 c-44 -27 -194 -190 -217 -236
-12 -22 -38 -59 -58 -83 -21 -23 -41 -54 -45 -69 -3 -14 -24 -51 -46 -81 -21
-31 -44 -74 -50 -96 -6 -23 -28 -77 -49 -121 -61 -127 -75 -230 -74 -525 1
-281 12 -357 67 -466 20 -38 41 -89 47 -114 7 -24 24 -62 40 -85 15 -22 40
-65 55 -95 97 -191 366 -464 549 -557 28 -14 65 -37 83 -50 18 -14 65 -36 105
-49 39 -14 99 -38 132 -54 63 -31 135 -44 301 -55 50 -3 117 -8 150 -11 69 -6
344 20 423 41 30 7 70 25 90 39 21 13 57 30 82 36 72 18 103 32 144 66 21 18
61 41 88 51 62 22 90 58 86 110 -3 35 -5 38 -38 41 -28 2 -54 -9 -131 -57 -69
-44 -115 -65 -165 -76 -38 -9 -123 -32 -189 -52 -108 -32 -135 -36 -270 -40
-171 -6 -347 14 -421 46 -24 11 -79 30 -120 41 -87 25 -294 128 -339 170 -16
15 -43 35 -60 43 -40 20 -217 196 -257 255 -17 26 -41 58 -54 72 -13 14 -39
61 -59 104 -20 44 -45 91 -55 106 -11 15 -33 76 -51 136 -17 60 -40 141 -51
179 -16 55 -21 110 -25 252 -6 194 3 279 37 358 11 26 28 88 39 140 13 65 28
107 49 137 16 24 39 74 51 111 17 49 31 74 53 90 16 12 36 34 43 48 8 14 37
49 64 77 28 29 51 56 51 61 0 5 23 25 50 45 46 33 50 39 50 76 0 60 -46 78
-105 41z m-435 -1510 c-33 -62 -64 308 -32 389 3 8 13 -73 22 -180 10 -107 14
-201 10 -209z m96 -188 c27 -94 37 -115 66 -148 15 -18 37 -53 48 -80 11 -26
40 -70 65 -99 25 -28 69 -79 98 -113 49 -57 104 -108 234 -219 26 -23 71 -53
99 -67 27 -14 56 -33 64 -42 18 -21 76 -51 120 -60 52 -11 100 -37 100 -53 0
-12 -12 -14 -61 -9 -45 4 -75 14 -117 40 -32 19 -72 39 -91 46 -19 6 -79 41
-133 77 -112 74 -311 267 -355 342 -15 26 -42 69 -60 95 -18 27 -38 67 -44 90
-6 23 -24 60 -40 83 -33 45 -59 128 -59 189 l1 40 24 -27 c13 -16 31 -54 41
-85z m1157 -960 c-7 -2 -21 -2 -30 0 -10 3 -4 5 12 5 17 0 24 -2 18 -5z"/>
</g><g transform="translate(0.000000,510.000000) scale(0.100000,-0.100000)" fill="#1c1c1c">
<path d="M2043 3990 c-50 -20 -36 -82 25 -107 20 -8 50 -26 65 -39 29 -24 77
-33 77 -14 0 6 -4 10 -8 10 -19 0 -81 71 -87 100 -6 29 -29 61 -43 59 -4 0
-17 -4 -29 -9z M2386 3898 c-8 -13 -18 -42 -22 -64 -5 -36 -3 -44 17 -58 32
-22 71 -20 103 5 36 28 33 58 -12 102 -44 43 -65 46 -86 15z M1832 3868 c-7
-7 -12 -35 -12 -63 0 -73 -24 -146 -60 -180 -60 -57 -64 -145 -9 -187 16 -13
51 -41 78 -64 38 -32 67 -46 132 -64 46 -12 117 -35 157 -51 130 -52 172 -34
172 74 0 48 7 76 30 125 37 78 37 106 5 154 -14 20 -25 42 -25 47 0 6 -15 11
-32 11 -70 1 -159 27 -191 57 -18 16 -49 36 -69 46 -20 9 -54 32 -75 50 -33
30 -74 57 -85 57 -2 0 -9 -5 -16 -12z M1468 3505 c-20 -13 -55 -29 -78 -34
-23 -5 -50 -17 -60 -26 -10 -9 -51 -23 -92 -31 -43 -9 -89 -26 -112 -42 -49
-34 -71 -46 -123 -68 -24 -9 -61 -34 -82 -55 -22 -22 -47 -39 -57 -39 -17 0
-71 -44 -175 -142 -28 -27 -54 -48 -59 -48 -5 0 -23 -21 -41 -47 -18 -27 -45
-58 -60 -71 -16 -13 -37 -42 -47 -65 -11 -23 -34 -55 -52 -72 -17 -16 -43 -54
-56 -84 -13 -29 -39 -70 -57 -91 -25 -27 -37 -53 -46 -100 -10 -48 -23 -77
-51 -113 -33 -41 -39 -57 -45 -115 -3 -37 -13 -125 -20 -197 -8 -71 -17 -157
-21 -190 -3 -36 3 -133 15 -245 11 -102 23 -208 26 -236 5 -38 16 -64 45 -102
28 -38 40 -66 45 -104 10 -72 17 -87 59 -131 19 -21 40 -56 46 -78 7 -23 25
-52 46 -72 20 -17 43 -46 53 -64 19 -38 87 -115 185 -211 38 -37 89 -86 112
-110 24 -23 50 -42 58 -42 8 0 38 -22 68 -48 29 -27 73 -56 98 -66 24 -10 61
-32 81 -50 27 -25 51 -36 99 -44 39 -7 79 -22 103 -39 68 -47 79 -51 187 -63
58 -6 164 -18 235 -27 165 -20 206 -17 583 37 35 5 75 17 89 27 56 39 87 54
140 68 30 8 76 30 102 49 26 20 70 45 97 56 27 12 61 36 76 55 16 18 49 47 76
63 44 28 220 194 287 272 17 19 41 57 55 84 14 27 34 54 45 60 31 17 43 37 61
99 9 32 24 63 34 70 30 22 49 61 65 137 9 41 22 81 29 90 50 57 74 180 82 425
6 212 -7 454 -30 530 -9 28 -27 66 -41 85 -14 19 -25 47 -25 65 0 56 -31 128
-70 166 -30 27 -40 46 -45 81 -10 69 -28 80 -117 76 l-73 -3 -8 115 c-4 63
-12 127 -18 143 -12 28 -123 137 -140 137 -6 0 -29 18 -52 41 -23 23 -54 47
-68 54 -14 8 -38 30 -53 50 -35 45 -65 58 -106 44 -35 -13 -54 -45 -64 -106
-13 -90 -46 -117 -176 -147 -85 -20 -122 -20 -286 4 -116 17 -147 26 -198 54
-34 19 -80 40 -104 47 -50 15 -179 121 -221 182 -15 23 -36 68 -45 99 -15 52
-36 78 -63 78 -5 0 -25 -11 -45 -25z m-550 -471 c41 -28 24 -113 -29 -142 -18
-9 -41 -28 -53 -42 -12 -13 -42 -47 -68 -74 -27 -28 -48 -54 -48 -58 0 -5 -20
-30 -44 -56 -31 -33 -49 -64 -60 -104 -10 -31 -30 -75 -47 -97 -28 -39 -59
-131 -59 -176 0 -11 -14 -58 -30 -105 -59 -166 -62 -479 -6 -643 14 -40 34
-110 46 -157 11 -48 35 -109 54 -140 18 -30 41 -75 50 -100 10 -25 32 -63 50
-85 18 -22 47 -61 64 -87 41 -59 184 -203 237 -236 22 -14 54 -38 70 -52 47
-42 261 -147 355 -174 47 -13 110 -34 141 -45 38 -14 105 -24 210 -32 189 -15
303 -4 439 41 52 17 129 38 170 46 60 13 98 30 191 86 94 56 123 69 150 66 34
-3 34 -3 32 -52 -2 -65 -26 -95 -97 -123 -32 -12 -74 -37 -95 -56 -27 -24 -57
-39 -107 -51 -38 -10 -89 -30 -114 -46 -69 -44 -87 -48 -267 -65 -177 -17
-304 -15 -524 10 -99 11 -128 19 -185 48 -38 20 -97 43 -132 53 -35 9 -80 30
-100 47 -20 16 -53 36 -72 44 -98 42 -393 304 -457 407 -14 22 -37 55 -51 71
-14 17 -36 54 -49 84 -14 30 -35 67 -48 83 -13 15 -33 58 -45 95 -13 37 -37
95 -56 128 -73 132 -91 504 -40 841 10 65 21 102 41 134 15 24 39 77 52 118
13 41 37 91 53 111 16 20 38 57 49 82 11 25 30 54 42 65 12 10 33 42 46 69 27
52 195 233 248 266 37 23 63 24 93 3z"/>
</g><g transform="translate(0.000000,510.000000) scale(0.100000,-0.100000)" fill="#8B5e3c">
<path d="M2625 4580 c-64 -13 -189 -83 -252 -140 -57 -52 -95 -100 -149 -190
-15 -25 -36 -54 -46 -66 -12 -14 -17 -34 -16 -67 2 -42 -1 -49 -36 -79 l-38
-33 21 -27 c12 -15 27 -41 32 -58 7 -20 33 -46 73 -74 77 -54 89 -58 116 -39
18 13 21 22 16 49 -9 45 22 78 69 72 32 -4 33 -2 32 30 -1 28 6 41 36 68 27
25 37 42 37 64 0 58 146 170 223 170 48 0 186 -70 222 -112 25 -30 33 -80 16
-106 -10 -16 -71 -31 -128 -32 -23 0 -65 -9 -93 -20 -28 -11 -64 -20 -81 -20
-42 0 -33 -20 19 -45 23 -12 49 -28 57 -36 10 -10 27 -14 46 -11 26 4 30 8 26
28 -2 13 -1 21 3 19 4 -2 14 11 23 29 13 29 22 34 64 41 47 7 98 31 129 62 12
12 14 29 8 83 -7 73 2 86 51 74 13 -3 33 -3 44 1 23 7 60 77 62 120 4 60 1 66
-26 59 -42 -10 -73 4 -103 49 -25 35 -45 49 -125 85 -134 59 -224 73 -332 52z
m-156 -193 c-24 -24 -56 -58 -70 -75 -32 -38 -54 -43 -43 -9 9 30 47 76 59 73
6 -2 25 10 43 25 51 45 60 34 11 -14z m426 13 c0 -20 -29 -34 -59 -26 -34 8
-29 29 10 37 37 8 49 6 49 -11z m140 -84 c12 -18 14 -37 8 -82 -4 -33 -9 -51
-11 -41 -2 9 -12 17 -22 17 -25 0 -90 63 -90 87 0 14 11 22 38 30 56 16 60 15
77 -11z m-715 -119 c0 -7 -6 -21 -13 -32 -19 -26 -30 -3 -11 23 17 25 24 28
24 9z m-50 -166 c24 -45 7 -101 -31 -101 -46 0 -64 65 -29 100 25 25 46 25 60
1z M4169 4407 c-16 -13 -53 -96 -45 -104 2 -3 24 13 48 35 24 21 53 45 66 51
12 7 21 15 18 19 -8 13 -70 12 -87 -1z M4100 4311 c0 -5 -23 -12 -50 -16 -44
-6 -56 -13 -93 -56 -30 -35 -49 -49 -67 -49 -25 0 -49 -13 -100 -55 -87 -72
-101 -112 -41 -127 38 -10 49 -5 32 16 -29 35 -9 58 110 130 64 39 130 83 147
98 18 15 41 29 52 33 17 5 30 35 15 35 -3 0 -5 -4 -5 -9z M3447 4236 c-7 -17
17 -34 43 -31 8 1 21 3 28 3 19 3 14 32 -5 32 -10 0 -28 3 -39 6 -14 4 -23 0
-27 -10z M1812 3898 c-7 -7 -11 -26 -11 -42 2 -27 2 -28 6 -6 2 14 11 30 20
37 19 15 37 7 113 -52 30 -23 71 -47 90 -54 19 -6 48 -24 65 -40 26 -25 95
-52 95 -38 0 8 -133 84 -160 92 -29 9 -68 34 -124 82 -41 34 -73 42 -94 21z
M2995 3847 c58 -18 74 -56 51 -117 -38 -99 -33 -106 45 -70 53 24 126 26 157
4 15 -10 22 -25 22 -46 0 -40 8 -33 15 14 8 51 -19 83 -58 69 -43 -17 -68 -13
-74 9 -3 11 -9 20 -13 20 -4 0 -10 23 -12 50 -3 28 -7 52 -9 55 -6 5 -55 14
-114 20 l-50 5 40 -13z M1792 3773 c-1 -23 -5 -50 -8 -60 -5 -17 -5 -17 6 0 6
9 9 36 7 60 l-4 42 -1 -42z M3791 3771 c-1 -18 40 -111 49 -111 4 0 19 -11 33
-24 47 -43 39 -10 -11 45 -26 29 -52 64 -59 78 -6 14 -12 20 -12 12z M2354
3643 c20 -122 20 -125 -18 -203 -28 -58 -36 -87 -36 -131 0 -69 -18 -88 -81
-91 -39 -1 -40 -2 -10 -5 75 -10 111 26 111 109 1 24 14 76 31 118 35 86 50
200 29 225 -22 26 -33 17 -26 -22z M3432 3577 c-20 -24 -31 -67 -26 -97 5 -25
10 -29 29 -24 19 5 25 0 33 -28 6 -18 13 -49 17 -68 11 -59 26 -90 46 -90 10
0 21 5 24 10 9 14 -4 52 -16 45 -5 -4 -9 2 -9 12 0 10 -8 29 -17 43 -12 17
-17 43 -16 89 2 93 -32 148 -65 108z M3970 3508 c0 -10 -4 -18 -10 -18 -11 0
-14 -63 -4 -73 14 -14 44 15 44 41 0 32 -29 81 -30 50z M2555 3154 c-9 -15
-12 -23 -6 -20 11 7 35 46 28 46 -3 0 -12 -12 -22 -26z M3110 2978 c0 -91 18
-187 39 -211 13 -16 24 -18 70 -12 30 4 65 11 78 16 23 8 23 9 5 38 -10 17
-30 39 -44 51 -24 18 -31 41 -44 135 -3 28 -17 42 -42 42 -15 0 -35 3 -44 7
-16 7 -18 1 -18 -66z"/>
</g><g transform="translate(0.000000,510.000000) scale(0.100000,-0.100000)" fill="#FFB300">
<path d="M3315 4841 c-14 -29 -52 -191 -80 -346 -15 -83 -30 -105 -71 -105
-37 0 -53 11 -83 54 -24 34 -45 48 -125 84 -176 79 -291 81 -436 10 -125 -62
-207 -141 -296 -288 -15 -25 -36 -55 -47 -67 -21 -24 -44 -155 -33 -196 11
-44 60 -87 98 -87 49 0 68 25 68 90 0 46 4 57 34 90 22 25 41 60 52 99 15 55
23 66 92 126 102 88 117 87 259 -9 32 -22 60 -43 63 -46 3 -4 33 -22 68 -40
35 -18 74 -46 88 -62 24 -30 32 -80 15 -106 -10 -16 -71 -31 -128 -32 -23 0
-65 -9 -93 -20 -28 -11 -62 -20 -76 -20 -19 0 -24 -4 -20 -17 2 -10 7 -32 11
-49 3 -19 16 -36 31 -44 21 -12 29 -11 56 4 34 21 83 18 203 -12 60 -15 72
-21 84 -47 13 -26 12 -35 -3 -75 -38 -99 -33 -106 45 -70 53 24 126 26 157 4
31 -21 29 -67 -9 -194 -28 -93 -32 -123 -36 -267 -5 -148 -7 -163 -24 -168
-22 -7 -23 -12 -4 -45 8 -14 14 -52 15 -87 0 -74 15 -93 71 -93 44 0 44 -1 -3
66 -29 41 -50 106 -42 128 2 6 17 19 34 28 31 18 39 39 59 168 8 53 21 90 43
125 17 28 42 69 55 93 14 23 31 42 38 42 14 0 29 -37 40 -100 15 -82 44 -112
73 -77 21 25 42 131 42 209 0 65 3 81 20 98 35 35 77 26 126 -24 23 -25 60
-54 81 -64 21 -11 50 -31 64 -46 52 -52 109 -52 109 1 0 30 -93 177 -152 239
-47 49 -59 98 -31 132 18 23 21 23 263 25 246 3 307 11 298 40 -7 22 -100 61
-192 79 -50 10 -154 21 -231 24 -157 7 -188 17 -183 62 2 21 23 38 120 97 64
39 127 80 140 92 13 11 46 32 73 46 28 14 61 37 75 52 14 15 43 36 65 47 56
28 75 47 75 74 0 47 -94 44 -183 -5 -29 -16 -99 -44 -157 -62 -58 -17 -122
-40 -142 -51 -21 -10 -77 -29 -125 -42 -49 -13 -108 -33 -133 -45 -59 -27 -93
-26 -126 2 -30 26 -33 46 -53 378 -10 161 -26 229 -55 229 -9 0 -22 -13 -31
-29z m21 -649 c5 -4 20 -23 32 -43 35 -58 90 -73 168 -45 55 19 64 12 64 -47
0 -38 8 -69 30 -112 16 -33 30 -69 30 -81 0 -43 -21 -82 -51 -94 -16 -7 -46
-26 -66 -42 -20 -15 -48 -31 -62 -35 -14 -3 -43 -15 -64 -25 -44 -22 -44 -22
-72 35 -17 33 -33 48 -78 69 -43 21 -60 36 -70 61 -8 18 -26 46 -41 62 -32 35
-32 40 1 62 66 45 100 87 113 143 12 55 34 100 48 100 4 0 12 -4 18 -8z M1872
4048 c-20 -20 -13 -55 14 -77 21 -16 30 -18 40 -10 20 16 17 63 -4 82 -22 20
-34 21 -50 5z M640 948 c0 -9 11 -30 25 -45 19 -22 24 -24 25 -11 0 9 -11 30
-25 45 -19 22 -24 24 -25 11z M749 812 c13 -24 50 -56 57 -50 5 6 -50 68 -61
68 -3 0 -1 -8 4 -18z M890 681 c0 -13 41 -41 60 -41 11 1 10 4 -5 16 -34 26
-55 36 -55 25z"/>
</g></svg>