<?xml version="1.0" encoding="UTF-8"?>
<svg xmlns="http://www.w3.org/2000/svg" width="220" height="390" viewBox="0 0 220 390">
  <title>whizBANG! Exclamation and Bomb</title>

  <!-- Dark outlines and bomb body -->
  <g transform="translate(0,390) scale(0.1,-0.1)" fill="#111111" stroke="none">

    <path d="M884 3874 c-21 -15 -41 -30 -42 -35 -2 -5 -8 -7 -13 -3 -5 3 -9 1 -9
-4 0 -4 -8 -17 -17 -28 -76 -83 -145 -278 -142 -397 1 -34 4 -27 14 35 36 217
143 385 275 436 l55 21 -41 0 c-29 1 -53 -7 -80 -25z"/>
    <path d="M1240 3893 c8 -3 34 -14 58 -24 23 -10 42 -16 42 -13 0 8 -83 44
-100 43 -13 -1 -13 -1 0 -6z"/>
    <path d="M1516 3530 c-16 -109 -55 -238 -96 -321 -42 -83 -76 -141 -240 -409
-46 -74 -99 -162 -118 -195 -20 -33 -41 -67 -48 -75 -16 -19 -153 -288 -181
-355 -167 -401 -178 -421 -235 -432 -38 -8 -35 -19 8 -27 19 -4 42 -10 50 -13
16 -6 17 -3 149 307 106 249 175 387 262 528 312 504 417 694 443 797 19 80
28 168 21 210 l-7 40 -8 -55z"/>
    <path d="M654 3255 c0 -60 1 -84 3 -52 2 32 2 81 0 110 -2 29 -3 3 -3 -58z"/>
    <path d="M641 2542 c0 -24 -6 -74 -12 -112 -6 -39 -9 -78 -7 -87 6 -27 30 178
25 212 -3 23 -4 20 -6 -13z"/>
    <path d="M571 2055 c-23 -147 -41 -269 -38 -271 4 -5 11 31 41 211 37 226 48
304 44 315 -2 7 -23 -108 -47 -255z"/>
    <path d="M1095 1661 c-36 -9 -73 -28 -97 -48 -15 -14 -22 -13 -63 7 -28 14
-55 20 -69 16 -14 -3 -50 -34 -82 -69 l-57 -63 -86 18 c-213 45 -386 -6 -553
-161 -76 -70 -88 -94 -88 -178 l0 -68 33 58 c47 84 109 152 188 203 63 42 140
74 176 74 23 0 14 -20 -14 -31 -16 -6 -39 -16 -53 -22 -14 -6 -31 -11 -38 -13
-23 -4 -122 -86 -158 -129 -93 -115 -134 -288 -103 -437 30 -140 147 -290 272
-348 82 -39 198 -63 260 -55 38 5 47 3 47 -10 0 -16 -47 -21 -165 -15 -158 7
-335 129 -415 287 l-30 58 0 -68 c0 -61 3 -74 31 -112 36 -50 70 -72 42 -27
-15 25 -13 24 22 -8 22 -19 42 -37 45 -40 3 -3 16 -12 30 -19 124 -72 189 -95
310 -107 258 -25 526 174 595 441 17 67 21 215 5 215 -5 0 -10 -4 -10 -10 0
-5 -4 -10 -8 -10 -4 0 -8 9 -8 19 0 11 4 17 8 15 4 -3 15 12 24 33 20 47 9 99
-36 169 -34 53 -36 64 -16 64 7 0 32 20 54 44 22 24 46 46 52 48 7 2 4 11 -9
22 -18 16 -21 17 -21 3 0 -9 -13 -30 -30 -48 -16 -18 -27 -36 -24 -41 3 -4 -2
-8 -10 -8 -9 0 -21 -9 -28 -20 -7 -11 -18 -20 -25 -20 -7 0 -16 -6 -20 -14
-17 -28 -53 -39 -86 -25 -39 15 -102 62 -140 103 -50 54 -75 136 -42 136 8 0
15 -5 15 -11 0 -47 145 -200 188 -198 14 0 14 2 2 6 -39 15 -41 25 -13 55 25
26 26 31 12 41 -22 17 -41 55 -30 61 5 4 11 1 13 -6 6 -16 39 -19 57 -5 12 9
13 9 7 0 -4 -7 -3 -13 3 -13 22 0 18 17 -7 34 -41 28 -102 108 -102 133 0 30
41 41 84 21 41 -18 50 -16 126 27 50 29 104 29 166 1 54 -25 56 -25 38 -5 -39
43 -112 64 -169 50z m-211 -324 c4 4 4 -1 0 -11 -6 -16 -8 -17 -16 -2 -5 9
-14 13 -20 10 -7 -4 -8 -2 -4 5 6 8 12 9 20 2 7 -6 16 -8 20 -4z"/>
    <path d="M0 1635 c0 -12 16 -15 88 -14 48 1 76 4 62 6 -14 3 -29 9 -34 14 -6
5 -34 9 -63 9 -40 0 -53 -4 -53 -15z"/>
    <path d="M1477 1643 c-4 -3 -7 -14 -7 -24 0 -9 -6 -20 -12 -22 -10 -4 -10 -6
-1 -6 14 -1 23 11 28 39 4 21 2 24 -8 13z"/>
    <path d="M1404 1590 c-15 -22 -25 -42 -23 -45 3 -2 17 16 32 40 33 56 27 59
-9 5z"/>
    <path d="M112 1580 c-29 -4 -66 -13 -82 -20 -26 -11 -30 -18 -30 -49 l1 -36
13 30 c15 35 49 53 112 62 24 3 44 10 44 14 0 5 -1 8 -2 8 -2 -1 -27 -5 -56
-9z"/>
    <path d="M890 1555 c0 -47 121 -147 147 -122 3 3 2 18 -1 32 -6 22 -10 25 -21
15 -31 -25 -93 27 -82 69 3 12 -1 22 -10 25 -26 10 -33 6 -33 -19z"/>
    <path d="M1452 1570 c3 -8 -1 -21 -9 -28 -7 -8 -11 -18 -8 -23 4 -5 1 -9 -5
-9 -7 0 -9 -7 -6 -16 3 -8 2 -13 -3 -10 -5 3 -11 -3 -14 -14 -4 -16 -2 -17 12
-8 24 15 53 100 39 113 -7 7 -9 5 -6 -5z"/>
    <path d="M1122 1541 c-35 -6 -41 -28 -7 -23 11 1 30 2 43 2 14 0 22 5 20 12
-5 15 -15 17 -56 9z"/>
    <path d="M1362 1535 c4 -4 -3 -16 -15 -26 -19 -15 -19 -18 -5 -19 23 0 43 36
26 46 -7 4 -10 4 -6 -1z"/>
    <path d="M1004 1508 l-19 -23 23 19 c21 18 27 26 19 26 -2 0 -12 -10 -23 -22z"/>
    <path d="M1233 1458 c1 -13 -2 -22 -8 -21 -48 7 -86 11 -70 6 11 -3 29 -11 39
-19 26 -18 56 -1 56 31 0 14 -4 25 -10 25 -5 0 -9 -10 -7 -22z"/>
    <path d="M1406 1406 c3 -8 15 -17 27 -20 33 -9 145 -7 151 2 2 4 -3 8 -12 9
-9 1 -46 6 -82 12 -84 14 -90 14 -84 -3z"/>
    <path d="M1620 1337 c0 -5 -12 -7 -27 -6 -53 4 -114 -1 -109 -9 6 -10 70 -9
154 2 69 9 84 25 22 23 -22 -1 -40 -6 -40 -10z"/>
    <path d="M1164 1288 c-3 -4 4 -8 15 -8 12 0 21 4 21 8 0 5 -7 9 -15 9 -9 0
-18 -4 -21 -9z"/>
    <path d="M1216 1223 l-37 -58 41 45 c34 38 50 70 36 70 -2 0 -20 -26 -40 -57z"/>
    <path d="M1452 1228 c4 -11 40 -26 98 -42 14 -4 -1 7 -33 24 -66 34 -70 35
-65 18z"/>
    <path d="M1340 1188 c0 -9 -7 -18 -15 -22 -9 -3 -12 -12 -8 -22 5 -13 3 -15
-7 -9 -9 5 -11 4 -6 -4 6 -9 11 -9 22 0 26 21 37 50 25 62 -8 8 -11 7 -11 -5z"/>
    <path d="M1580 1171 c0 -4 11 -13 25 -19 31 -14 35 -15 35 -3 0 5 -13 14 -30
20 -16 5 -30 6 -30 2z"/>
    <path d="M1462 1105 c0 -16 2 -22 5 -12 2 9 2 23 0 30 -3 6 -5 -1 -5 -18z"/>
    <path d="M1280 1105 c0 -8 -5 -15 -11 -15 -5 0 -7 -4 -4 -10 3 -5 1 -10 -4
-10 -6 0 -11 -5 -11 -12 0 -6 11 -1 25 12 25 24 33 50 15 50 -5 0 -10 -7 -10
-15z"/>
    <path d="M1149 1058 c-12 -29 -14 -106 -4 -138 3 -10 1 -21 -5 -25 -5 -3 -10
-31 -10 -61 0 -56 -53 -214 -71 -214 -5 0 -9 -8 -9 -17 0 -25 -92 -125 -164
-181 -34 -25 -67 -53 -74 -62 -8 -8 -11 -9 -7 -3 4 10 0 10 -17 4 -13 -5 -22
-15 -20 -21 2 -8 -3 -10 -13 -6 -9 3 -31 0 -48 -8 -43 -17 -117 -28 -202 -28
-38 -1 -59 -3 -46 -5 19 -4 21 -7 10 -14 -16 -12 133 -4 196 9 53 12 167 59
180 75 6 6 23 19 38 26 66 34 163 145 211 241 50 98 59 141 60 276 1 78 5 137
12 145 21 27 23 36 9 36 -8 0 -19 -13 -26 -29z"/>
    <path d="M100 456 c0 -17 100 -92 132 -98 7 -2 17 -8 23 -15 9 -10 146 -63
164 -63 4 0 8 7 8 15 0 9 -10 15 -23 15 -13 0 -36 5 -51 11 -68 28 -190 88
-204 100 -26 25 -49 42 -49 35z"/>
  </g>

  <!-- Green fills - exclamation point and bomb rim glow -->
  <g transform="translate(0,390) scale(0.1,-0.1)" fill="#6DC520" stroke="none">

    <path d="M1045 3861 c-75 -22 -134 -52 -180 -92 -41 -36 -125 -159 -125 -183
0 -10 -12 -43 -26 -74 -38 -82 -44 -169 -53 -707 -5 -291 -12 -490 -19 -505
-5 -14 -15 -63 -22 -110 -6 -47 -18 -123 -26 -170 -8 -47 -14 -97 -14 -113 0
-15 -9 -52 -19 -83 -24 -67 -19 -88 18 -79 46 12 75 29 88 55 23 47 73 160 73
166 0 3 7 22 16 42 9 21 25 55 34 77 10 22 34 74 53 115 19 41 38 86 42 100 4
14 13 32 20 40 6 8 20 33 31 55 23 48 84 152 124 215 16 25 35 56 40 70 6 14
18 32 26 41 13 14 31 45 83 140 11 19 27 41 35 48 9 8 16 18 16 24 0 5 17 35
37 66 63 94 167 312 188 391 22 87 25 202 6 275 -10 38 -26 62 -68 102 -68 67
-114 90 -200 103 -87 12 -105 11 -178 -9z"/>
    <path d="M17 1599 c-9 -5 -17 -17 -17 -24 0 -18 0 -18 53 -6 23 6 54 12 70 16
15 3 27 10 27 15 0 13 -110 12 -133 -1z"/>
    <path d="M866 1591 c-4 -5 -3 -16 0 -25 6 -15 8 -15 20 1 7 10 14 21 14 26 0
10 -28 9 -34 -2z"/>
    <path d="M1047 1493 c-4 -3 -7 -19 -7 -34 0 -20 -7 -30 -23 -36 -13 -4 -50
-37 -81 -73 -54 -60 -56 -65 -37 -73 34 -16 65 1 96 50 16 27 33 56 37 65 4
10 19 20 33 24 29 7 30 14 10 54 -17 32 -18 33 -28 23z"/>
    <path d="M706 1418 c10 -32 76 -117 92 -118 19 0 14 18 -8 32 -11 7 -20 18
-20 25 0 7 -5 13 -10 13 -6 0 -18 16 -27 35 -19 39 -38 48 -27 13z"/>
    <path d="M315 1420 c-8 -13 15 -13 35 0 12 8 11 10 -7 10 -12 0 -25 -4 -28
-10z"/>
    <path d="M205 1359 c-11 -17 -2 -18 19 -3 17 12 17 14 4 14 -9 0 -20 -5 -23
-11z"/>
    <path d="M141 1303 c-5 -10 -26 -34 -45 -53 -20 -19 -50 -62 -66 -95 -30 -59
-30 -60 -30 -235 0 -172 0 -176 29 -235 36 -76 116 -160 206 -217 78 -50 106
-58 215 -63 l75 -4 -65 13 c-122 23 -153 38 -261 120 -64 49 -97 92 -136 176
-38 82 -46 123 -45 231 1 97 4 113 36 188 19 45 50 101 69 124 43 54 51 67 38
67 -6 0 -15 -8 -20 -17z"/>
    <path d="M840 1272 c0 -9 22 -20 73 -36 10 -3 17 0 17 8 0 8 -12 16 -27 18
-16 3 -36 9 -45 13 -10 4 -18 3 -18 -3z"/>
  </g>

  <!-- Orange fuse and spark -->
  <g transform="translate(0,390) scale(0.1,-0.1)" fill="#C8821A" stroke="none">

    <path d="M1453 1649 c-2 -23 3 -25 10 -4 4 8 3 16 -1 19 -4 3 -9 -4 -9 -15z"/>
    <path d="M1055 1600 c-31 -16 -70 -30 -85 -30 -40 0 -50 -33 -19 -66 12 -13
32 -24 43 -24 17 0 18 2 6 10 -12 7 -11 13 9 34 14 14 26 24 28 22 2 -2 18 9
36 25 25 23 40 29 68 27 29 -2 36 -7 35 -23 -1 -11 18 -36 42 -59 49 -45 54
-82 13 -102 -22 -11 -21 -12 19 -19 34 -6 45 -4 52 8 5 9 25 38 45 64 20 26
27 40 16 31 -26 -24 -40 -23 -54 3 -7 15 -8 24 0 32 12 12 -13 34 -84 71 -62
34 -100 33 -170 -4z"/>
    <path d="M1026 1513 c-6 -14 -5 -15 5 -6 7 7 10 15 7 18 -3 3 -9 -2 -12 -12z"/>
    <path d="M1359 1432 c-12 -32 -8 -44 18 -48 17 -3 19 1 15 23 -4 20 -2 24 9
18 11 -7 12 -6 2 7 -7 8 -11 17 -8 20 3 2 -2 5 -11 5 -9 0 -20 -12 -25 -25z"/>
    <path d="M1108 1443 c7 -3 16 -2 19 1 4 3 -2 6 -13 5 -11 0 -14 -3 -6 -6z"/>
    <path d="M1143 1425 c0 -8 3 -12 7 -10 4 2 13 -7 20 -20 7 -14 24 -25 39 -27
17 -2 26 -9 25 -20 -1 -10 4 -14 12 -11 8 3 14 7 14 10 0 9 -63 63 -91 78 -22
12 -26 12 -26 0z"/>
    <path d="M1192 1321 c-11 -7 -10 -10 3 -15 22 -8 22 -8 22 9 0 17 -6 18 -25 6z"/>
    <path d="M1438 1318 c-3 -7 4 -21 15 -30 25 -22 26 -22 20 2 -7 27 -30 45 -35
28z"/>
    <path d="M1235 1300 c-3 -5 4 -10 16 -10 16 0 20 -5 16 -20 -3 -11 -1 -18 4
-14 5 3 9 16 9 30 0 17 -5 24 -19 24 -11 0 -23 -4 -26 -10z"/>
    <path d="M1490 1263 c0 -1 15 -10 33 -18 23 -11 27 -12 15 -2 -10 8 -16 16
-13 18 2 3 -5 5 -15 5 -11 0 -20 -1 -20 -3z"/>
    <path d="M1229 1213 l-24 -28 28 24 c25 23 32 31 24 31 -2 0 -14 -12 -28 -27z"/>
    <path d="M1283 1228 c-12 -16 -15 -58 -4 -58 8 0 22 61 16 68 -1 1 -6 -3 -12
-10z"/>
    <path d="M1570 1225 c0 -2 15 -12 33 -20 l32 -16 -24 21 c-22 19 -41 26 -41
15z"/>
    <path d="M1361 1205 c9 -11 21 -35 29 -52 7 -18 17 -33 22 -33 5 0 7 4 4 8 -3
5 -8 24 -11 43 -6 35 -25 65 -25 40 0 -11 -3 -11 -17 0 -17 13 -17 12 -2 -6z"/>
    <path d="M1432 1185 c0 -16 2 -22 5 -12 2 9 2 23 0 30 -3 6 -5 -1 -5 -18z"/>
    <path d="M1250 1129 c0 -5 5 -7 10 -4 6 3 10 8 10 11 0 2 -4 4 -10 4 -5 0 -10
-5 -10 -11z"/>
    <path d="M1094 1059 c-4 -8 -3 -9 4 -5 15 9 16 -6 1 -21 -13 -13 -3 -36 12
-28 5 4 9 17 9 30 0 27 -15 41 -26 24z"/>
  </g>

  <!-- White gloss highlights on bomb -->
  <g transform="translate(0,390) scale(0.1,-0.1)" fill="#FFFFFF" stroke="none">

    <path d="M0 2795 l0 -1105 33 -1 c17 -1 40 -1 49 0 9 1 35 -3 57 -9 l41 -11 0
-53 0 -53 -51 -6 c-59 -7 -96 -28 -108 -60 -5 -12 -11 -66 -15 -119 l-7 -97
73 72 c90 90 163 137 248 163 50 14 95 19 195 19 81 0 144 -5 167 -13 l37 -13
69 71 68 71 30 -6 c16 -4 43 -14 59 -22 l31 -15 38 26 c49 33 110 49 151 42
18 -4 52 -20 76 -36 24 -16 49 -30 56 -30 18 0 33 -33 27 -57 -13 -48 18 -27
77 52 59 80 79 99 79 75 0 -5 7 -7 15 -4 10 4 15 0 15 -15 0 -38 -52 -176 -77
-202 l-24 -27 33 -6 c18 -3 78 -10 133 -16 55 -6 106 -13 113 -15 17 -6 15
-72 -3 -79 -8 -3 -56 -8 -106 -12 l-91 -7 106 -68 106 -69 0 -34 0 -35 -37 16
c-21 8 -64 28 -95 44 -32 16 -64 29 -72 29 l-15 0 6 -55 c6 -61 -5 -85 -43
-85 -17 0 -30 12 -51 50 -15 27 -30 50 -33 50 -3 0 -23 -23 -43 -50 -42 -57
-80 -81 -99 -62 -8 8 -7 22 6 54 10 24 22 51 28 61 5 11 8 21 5 23 -2 2 -21
-24 -43 -58 l-38 -63 -2 -125 -1 -125 -26 -76 c-48 -140 -122 -244 -238 -330
-81 -60 -182 -104 -276 -120 -124 -22 -278 1 -393 59 -72 36 -149 93 -194 144
l-46 53 0 -263 0 -262 1100 0 1100 0 0 1950 0 1950 -421 0 -421 0 49 -47 c28
-27 57 -60 66 -74 8 -14 28 -61 43 -105 22 -62 28 -97 28 -164 0 -49 -8 -116
-19 -159 -10 -41 -43 -124 -74 -185 -31 -61 -127 -226 -213 -366 -283 -464
-285 -467 -442 -835 -58 -137 -110 -256 -115 -264 l-9 -14 -70 17 c-49 13 -78
26 -97 46 l-27 29 16 83 c9 46 20 112 25 148 5 36 21 139 35 230 14 91 30 206
36 255 5 50 10 241 10 425 0 364 10 514 40 630 30 112 86 215 155 288 l61 62
-428 0 -428 0 0 -1105z"/>
    <path d="M1070 1555 c-14 -16 -10 -18 14 -9 9 3 16 10 16 15 0 14 -16 11 -30
-6z"/>
    <path d="M1113 1504 c-30 -13 -9 -31 52 -46 36 -8 65 -12 65 -8 0 4 -8 17 -17
29 -18 21 -76 36 -100 25z"/>
    <path d="M1290 1369 c0 -8 3 -24 6 -36 5 -17 14 -23 35 -23 22 0 30 6 35 25 4
14 4 28 1 31 -2 3 -21 8 -41 11 -27 4 -36 2 -36 -8z"/>
    <path d="M1095 1319 l-37 -52 24 -31 c15 -21 25 -50 28 -88 l5 -58 46 68 c25
37 54 80 64 95 l18 28 -41 -7 c-58 -9 -72 -2 -63 32 5 21 16 30 41 37 26 6 30
11 19 18 -8 5 -26 9 -41 9 -20 0 -34 -12 -63 -51z"/>
    <path d="M1478 1343 c7 -3 16 -2 19 1 4 3 -2 6 -13 5 -11 0 -14 -3 -6 -6z"/>
    <path d="M1319 1193 l-14 -18 18 14 c16 13 21 21 13 21 -2 0 -10 -8 -17 -17z"/>
  </g>

</svg>